<svg width="80" height="80" viewBox="0 0 80 80" fill="none" xmlns="http://www.w3.org/2000/svg">
<g clip-path="url(#clip0)">
<path d="M44.0084 29.7748C51.5487 27.7563 56.7092 22.0001 56.7092 15.4205C56.7092 11.3177 54.739 7.4823 51.1617 4.62158C47.6876 1.84265 43.0886 0.3125 38.2125 0.3125C33.3358 0.3125 28.7368 1.84265 25.2627 4.62158C21.686 7.4823 19.7158 11.3177 19.7158 15.4205C19.7158 19.1455 21.3821 22.7209 24.4076 25.4871C27.1304 27.9767 30.7882 29.6576 34.7836 30.2686C36.7593 33.9746 39.2361 36.6003 42.1536 38.0798C43.2504 38.6359 44.562 37.7161 44.421 36.5002C44.4174 36.4667 44.0713 33.4485 44.0084 29.7748ZM42.1151 26.9995C41.3864 27.149 40.8627 27.7893 40.8615 28.5333C40.8584 30.3583 40.931 32.077 41.0183 33.4747C39.5901 32.1442 38.3145 30.3552 37.2085 28.1256C36.9723 27.6489 36.5096 27.3242 35.9811 27.2644C28.4969 26.4111 22.853 21.3196 22.853 15.4205C22.853 8.81958 29.7433 3.44971 38.2125 3.44971C46.6818 3.44971 53.5714 8.81958 53.5714 15.4205C53.572 20.8545 48.8607 25.6158 42.1151 26.9995Z" fill="#FE5A0E"/>
<path d="M39.6647 14.3742C39.4224 13.787 38.8315 13.4019 38.198 13.4068C37.5394 13.4117 36.9443 13.8487 36.7313 14.47C36.5165 15.0975 36.735 15.8158 37.2617 16.2181C37.7799 16.6136 38.505 16.6465 39.0568 16.298C39.6915 15.8964 39.9515 15.0688 39.6647 14.3742Z" fill="#FE5A0E"/>
<path d="M35.0367 13.6702C34.5002 13.3156 33.7861 13.326 33.26 13.6953C32.7223 14.0725 32.4775 14.7756 32.6588 15.4055C32.8407 16.0366 33.4126 16.4974 34.0675 16.5395C34.731 16.5816 35.359 16.1867 35.6141 15.5745C35.8973 14.8964 35.6526 14.0773 35.0367 13.6702Z" fill="#FE5A0E"/>
<path d="M43.1355 13.67C42.5977 13.3154 41.8849 13.3264 41.3587 13.695C40.8198 14.0722 40.5769 14.7747 40.7581 15.4052C40.9388 16.0363 41.5107 16.4972 42.1656 16.5393C42.8279 16.5814 43.4596 16.1865 43.7141 15.5743C43.9961 14.8962 43.7507 14.0765 43.1355 13.67Z" fill="#FE5A0E"/>
<path d="M33.0048 57.5202C34.4757 54.6681 34.7473 51.4137 33.7708 48.357L31.1517 40.1606C30.448 37.9597 29.1345 36.02 27.3529 34.5527C24.1821 31.9404 19.9573 31.1256 16.051 32.3738C12.9944 33.3509 10.5011 35.4591 9.03015 38.3113C7.55981 41.164 7.2876 44.4178 8.26416 47.4745L10.8838 55.6715C11.3031 56.9837 11.9293 58.1733 12.7136 59.2176L12.4762 59.9299C5.19592 62.0668 0 69.5405 0 78.0757C0 78.9418 0.702515 79.6443 1.5686 79.6443H31.8689C32.7356 79.6443 33.4375 78.9418 33.4375 78.0757C33.4375 72.154 30.9613 66.6603 26.8402 63.1452C29.505 62.0692 31.6742 60.1008 33.0048 57.5202ZM11.8182 39.7493C12.9053 37.6423 14.7473 36.0841 17.0056 35.362C17.8961 35.0776 18.8086 34.9385 19.7144 34.9385C21.3239 34.9385 22.9102 35.3785 24.3066 36.2269C23.3673 37.8285 22.2705 39.3385 20.9766 40.6721C19.6729 42.0149 18.1195 43.1575 16.3611 43.8227C15.8514 44.0156 15.3314 44.1304 14.8071 44.2701C14.3756 44.3855 14.0063 44.687 13.808 45.0874C13.5999 45.5055 13.5913 45.9938 13.7799 46.4198C13.786 46.4332 13.7897 46.4466 13.7958 46.4601C13.8684 46.6133 13.9545 46.8135 14.0448 47.0478C14.5135 48.274 15.1251 50.5378 14.505 52.0216C14.2871 52.5422 13.8904 52.9554 13.3936 53.2197L11.2524 46.5193C10.531 44.261 10.7318 41.8568 11.8182 39.7493ZM21.8091 64.0168L21.2988 65.547C21.2616 65.6581 21.2195 65.7667 21.1725 65.8723C20.8429 66.6102 20.2734 67.2071 19.541 67.5733C18.7036 67.992 17.7533 68.0592 16.8652 67.7632C15.9772 67.4671 15.257 66.8428 14.8389 66.0054C14.4202 65.1679 14.353 64.2176 14.649 63.3296L15.1996 61.6792C15.2087 61.6859 15.2185 61.692 15.2277 61.6993C15.3296 61.7732 15.4321 61.8452 15.5359 61.916C15.5493 61.9252 15.5627 61.9349 15.5762 61.9441C17.4054 63.1843 19.5624 63.9173 21.8091 64.0168ZM30.2325 76.5071H3.20618C3.70483 70.8326 6.87988 65.9315 11.369 63.7141C11.2286 64.9769 11.4648 66.2721 12.0325 67.4079C12.8259 68.9949 14.1895 70.1783 15.8728 70.7392C17.5354 71.294 19.3756 71.1628 20.9436 70.3797C22.5305 69.5863 23.714 68.2228 24.2749 66.54L24.6545 65.4017C27.8113 68.014 29.8438 72.0454 30.2325 76.5071ZM25.0293 60.4695C21.9244 61.4613 18.4265 60.6184 16.1005 58.3387C15.4553 57.7064 14.9084 56.9734 14.4855 56.1756C15.7263 55.6117 16.7566 54.6492 17.3254 53.4028C18.2092 51.4668 17.9376 49.2085 17.4957 47.53C17.4426 47.3286 17.3645 47.1333 17.3138 46.9325C17.309 46.9142 17.3071 46.8952 17.3077 46.8763C17.2736 46.8287 17.2876 46.8043 17.3492 46.8037C17.392 46.7713 17.4731 46.7579 17.5226 46.7384C17.6294 46.6975 17.7356 46.6548 17.8412 46.6102C18.299 46.4198 18.7463 46.2056 19.1821 45.97C19.9536 45.5537 20.6836 45.0587 21.3733 44.5191C22.7673 43.4291 23.9893 42.1217 25.0641 40.7191C25.6488 39.9562 26.1914 39.1609 26.6949 38.3418C27.3419 39.1664 27.84 40.1033 28.1628 41.1152L30.7825 49.3116C32.2723 53.9741 29.6912 58.9796 25.0293 60.4695Z" fill="#FE5A0E"/>
<path d="M74.9421 64.3396C75.713 62.9931 76.1292 61.4569 76.1292 59.895C76.1292 56.1358 73.816 52.8692 70.4298 51.5619L71.7359 47.4743C73.7525 41.1645 70.2595 34.3902 63.9491 32.3736C60.8924 31.3965 57.6386 31.6687 54.7865 33.1396C51.9343 34.6106 49.8255 37.1039 48.8483 40.1605L46.2293 48.3569C45.2528 51.4135 45.5244 54.6679 46.9953 57.5201C48.2844 60.0207 50.3602 61.9494 52.9127 63.0456C48.9075 66.5869 46.5626 71.9537 46.5626 77.7643C46.5626 78.6303 47.2651 79.3329 48.1312 79.3329H61.2415C62.1082 79.3329 62.8101 78.6303 62.8101 77.7643C62.8101 76.8982 62.1082 76.1956 61.2415 76.1956H49.7669C50.102 72.2998 51.6773 68.7469 54.1914 66.156C55.0208 68.3923 56.9221 70.144 59.2182 70.7879C59.8756 70.9723 60.5585 71.0663 61.2415 71.0663C65.3858 71.0663 68.7574 67.6947 68.7574 63.5504C68.7574 63.5235 68.7568 63.4961 68.755 63.4692C69.4831 63.8391 70.1844 64.2822 70.8472 64.7943C71.186 65.0573 71.5137 65.3351 71.8275 65.628C74.5844 68.2055 76.4246 71.9867 76.7945 76.1956H73.7873C72.9212 76.1956 72.2187 76.8982 72.2187 77.7643C72.2187 78.6303 72.9212 79.3329 73.7873 79.3329H78.4315C79.2976 79.3329 80.0001 78.6303 80.0001 77.7643C80.0001 72.575 78.0805 67.7826 74.9421 64.3396ZM69.4727 54.5575C71.5723 55.4492 72.992 57.5213 72.992 59.895C72.992 60.6811 72.8388 61.4392 72.5422 62.1423C71.7725 61.568 70.9614 61.0663 70.1197 60.6427C69.4965 60.3283 68.852 60.0659 68.1953 59.8315C68.0396 59.776 67.8815 59.7296 67.7247 59.6795C67.627 59.649 67.519 59.6441 67.4689 59.5593C67.4018 59.4458 67.375 59.2865 67.3316 59.162C68.1129 58.1073 68.7122 56.9366 69.1169 55.6707L69.4727 54.5575ZM56.2238 35.9277C58.3314 34.8413 60.7355 34.6405 62.9945 35.3619C65.2528 36.084 67.0948 37.6422 68.1818 39.7491C69.2683 41.8567 69.4691 44.2614 68.7476 46.5197C68.6927 46.6919 68.6604 46.9104 68.5725 47.0672C68.5633 47.0837 68.5645 47.1014 68.5523 47.1124C68.4974 47.1624 68.2838 47.1631 68.2087 47.1753C67.9975 47.2094 67.7851 47.2357 67.5721 47.2546C66.6956 47.3315 65.807 47.2534 64.9677 46.9836C64.5087 46.8365 64.0662 46.6357 63.6524 46.3897C59.8682 44.1424 58.5535 38.4149 58.5413 38.36C58.321 37.3553 57.1546 36.8207 56.2519 37.3236C55.8991 37.5201 55.619 37.8607 55.3065 38.1146C54.9287 38.4216 54.5283 38.7036 54.1047 38.9428C53.6152 39.2187 53.0817 39.4458 52.522 39.5215C53.3631 37.9919 54.6381 36.7462 56.2238 35.9277ZM49.2176 49.3121L51.3526 42.6318C53.0579 42.8949 54.7773 42.2723 56.1994 41.3647C56.2275 41.4386 56.2562 41.5124 56.2849 41.5863C57.0734 43.609 58.5114 46.3971 60.9071 48.2977C62.367 49.4561 64.1242 50.2002 65.984 50.3766C66.4893 50.4242 66.999 50.4327 67.5056 50.4052C67.3194 50.9881 66.6016 53.2336 66.4295 53.7738C66.1982 54.4964 65.9803 55.2185 65.6507 55.9045C65.3193 56.5936 64.889 57.2406 64.3885 57.8186C62.7192 59.7448 60.2729 60.8807 57.7015 60.8905C56.778 60.8917 55.8503 60.7507 54.9708 60.4693C50.3089 58.9795 47.7277 53.974 49.2176 49.3121ZM61.2415 67.929C59.5417 67.929 57.9572 66.9037 57.2547 65.357C57.06 64.9292 56.9343 64.4702 56.8861 64.0027C57.3157 64.032 57.7485 64.0356 58.1788 64.0173C60.5921 63.9196 62.9243 63.0951 64.8682 61.6388L65.6135 63.7945C65.4859 66.0956 63.5737 67.929 61.2415 67.929Z" fill="#FE5A0E"/>
<path d="M68.3829 76.4592C67.8165 76.0789 67.0444 76.118 66.5171 76.552C66.0325 76.9505 65.8298 77.6182 66.0129 78.2188C66.2064 78.8548 66.7966 79.3083 67.4613 79.3321C68.1156 79.3547 68.7314 78.947 68.9713 78.3397C69.2399 77.6591 68.9896 76.8657 68.3829 76.4592Z" fill="#FE5A0E"/>
</g>
<defs>
<clipPath id="clip0">
<rect width="80" height="80" fill="white"/>
</clipPath>
</defs>
</svg>
