<svg width="80" height="80" viewBox="0 0 80 80" fill="none" xmlns="http://www.w3.org/2000/svg">
<g clip-path="url(#clip0)">
<path d="M70.4492 30.4686C70.9502 30.9702 71.6305 31.2516 72.3395 31.2516C73.0485 31.2516 73.7288 30.9702 74.2298 30.4686L78.9538 25.7446C79.7063 24.9921 80.1284 23.9723 80.1284 22.9091C80.1284 21.8458 79.7063 20.826 78.9538 20.0742L60.0548 1.17457C59.303 0.422724 58.2832 0 57.2193 0C56.1561 0 55.1363 0.422724 54.3844 1.17457L49.6598 5.89856C49.1588 6.4002 48.8768 7.07986 48.8768 7.78889C48.8768 8.49792 49.1588 9.17819 49.6598 9.67922L40.1287 19.2037L30.5975 9.67922C31.0991 9.17819 31.3811 8.49792 31.3811 7.78889C31.3811 7.07986 31.0991 6.4002 30.5975 5.89856L25.8735 1.17457C25.1216 0.422724 24.1018 0 23.038 0C21.9748 0 20.955 0.422724 20.2031 1.17457L1.30348 20.0742C0.551631 20.826 0.128906 21.8458 0.128906 22.9091C0.128906 23.9723 0.551631 24.9921 1.30348 25.7446L6.02808 30.4686C6.52911 30.9702 7.20938 31.2516 7.91841 31.2516C8.62744 31.2516 9.3071 30.9702 9.80874 30.4686L26.8988 47.5653L7.80279 66.6558C6.89188 66.4209 5.92408 66.6736 5.24503 67.3239L0.520431 72.0479C-0.00139801 72.5697 -0.00139801 73.4157 0.520431 73.9376L6.18408 79.6079C6.4349 79.8588 6.77504 80.0001 7.12986 80.0001C7.48468 80.0001 7.82481 79.8588 8.07502 79.6079L12.8064 74.8797C13.4897 74.2122 13.7521 73.223 13.4891 72.3048L32.7399 53.0601L40.114 51.5901L47.5181 53.0601L66.7621 72.3048C66.4991 73.223 66.7615 74.2116 67.4448 74.8784L72.1707 79.6043C72.4215 79.8551 72.7616 79.9958 73.1158 79.9958C73.4706 79.9958 73.8108 79.8551 74.0616 79.6043L79.7375 73.9443C80.2587 73.4225 80.2587 72.5764 79.7375 72.0546L75.0092 67.3226C74.3289 66.673 73.3618 66.4203 72.4515 66.654L53.3591 47.5653L70.4492 30.4673V30.4686ZM56.2742 3.06429C56.5244 2.81347 56.8645 2.67215 57.2193 2.67215C57.5741 2.67215 57.9143 2.81347 58.1651 3.06429L77.0647 21.9651C77.5853 22.4864 77.5853 23.3318 77.0647 23.853L72.3365 28.5788L71.4103 27.6539C71.4103 27.6459 71.4005 27.6355 71.3925 27.6288C71.3846 27.6221 71.3754 27.619 71.3687 27.611L52.5131 8.75302C52.5131 8.75302 52.507 8.73834 52.5002 8.73344C52.4935 8.72794 52.4855 8.72549 52.4788 8.71876L51.5428 7.78277L50.5983 8.72794L56.2742 3.06429ZM51.5526 38.0323L51.2504 37.7307L49.647 29.6812C49.491 28.9067 49.1141 28.1934 48.5617 27.6288L45.8009 24.8716L55.3241 15.3484L64.78 24.8049L51.5526 38.0323ZM43.9112 26.7613L46.6518 29.502C46.8421 29.6977 46.9712 29.9443 47.0232 30.2116L47.8454 34.3251L42.0985 28.5788L43.9112 26.7613ZM38.2408 21.0934L36.348 22.9843L26.8211 13.4562L28.7065 11.5702L38.2408 21.0934ZM30.614 29.688L29.01 37.7277L28.7078 38.0299L15.4773 24.7994L24.9338 15.3429L34.4583 24.8673L31.6858 27.6392C31.1377 28.2038 30.7651 28.9159 30.614 29.688ZM3.1932 23.853C2.67137 23.3312 2.67137 22.4857 3.1932 21.9633L22.0873 3.06429C22.3381 2.81347 22.6783 2.67215 23.0331 2.67215C23.3879 2.67215 23.7281 2.81347 23.9783 3.06429L28.7096 7.79256L27.7736 8.72794C27.7663 8.73222 27.7595 8.73711 27.7522 8.74262C27.7522 8.74262 27.7442 8.7573 27.7393 8.76281L8.88499 27.611C8.87826 27.619 8.86786 27.6208 8.86113 27.6288C8.8544 27.6367 8.85012 27.6459 8.84339 27.6539L7.9178 28.5788L3.1932 23.853ZM13.5851 26.6916L27.751 40.8574C27.907 41.0073 28.0984 41.1162 28.3071 41.1731L27.639 44.5261L11.6985 28.5776L13.5851 26.6916ZM7.13597 76.7737L3.35531 72.993L7.13597 69.2124L10.9166 72.993L7.13597 76.7737ZM51.2663 49.2434L70.2877 68.2672L69.3425 69.2136L68.3967 70.1581L49.1203 50.8804C49.0848 50.8548 49.0487 50.8303 49.0108 50.8083C48.9459 50.7575 48.8768 50.7128 48.8034 50.6749C48.719 50.6284 48.629 50.5911 48.536 50.5642C48.5024 50.5476 48.4675 50.5336 48.432 50.5213L46.9314 50.2216L50.4447 49.5187C50.7274 49.4569 51.0026 49.3657 51.2663 49.2464V49.2434ZM76.9026 72.993L73.1219 76.7737L69.3413 72.993L73.1219 69.2124L76.9026 72.993ZM50.6264 46.5211C50.4306 46.7132 50.1829 46.8428 49.9143 46.8955L31.8234 50.5171C31.7873 50.5293 31.7531 50.544 31.7188 50.5599C31.6258 50.5874 31.5365 50.6241 31.4515 50.6706C31.3787 50.7085 31.309 50.7538 31.2447 50.8046C31.2068 50.8266 31.1701 50.8505 31.1346 50.8768L11.8612 70.1581L9.97025 68.2672L29.2479 48.9913C29.2798 48.9577 29.292 48.9161 29.3201 48.8812C29.3844 48.806 29.4394 48.7234 29.4847 48.6353C29.5202 48.5662 29.5495 48.494 29.5716 48.4193C29.5844 48.3777 29.6089 48.3429 29.6181 48.3001L33.2329 30.2184C33.2825 29.9559 33.4061 29.713 33.5896 29.5185L51.5514 11.5702L53.4368 13.4562L39.271 27.6221C39.0189 27.8729 38.877 28.2136 38.877 28.5697C38.877 28.9251 39.0189 29.2658 39.271 29.5167L50.6105 40.8562C50.8601 41.1076 51.2002 41.2489 51.5551 41.2477C51.9093 41.2477 52.2494 41.107 52.5002 40.8562L66.6728 26.6903L68.5595 28.5764L50.6264 46.5211Z" fill="#FE5A0E"/>
<path d="M48.6417 43.7108C48.6693 43.6215 48.687 43.5291 48.695 43.4355C48.7029 43.3542 48.7029 43.2716 48.695 43.1896C48.6974 43.1456 48.6974 43.1009 48.695 43.0562C48.6809 43.0146 48.6638 42.9743 48.6442 42.9345C48.6203 42.8544 48.5885 42.7773 48.5494 42.7033C48.5059 42.6176 48.4521 42.5375 48.3903 42.4641C48.3652 42.4347 48.3554 42.3974 48.3279 42.3692L37.7622 31.8036C37.7292 31.7797 37.6956 31.7571 37.6607 31.7369C37.5897 31.6775 37.5127 31.6268 37.4307 31.5846C37.3573 31.5442 37.2796 31.5111 37.1994 31.4867C37.1554 31.4738 37.1217 31.4445 37.0765 31.4347C37.03 31.4322 36.9829 31.4322 36.9364 31.4347C36.8562 31.4267 36.7755 31.4267 36.6953 31.4347C36.5981 31.4426 36.5026 31.461 36.4097 31.491C36.3479 31.5111 36.2873 31.5362 36.2292 31.5656C36.1282 31.6151 36.0346 31.6782 35.9496 31.7516C35.9258 31.773 35.8952 31.7797 35.8725 31.8023C35.8499 31.825 35.8432 31.8543 35.823 31.877C35.7514 31.9608 35.6902 32.0526 35.6413 32.151C35.6083 32.2147 35.5807 32.2807 35.5581 32.3493C35.5373 32.3921 35.5189 32.4367 35.5036 32.4826L32.8572 45.7021C32.7801 46.0948 32.8823 46.501 33.1355 46.81C33.3894 47.1189 33.7687 47.2982 34.1682 47.2982C34.2581 47.2988 34.348 47.2902 34.4355 47.2712L47.6525 44.6266C47.696 44.6113 47.7388 44.5936 47.7798 44.5728C47.8538 44.5501 47.9254 44.5202 47.9933 44.4835C48.085 44.4376 48.1707 44.3807 48.249 44.3152C48.2753 44.2908 48.3089 44.2828 48.334 44.2577C48.3597 44.232 48.3689 44.1959 48.3934 44.1684C48.4607 44.0895 48.5175 44.0026 48.564 43.9102C48.5952 43.846 48.6209 43.7793 48.6417 43.7108ZM37.6338 35.4564L44.6727 42.4934L35.8646 44.259L37.6338 35.4564Z" fill="#FE5A0E"/>
</g>
<defs>
<clipPath id="clip0">
<rect width="80" height="80" fill="white"/>
</clipPath>
</defs>
</svg>
