<svg width="80" height="72" viewBox="0 0 80 72" fill="none" xmlns="http://www.w3.org/2000/svg">
<path d="M4.6875 71.9375H42.1875C43.7738 71.9375 45.4614 71.4203 46.8628 70.3631C48.2064 71.3753 49.853 71.9375 51.5625 71.9375H72.1875C76.4953 71.9375 80 68.4328 80 64.125C80 59.8172 76.4953 56.3125 72.1875 56.3125H61.0186C63.9913 53.2606 63.9686 48.3605 60.947 45.3389C57.9009 42.293 52.9445 42.293 49.8983 45.3389L46.875 48.3617V26.625C46.875 22.3172 43.3703 18.8125 39.0625 18.8125H37.5V15.6875H42.1875C43.0505 15.6875 43.75 14.988 43.75 14.125V4.75C43.75 2.16531 41.6472 0.0625 39.0625 0.0625H7.8125C5.22781 0.0625 3.125 2.16531 3.125 4.75V14.125C3.125 14.988 3.82453 15.6875 4.6875 15.6875H9.375V18.8125H7.8125C3.50469 18.8125 0 22.3172 0 26.625V67.25C0 69.8347 2.10281 71.9375 4.6875 71.9375ZM3.125 67.25V62.5609H34.5075C34.0689 64.7273 34.5661 67.013 35.9178 68.8125H4.6875C3.82594 68.8125 3.125 68.1116 3.125 67.25ZM44.3741 55.2822L51.0028 61.9109L45.478 67.4358C43.6183 69.2956 40.6492 69.2363 38.8486 67.4358C37.0314 65.6188 37.005 62.6497 38.8486 60.8066L44.3741 55.2822ZM49.1752 68.158C51.6723 65.6608 55.3948 61.9383 57.8956 59.4375H61.25V68.8125H51.5625C50.7139 68.8125 49.8908 68.5816 49.1752 68.158ZM76.875 64.125C76.875 66.7097 74.7722 68.8125 72.1875 68.8125H64.375V59.4375H72.1875C74.7722 59.4375 76.875 61.5403 76.875 64.125ZM52.108 47.5486C53.9352 45.7214 56.9094 45.7205 58.7373 47.5486C60.565 49.3764 60.565 52.3503 58.7373 54.178C58.358 54.5572 60.4091 52.5067 53.2123 59.7012L46.5839 53.0727L52.108 47.5486ZM6.25 4.75C6.25 3.88844 6.95094 3.1875 7.8125 3.1875H39.0625C39.9241 3.1875 40.625 3.88844 40.625 4.75V12.5625H37.5V7.875C37.5 7.01203 36.8005 6.3125 35.9375 6.3125C35.0745 6.3125 34.375 7.01203 34.375 7.875V12.5625H31.25V7.875C31.25 7.01203 30.5505 6.3125 29.6875 6.3125C28.8245 6.3125 28.125 7.01203 28.125 7.875V12.5625H25V7.875C25 7.01203 24.3005 6.3125 23.4375 6.3125C22.5745 6.3125 21.875 7.01203 21.875 7.875V12.5625H18.75V7.875C18.75 7.01203 18.0505 6.3125 17.1875 6.3125C16.3245 6.3125 15.625 7.01203 15.625 7.875V12.5625H12.5V7.875C12.5 7.01203 11.8005 6.3125 10.9375 6.3125C10.0745 6.3125 9.375 7.01203 9.375 7.875V12.5625H6.25V4.75ZM12.5 15.6875H34.375V18.8125H12.5V15.6875ZM7.8125 21.9375H39.0625C41.6472 21.9375 43.75 24.0403 43.75 26.625V28.1875H30.4688C29.6058 28.1875 28.9062 28.887 28.9062 29.75C28.9062 30.613 29.6058 31.3125 30.4688 31.3125H43.75V51.4864C42.543 52.6933 38.6081 56.6277 36.6389 58.5967C36.3755 58.8602 36.1339 59.1422 35.9122 59.4375H3.125V31.3125H16.4062C17.2692 31.3125 17.9688 30.613 17.9688 29.75C17.9688 28.887 17.2692 28.1875 16.4062 28.1875H3.125V26.625C3.125 24.0403 5.22781 21.9375 7.8125 21.9375Z" fill="#FE5A0E"/>
<path d="M12.5 42.25V48.5C12.5 49.363 13.1995 50.0625 14.0625 50.0625H18.75V54.75C18.75 55.613 19.4495 56.3125 20.3125 56.3125H26.5625C27.4255 56.3125 28.125 55.613 28.125 54.75V50.0625H32.8125C33.6755 50.0625 34.375 49.363 34.375 48.5V42.25C34.375 41.387 33.6755 40.6875 32.8125 40.6875H28.125V36C28.125 35.137 27.4255 34.4375 26.5625 34.4375H20.3125C19.4495 34.4375 18.75 35.137 18.75 36V40.6875H14.0625C13.1995 40.6875 12.5 41.387 12.5 42.25ZM15.625 43.8125H20.3125C21.1755 43.8125 21.875 43.113 21.875 42.25V37.5625H25V42.25C25 43.113 25.6995 43.8125 26.5625 43.8125H31.25V46.9375H26.5625C25.6995 46.9375 25 47.637 25 48.5V53.1875H21.875V48.5C21.875 47.637 21.1755 46.9375 20.3125 46.9375H15.625V43.8125Z" fill="#FE5A0E"/>
<path d="M23.4375 31.3125C24.3004 31.3125 25 30.6129 25 29.75C25 28.8871 24.3004 28.1875 23.4375 28.1875C22.5746 28.1875 21.875 28.8871 21.875 29.75C21.875 30.6129 22.5746 31.3125 23.4375 31.3125Z" fill="#FE5A0E"/>
</svg>
