<svg width="76" height="76" viewBox="0 0 76 76" fill="none" xmlns="http://www.w3.org/2000/svg">
<path d="M66.7505 35.5938V34.25C66.7505 30.6033 65.3018 27.1059 62.7232 24.5273C60.1446 21.9487 56.6472 20.5 53.0005 20.5C49.3537 20.5 45.8564 21.9487 43.2777 24.5273C40.6991 27.1059 39.2505 30.6033 39.2505 34.25V39.25H34.2505C33.9189 39.25 33.601 39.3817 33.3666 39.6161C33.1322 39.8505 33.0005 40.1685 33.0005 40.5V45.5C33.0005 45.8315 33.1322 46.1495 33.3666 46.3839C33.601 46.6183 33.9189 46.75 34.2505 46.75H34.3755L35.5592 58H30.5005V4.25C30.5005 3.25544 30.1054 2.30161 29.4021 1.59835C28.6988 0.895088 27.745 0.5 26.7505 0.5C25.7559 0.5 24.8021 0.895088 24.0988 1.59835C23.3955 2.30161 23.0005 3.25544 23.0005 4.25V58H10.5005C9.83766 58.0008 9.20223 58.2644 8.73356 58.7331C8.26489 59.2018 8.00124 59.8372 8.00046 60.5V64.0961L5.5378 73.9469C5.49174 74.1312 5.48828 74.3235 5.52769 74.5093C5.5671 74.6952 5.64834 74.8696 5.76524 75.0193C5.88214 75.169 6.03162 75.2901 6.20233 75.3734C6.37305 75.4567 6.5605 75.5 6.75046 75.5H65.5005C65.832 75.5 66.1499 75.3683 66.3843 75.1339C66.6188 74.8995 66.7505 74.5815 66.7505 74.25V69.3156L68.5148 52.5544C69.1192 52.2229 69.6227 51.7343 69.9722 51.1402C70.3218 50.5461 70.5043 49.8686 70.5005 49.1794V40.1875C70.4992 39.1073 70.1255 38.0605 69.4424 37.2237C68.7593 36.3869 67.8086 35.8112 66.7505 35.5938ZM41.7505 34.25C41.7505 32.7726 42.0414 31.3097 42.6068 29.9448C43.1722 28.5799 44.0008 27.3397 45.0455 26.295C46.0902 25.2504 47.3304 24.4217 48.6953 23.8564C50.0602 23.291 51.5231 23 53.0005 23C54.4778 23 55.9407 23.291 57.3056 23.8564C58.6706 24.4217 59.9107 25.2504 60.9554 26.295C62.0001 27.3397 62.8287 28.5799 63.3941 29.9448C63.9595 31.3097 64.2505 32.7726 64.2505 34.25V35.5H52.688C51.6077 35.5012 50.561 35.8749 49.7242 36.558C48.8874 37.2411 48.3117 38.1919 48.0942 39.25H41.7505V34.25ZM35.5005 41.75H48.0005V44.25H35.5005V41.75ZM36.8889 46.75H48.0005V49.1813C48.0026 49.6914 48.1055 50.1962 48.3033 50.6665C48.5011 51.1368 48.7898 51.5634 49.153 51.9217C49.5012 52.2695 49.9155 52.5441 50.3714 52.7292C50.8274 52.9144 51.3159 53.0064 51.808 52.9998C52.7105 52.9838 53.5773 52.6441 54.2505 52.0427C54.9373 52.659 55.8276 52.9999 56.7505 52.9999C57.6733 52.9999 58.5636 52.659 59.2505 52.0427C59.9371 52.6587 60.8271 52.9996 61.7496 52.9998C62.6721 53.0001 63.5622 52.6597 64.2492 52.0439C64.7341 52.4797 65.3251 52.7801 65.963 52.9148L64.3755 68H46.4764L45.5005 64.0961V60.5C45.4997 59.8372 45.236 59.2018 44.7674 58.7331C44.2987 58.2644 43.6633 58.0008 43.0005 58H38.0726L36.8889 46.75ZM25.5005 4.25C25.5005 3.91848 25.6322 3.60054 25.8666 3.36612C26.101 3.1317 26.4189 3 26.7505 3C27.082 3 27.3999 3.1317 27.6343 3.36612C27.8688 3.60054 28.0005 3.91848 28.0005 4.25V58H25.5005V4.25ZM10.5005 60.5H43.0005V63H10.5005V60.5ZM13.3514 73L15.2264 65.5H17.6495L15.7745 73H13.3514ZM10.2264 65.5H12.6495L10.7745 73H8.35139L10.2264 65.5ZM20.2264 65.5H22.8345L21.897 73H18.3514L20.2264 65.5ZM24.4164 73L25.3539 65.5H28.147L29.0845 73H24.4164ZM31.6039 73L30.6664 65.5H33.2745L35.1495 73H31.6039ZM37.7264 73L35.8514 65.5H38.2745L40.1495 73H37.7264ZM42.7264 73L40.8514 65.5H43.2745L45.1495 73H42.7264ZM64.2505 73H47.7264L47.1014 70.5H64.2505V73ZM68.0005 45.5V49.1794C68.0063 49.5087 67.8869 49.828 67.6665 50.0728C67.4461 50.3176 67.1411 50.4697 66.813 50.4984C66.6437 50.5069 66.4746 50.4809 66.3158 50.422C66.1569 50.3631 66.0117 50.2725 65.889 50.1557C65.7662 50.039 65.6685 49.8985 65.6017 49.7428C65.5349 49.5871 65.5005 49.4194 65.5005 49.25V44.25H63.0005V49.25C63.0005 49.5815 62.8688 49.8995 62.6343 50.1339C62.3999 50.3683 62.082 50.5 61.7505 50.5C61.4189 50.5 61.101 50.3683 60.8666 50.1339C60.6321 49.8995 60.5005 49.5815 60.5005 49.25V44.25H58.0005V49.25C58.0005 49.5815 57.8688 49.8995 57.6343 50.1339C57.3999 50.3683 57.082 50.5 56.7505 50.5C56.4189 50.5 56.101 50.3683 55.8666 50.1339C55.6321 49.8995 55.5005 49.5815 55.5005 49.25V44.25H53.0005V49.25C53.0008 49.5782 52.8719 49.8934 52.6417 50.1273C52.4114 50.3613 52.0983 50.4952 51.7701 50.5H51.753C51.4346 50.4968 51.1306 50.3676 50.9073 50.1406C50.7798 50.0154 50.6782 49.8661 50.6085 49.7015C50.5388 49.5369 50.5023 49.3602 50.5011 49.1814V40.1875C50.5017 39.6075 50.7324 39.0515 51.1425 38.6414C51.5526 38.2313 52.1086 38.0006 52.6886 38H65.8136C66.3936 38.0006 66.9496 38.2313 67.3597 38.6414C67.7698 39.0515 68.0005 39.6075 68.0011 40.1875L68.0005 45.5Z" fill="#FE5A0E"/>
<path d="M61.75 59.25H59.25V65.5H61.75V59.25Z" fill="#FE5A0E"/>
<path d="M61.75 54.25H59.25V56.75H61.75V54.25Z" fill="#FE5A0E"/>
<path d="M13.0645 40.8956C13.1475 41.1444 13.3067 41.3609 13.5195 41.5142C13.7323 41.6676 13.988 41.7501 14.2503 41.7501C14.5126 41.7501 14.7683 41.6676 14.9811 41.5142C15.1939 41.3609 15.3531 41.1444 15.4361 40.8956C15.765 39.9166 16.3163 39.027 17.0466 38.2967C17.7769 37.5664 18.6665 37.0152 19.6456 36.6862C19.8945 36.6033 20.1111 36.4441 20.2645 36.2313C20.418 36.0184 20.5005 35.7627 20.5005 35.5003C20.5005 35.2379 20.418 34.9822 20.2645 34.7693C20.1111 34.5565 19.8945 34.3973 19.6456 34.3144C18.6665 33.9854 17.7769 33.4342 17.0466 32.7039C16.3163 31.9736 15.765 31.084 15.4361 30.105C15.3531 29.8561 15.1939 29.6397 14.9811 29.4864C14.7683 29.333 14.5126 29.2505 14.2503 29.2505C13.988 29.2505 13.7323 29.333 13.5195 29.4864C13.3067 29.6397 13.1475 29.8561 13.0645 30.105C12.7355 31.084 12.1843 31.9736 11.4539 32.7039C10.7236 33.4342 9.83403 33.9854 8.85496 34.3144C8.60601 34.3973 8.38947 34.5565 8.23602 34.7693C8.08257 34.9822 8 35.2379 8 35.5003C8 35.7627 8.08257 36.0184 8.23602 36.2313C8.38947 36.4441 8.60601 36.6033 8.85496 36.6862C9.83403 37.0152 10.7236 37.5664 11.4539 38.2967C12.1843 39.027 12.7355 39.9166 13.0645 40.8956ZM14.2503 33.2451C14.8657 34.1217 15.6287 34.8848 16.5053 35.5003C15.6287 36.1158 14.8657 36.8789 14.2503 37.7555C13.6348 36.8789 12.8718 36.1158 11.9953 35.5003C12.8718 34.8848 13.6348 34.1217 14.2503 33.2451Z" fill="#FE5A0E"/>
<path d="M74.6456 19.3144C73.6665 18.9854 72.7769 18.4342 72.0466 17.7039C71.3163 16.9736 70.765 16.084 70.4361 15.105C70.3531 14.8561 70.1939 14.6397 69.9811 14.4864C69.7683 14.333 69.5126 14.2505 69.2503 14.2505C68.988 14.2505 68.7323 14.333 68.5195 14.4864C68.3067 14.6397 68.1475 14.8561 68.0645 15.105C67.7355 16.084 67.1843 16.9736 66.4539 17.7039C65.7236 18.4342 64.834 18.9854 63.855 19.3144C63.606 19.3973 63.3895 19.5565 63.236 19.7693C63.0826 19.9822 63 20.2379 63 20.5003C63 20.7627 63.0826 21.0184 63.236 21.2313C63.3895 21.4441 63.606 21.6033 63.855 21.6862C64.834 22.0152 65.7236 22.5664 66.4539 23.2967C67.1843 24.027 67.7355 24.9166 68.0645 25.8956C68.1475 26.1444 68.3067 26.3609 68.5195 26.5142C68.7323 26.6676 68.988 26.7501 69.2503 26.7501C69.5126 26.7501 69.7683 26.6676 69.9811 26.5142C70.1939 26.3609 70.3531 26.1444 70.4361 25.8956C70.765 24.9166 71.3163 24.027 72.0466 23.2967C72.7769 22.5664 73.6665 22.0152 74.6456 21.6862C74.8945 21.6033 75.1111 21.4441 75.2645 21.2313C75.418 21.0184 75.5005 20.7627 75.5005 20.5003C75.5005 20.2379 75.418 19.9822 75.2645 19.7693C75.1111 19.5565 74.8945 19.3973 74.6456 19.3144ZM69.2503 22.7555C68.6348 21.8789 67.8718 21.1158 66.9953 20.5003C67.8718 19.8848 68.6348 19.1217 69.2503 18.2451C69.8657 19.1217 70.6287 19.8848 71.5053 20.5003C70.6287 21.1158 69.8657 21.8789 69.2503 22.7555Z" fill="#FE5A0E"/>
<path d="M6.75028 56.7503C7.01262 56.7503 7.2683 56.6677 7.48112 56.5143C7.69393 56.3609 7.8531 56.1445 7.93606 55.8956C8.26502 54.9166 8.81627 54.027 9.54661 53.2967C10.277 52.5664 11.1665 52.0152 12.1456 51.6862C12.3945 51.6033 12.6111 51.4441 12.7645 51.2313C12.918 51.0184 13.0006 50.7627 13.0006 50.5003C13.0006 50.2379 12.918 49.9822 12.7645 49.7693C12.6111 49.5564 12.3945 49.3973 12.1456 49.3144C11.1665 48.9854 10.277 48.4342 9.54661 47.7039C8.81627 46.9736 8.26502 46.084 7.93606 45.105C7.85306 44.8561 7.69389 44.6397 7.48107 44.4864C7.26826 44.333 7.01259 44.2505 6.75028 44.2505C6.48796 44.2505 6.2323 44.333 6.01948 44.4864C5.80667 44.6397 5.64749 44.8561 5.5645 45.105C5.23554 46.084 4.68428 46.9736 3.95394 47.7039C3.2236 48.4342 2.33403 48.9854 1.35497 49.3144C1.10602 49.3973 0.889474 49.5564 0.736025 49.7693C0.582575 49.9822 0.5 50.2379 0.5 50.5003C0.5 50.7627 0.582575 51.0184 0.736025 51.2313C0.889474 51.4441 1.10602 51.6033 1.35497 51.6862C2.33403 52.0152 3.2236 52.5664 3.95394 53.2967C4.68428 54.027 5.23554 54.9166 5.5645 55.8956C5.64746 56.1445 5.80662 56.3609 6.01944 56.5143C6.23226 56.6677 6.48794 56.7503 6.75028 56.7503ZM6.75028 48.2451C7.36573 49.1217 8.12873 49.8848 9.00528 50.5003C8.12873 51.1158 7.36573 51.8789 6.75028 52.7555C6.13483 51.8789 5.37183 51.1158 4.49528 50.5003C5.37183 49.8848 6.13483 49.1217 6.75028 48.2451Z" fill="#FE5A0E"/>
</svg>
