<svg width="80" height="80" viewBox="0 0 80 80" fill="none" xmlns="http://www.w3.org/2000/svg">
<path d="M42.5806 67.0967H40V69.6773H42.5806V67.0967Z" fill="#FE5A0E"/>
<path d="M80.0002 52.9031C80.0002 50.7947 78.9834 48.9199 77.4157 47.7418C78.9834 46.5637 80.0002 44.6889 80.0002 42.5805C80.0002 39.0231 77.106 36.1289 73.5486 36.1289H37.4195C31.0157 36.1289 25.8066 41.3392 25.8066 47.7418C25.8066 52.236 28.3783 56.1354 32.1241 58.0644C28.3783 59.9934 25.8066 63.8928 25.8066 68.387C25.8066 74.7896 31.0157 79.9999 37.4195 79.9999H73.5486C77.106 79.9999 80.0002 77.1057 80.0002 73.5483C80.0002 71.4399 78.9834 69.565 77.4157 68.387C78.9834 67.2089 80.0002 65.3341 80.0002 63.2257C80.0002 61.1083 78.9602 59.2412 77.3796 58.0644C78.9602 56.8876 80.0002 55.0205 80.0002 52.9031ZM77.4195 63.2257C77.4195 65.3599 75.6828 67.0966 73.5486 67.0966H45.1615V69.6773H73.5486C75.6828 69.6773 77.4195 71.4141 77.4195 73.5483C77.4195 75.6825 75.6828 77.4192 73.5486 77.4192H37.4195C32.4402 77.4192 28.3873 73.3676 28.3873 68.387C28.3873 63.4063 32.4402 59.3547 37.4195 59.3547H73.5486C75.6828 59.3547 77.4195 61.0915 77.4195 63.2257ZM73.5486 56.7741H37.4195C32.4402 56.7741 28.3873 52.7225 28.3873 47.7418C28.3873 42.7612 32.4402 38.7096 37.4195 38.7096H73.5486C75.6828 38.7096 77.4195 40.4463 77.4195 42.5805C77.4195 44.7147 75.6828 46.4515 73.5486 46.4515H45.1615V49.0321H73.5486C75.6828 49.0321 77.4195 50.7689 77.4195 52.9031C77.4195 55.0373 75.6828 56.7741 73.5486 56.7741Z" fill="#FE5A0E"/>
<path d="M42.5806 46.4517H40V49.0323H42.5806V46.4517Z" fill="#FE5A0E"/>
<path d="M2.58065 73.5484C2.58065 71.4142 4.31742 69.6774 6.45161 69.6774H23.2258V67.0968H6.45161C4.99355 67.0968 3.66194 67.6013 2.58065 68.4206V63.2258C2.58065 61.0916 4.31742 59.3548 6.45161 59.3548H9.03226V56.7742H6.45161C4.99355 56.7742 3.66194 57.2787 2.58065 58.0981V14.1935C2.58065 12.0594 4.31742 10.3226 6.45161 10.3226H9.03226V7.74194H6.45161C4.99355 7.74194 3.66194 8.24645 2.58065 9.06581V6.45161C2.58065 4.31742 4.31742 2.58065 6.45161 2.58065H50.3226C52.4568 2.58065 54.1935 4.31742 54.1935 6.45161V9.06581C53.1123 8.24645 51.7806 7.74194 50.3226 7.74194H47.7419V10.3226H50.3226C52.4568 10.3226 54.1935 12.0594 54.1935 14.1935V33.5484H56.7742V6.45161C56.7742 2.89419 53.88 0 50.3226 0H6.45161C2.89419 0 0 2.89419 0 6.45161V73.5484C0 77.1058 2.89419 80 6.45161 80H27.0968V77.4193H6.45161C4.31742 77.4193 2.58065 75.6826 2.58065 73.5484Z" fill="#FE5A0E"/>
<path d="M7.74178 72.2583H5.16113V74.8389H7.74178V72.2583Z" fill="#FE5A0E"/>
<path d="M24.5163 72.2583H10.3228V74.8389H24.5163V72.2583Z" fill="#FE5A0E"/>
<path d="M43.8708 7.7417H38.7095V10.3223H43.8708V7.7417Z" fill="#FE5A0E"/>
<path d="M34.8385 7.7417H29.6772V10.3223H34.8385V7.7417Z" fill="#FE5A0E"/>
<path d="M27.0968 7.7417H21.9355V10.3223H27.0968V7.7417Z" fill="#FE5A0E"/>
<path d="M18.0646 7.7417H12.9033V10.3223H18.0646V7.7417Z" fill="#FE5A0E"/>
<path d="M27.0968 56.7744H21.9355V59.3551H27.0968V56.7744Z" fill="#FE5A0E"/>
<path d="M18.0646 56.7744H12.9033V59.3551H18.0646V56.7744Z" fill="#FE5A0E"/>
</svg>
