<svg width="80" height="47" viewBox="0 0 80 47" fill="none" xmlns="http://www.w3.org/2000/svg">
<path d="M75.777 19.8514L61.1677 13.4644L52.425 2.70488C51.8991 2.05391 51.2339 1.52914 50.4784 1.1692C49.7229 0.809264 48.8962 0.623315 48.0594 0.625038H13.0906C11.813 0.620761 10.5597 0.974546 9.47289 1.64628C8.38607 2.31801 7.50921 3.28081 6.94172 4.42551L1.35031 15.6069C0.87494 16.5616 0.626706 17.6132 0.625 18.6797V33.75C0.626654 35.2414 1.21982 36.6712 2.27435 37.7257C3.32889 38.7802 4.75867 39.3734 6.25 39.375H8.31359C8.74591 41.4924 9.89637 43.3954 11.5703 44.7621C13.2443 46.1288 15.339 46.8753 17.5 46.8753C19.661 46.8753 21.7557 46.1288 23.4297 44.7621C25.1036 43.3954 26.2541 41.4924 26.6864 39.375H55.8138C56.2458 41.4944 57.3974 43.3992 59.0733 44.7665C60.7493 46.1338 62.8464 46.8796 65.0094 46.8774C67.1723 46.8752 69.268 46.1251 70.9411 44.7544C72.6143 43.3836 73.762 41.4765 74.1897 39.3563C75.6003 39.2442 76.917 38.6052 77.8778 37.5664C78.8386 36.5275 79.3731 35.1651 79.375 33.75V25.0985C79.3714 23.9638 79.0263 22.8564 78.3845 21.9206C77.7428 20.9847 76.8342 20.2637 75.777 19.8514ZM49.5136 5.06848L56.0603 13.125H41.875V4.37504H48.0594C48.3382 4.37447 48.6136 4.43648 48.8653 4.55649C49.117 4.6765 49.3385 4.85146 49.5136 5.06848ZM30.625 4.37504V13.125H14.7L18.9045 4.37504H30.625ZM10.2958 6.1027C10.5537 5.58236 10.9522 5.1447 11.4462 4.83934C11.9402 4.53398 12.5099 4.37313 13.0906 4.37504H14.7441L10.5395 13.125H6.78406L10.2958 6.1027ZM17.5 43.125C16.3875 43.125 15.2999 42.7951 14.3749 42.1771C13.4499 41.559 12.7289 40.6805 12.3032 39.6526C11.8774 38.6248 11.766 37.4938 11.9831 36.4027C12.2001 35.3115 12.7359 34.3092 13.5225 33.5226C14.3092 32.7359 15.3115 32.2002 16.4026 31.9831C17.4938 31.7661 18.6248 31.8775 19.6526 32.3032C20.6804 32.729 21.5589 33.4499 22.177 34.375C22.7951 35.3 23.125 36.3875 23.125 37.5C23.1233 38.9914 22.5302 40.4212 21.4756 41.4757C20.4211 42.5302 18.9913 43.1234 17.5 43.125ZM65 43.125C63.8875 43.125 62.7999 42.7951 61.8749 42.1771C60.9499 41.559 60.2289 40.6805 59.8032 39.6526C59.3774 38.6248 59.266 37.4938 59.4831 36.4027C59.7001 35.3115 60.2359 34.3092 61.0225 33.5226C61.8092 32.7359 62.8115 32.2002 63.9026 31.9831C64.9938 31.7661 66.1248 31.8775 67.1526 32.3032C68.1804 32.729 69.0589 33.4499 69.677 34.375C70.2951 35.3 70.625 36.3875 70.625 37.5C70.6233 38.9914 70.0302 40.4212 68.9756 41.4757C67.9211 42.5302 66.4913 43.1234 65 43.125ZM75.625 33.75C75.6243 34.173 75.4807 34.5834 75.2176 34.9145C74.9545 35.2457 74.5872 35.4783 74.1753 35.5746C73.7328 33.4636 72.576 31.5698 70.8998 30.2124C69.2237 28.8551 67.1308 28.1171 64.974 28.1231C62.8172 28.129 60.7284 28.8784 59.0597 30.245C57.3911 31.6116 56.2447 33.5117 55.8138 35.625H26.6864C26.2541 33.5077 25.1036 31.6047 23.4297 30.238C21.7557 28.8713 19.661 28.1248 17.5 28.1248C15.339 28.1248 13.2443 28.8713 11.5703 30.238C9.89637 31.6047 8.74591 33.5077 8.31359 35.625H6.25C5.75288 35.6245 5.27628 35.4268 4.92477 35.0753C4.57325 34.7238 4.37554 34.2472 4.375 33.75V18.6797C4.37594 18.1947 4.48893 17.7165 4.70516 17.2824L4.90828 16.875H32.5C32.9973 16.875 33.4742 16.6775 33.8258 16.3259C34.1775 15.9742 34.375 15.4973 34.375 15V4.37504H38.125V15C38.125 15.4973 38.3225 15.9742 38.6742 16.3259C39.0258 16.6775 39.5027 16.875 40 16.875H59.608L74.3161 23.3055C74.3467 23.3189 74.3777 23.3315 74.4089 23.3432C74.7655 23.4782 75.0726 23.7184 75.2898 24.0318C75.5069 24.3452 75.6238 24.7172 75.625 25.0985V33.75Z" fill="#FE5A0E"/>
<path d="M17.5 39.375C18.5355 39.375 19.375 38.5355 19.375 37.5C19.375 36.4645 18.5355 35.625 17.5 35.625C16.4645 35.625 15.625 36.4645 15.625 37.5C15.625 38.5355 16.4645 39.375 17.5 39.375Z" fill="#FE5A0E"/>
<path d="M65 39.375C66.0355 39.375 66.875 38.5355 66.875 37.5C66.875 36.4645 66.0355 35.625 65 35.625C63.9645 35.625 63.125 36.4645 63.125 37.5C63.125 38.5355 63.9645 39.375 65 39.375Z" fill="#FE5A0E"/>
<path d="M42.5 20.625H40.1562C39.659 20.625 39.1821 20.8225 38.8304 21.1742C38.4788 21.5258 38.2812 22.0027 38.2812 22.5C38.2812 22.9973 38.4788 23.4742 38.8304 23.8258C39.1821 24.1775 39.659 24.375 40.1562 24.375H42.5C42.9973 24.375 43.4742 24.1775 43.8258 23.8258C44.1775 23.4742 44.375 22.9973 44.375 22.5C44.375 22.0027 44.1775 21.5258 43.8258 21.1742C43.4742 20.8225 42.9973 20.625 42.5 20.625Z" fill="#FE5A0E"/>
<path d="M20 20.625H16.25C15.7527 20.625 15.2758 20.8225 14.9242 21.1742C14.5725 21.5258 14.375 22.0027 14.375 22.5C14.375 22.9973 14.5725 23.4742 14.9242 23.8258C15.2758 24.1775 15.7527 24.375 16.25 24.375H20C20.4973 24.375 20.9742 24.1775 21.3258 23.8258C21.6775 23.4742 21.875 22.9973 21.875 22.5C21.875 22.0027 21.6775 21.5258 21.3258 21.1742C20.9742 20.8225 20.4973 20.625 20 20.625Z" fill="#FE5A0E"/>
</svg>
