<svg width="20" height="19" viewBox="0 0 20 19" fill="none" xmlns="http://www.w3.org/2000/svg">
<path d="M0.378906 6.25879C0.378906 10.3911 3.84473 14.4619 9.28955 17.9585C9.53564 18.1123 9.85352 18.2559 10.0688 18.2559C10.2842 18.2559 10.6123 18.1123 10.8481 17.9585C16.293 14.4619 19.769 10.3911 19.769 6.25879C19.769 2.78271 17.3696 0.332031 14.2114 0.332031C12.3965 0.332031 10.9507 1.18311 10.0688 2.48535C9.20752 1.19336 7.74121 0.332031 5.92627 0.332031C2.76807 0.332031 0.378906 2.78271 0.378906 6.25879ZM2.08105 6.24854C2.08105 3.71582 3.73193 2.02393 5.95703 2.02393C7.75146 2.02393 8.77686 3.13135 9.39209 4.08496C9.65869 4.47461 9.83301 4.59766 10.0688 4.59766C10.3149 4.59766 10.4585 4.46436 10.7456 4.08496C11.4121 3.15186 12.3965 2.02393 14.1909 2.02393C16.416 2.02393 18.0566 3.71582 18.0566 6.24854C18.0566 9.79639 14.3345 13.6519 10.2637 16.3589C10.1714 16.4204 10.1099 16.4614 10.0688 16.4614C10.0381 16.4614 9.96631 16.4204 9.87402 16.3589C5.80322 13.6519 2.08105 9.79639 2.08105 6.24854Z" fill="#FF0222"/>
</svg>
