<svg width="14" height="14" viewBox="0 0 14 14" fill="none" xmlns="http://www.w3.org/2000/svg">
<path d="M7 13.9551C10.623 13.9551 13.624 10.9541 13.624 7.33105C13.624 3.70801 10.6162 0.707031 6.99316 0.707031C3.37012 0.707031 0.369141 3.70801 0.369141 7.33105C0.369141 10.9541 3.37695 13.9551 7 13.9551ZM7 12.7793C3.97852 12.7793 1.55859 10.3525 1.55859 7.33105C1.55859 4.30957 3.97168 1.88281 6.99316 1.88281C10.0146 1.88281 12.4414 4.30957 12.4482 7.33105C12.4551 10.3525 10.0215 12.7793 7 12.7793ZM4.81934 10.0654C4.96973 10.0654 5.10645 10.0039 5.20898 9.90137L6.99316 8.11035L8.78418 9.90137C8.88672 9.99707 9.0166 10.0654 9.17383 10.0654C9.47461 10.0654 9.71387 9.81934 9.71387 9.51855C9.71387 9.36133 9.65918 9.23828 9.5498 9.13574L7.76562 7.34473L9.55664 5.54004C9.67285 5.43066 9.7207 5.30762 9.7207 5.16406C9.7207 4.86328 9.48145 4.62402 9.18066 4.62402C9.03711 4.62402 8.91406 4.67188 8.80469 4.78809L6.99316 6.58594L5.19531 4.79492C5.09277 4.68555 4.96973 4.6377 4.81934 4.6377C4.51855 4.6377 4.27246 4.87012 4.27246 5.1709C4.27246 5.31445 4.33398 5.44434 4.43652 5.54688L6.22754 7.34473L4.43652 9.14258C4.33398 9.23828 4.27246 9.36816 4.27246 9.51855C4.27246 9.81934 4.51855 10.0654 4.81934 10.0654Z" fill="#C4C4C4"/>
</svg>
