<svg width="18" height="18" viewBox="0 0 18 18" fill="none" xmlns="http://www.w3.org/2000/svg">
<path d="M9.14258 17.6543C13.8799 17.6543 17.791 13.7432 17.791 8.99707C17.791 4.25977 13.8711 0.348633 9.13379 0.348633C4.39648 0.348633 0.485352 4.25977 0.485352 8.99707C0.485352 13.7432 4.39648 17.6543 9.14258 17.6543ZM9.14258 15.7998C5.37207 15.7998 2.34863 12.7676 2.34863 8.99707C2.34863 5.22656 5.36328 2.20312 9.13379 2.20312C12.9043 2.20312 15.9277 5.22656 15.9365 8.99707C15.9453 12.7676 12.9043 15.7998 9.14258 15.7998ZM7.14746 10.9307C9.08105 12.8555 11.5068 14.0771 12.9482 12.6357C13.001 12.5742 13.0449 12.5215 13.0977 12.4688C13.4404 12.0469 13.5635 11.4932 13.0713 11.124C12.667 10.8428 12.2539 10.5439 11.6299 10.1133C11.1289 9.76172 10.8301 9.8584 10.4609 10.2188L10.1357 10.5352C10.0391 10.6318 9.88086 10.6143 9.77539 10.5527C9.48535 10.377 9.00195 9.99023 8.54492 9.5332C8.09668 9.08496 7.69238 8.58398 7.53418 8.31152C7.48145 8.22363 7.4375 8.07422 7.54297 7.95996L7.86816 7.62598C8.22852 7.23047 8.31641 6.94922 7.96484 6.45703L6.96289 5.02441C6.62891 4.5498 6.12793 4.62012 5.56543 5.04199C5.52148 5.06836 5.48633 5.10352 5.45117 5.13867C4.00977 6.58008 5.23145 9.01465 7.14746 10.9307Z" fill="#FE5A0E"/>
</svg>
