<svg width="19" height="16" viewBox="0 0 19 16" fill="none" xmlns="http://www.w3.org/2000/svg">
<path d="M2.91309 15.3799H16.334C17.9775 15.3799 18.9443 14.4131 18.9443 12.6025V3.40918C18.9443 1.59863 17.9775 0.640625 16.1494 0.640625H2.72852C1.08496 0.640625 0.118164 1.59863 0.118164 3.40918V12.6025C0.118164 14.4219 1.09375 15.3799 2.91309 15.3799ZM8.62598 8.23438L2.67578 2.36328C2.76367 2.3457 2.85156 2.3457 2.94824 2.3457H16.123C16.2197 2.3457 16.3164 2.3457 16.4043 2.36328L10.4629 8.23438C10.1201 8.57715 9.83887 8.70898 9.54004 8.70898C9.24121 8.70898 8.95996 8.56836 8.62598 8.23438ZM1.79688 3.62012L6.20898 7.96191L1.79688 12.3301V3.62012ZM12.8799 7.96191L17.2656 3.64648V12.3037L12.8799 7.96191ZM2.94824 13.6748C2.83398 13.6748 2.72852 13.666 2.62305 13.6484L7.29004 9.02539L7.70312 9.42969C8.30957 10.0361 8.90723 10.291 9.54004 10.291C10.1816 10.291 10.7793 10.0361 11.3857 9.42969L11.7988 9.02539L16.457 13.6484C16.3516 13.666 16.2373 13.6748 16.123 13.6748H2.94824Z" fill="#FE5A0E"/>
</svg>
