<svg width="62" height="62" viewBox="0 0 62 62" fill="none" xmlns="http://www.w3.org/2000/svg">
<path d="M43.004 47.2066C42.81 47.2471 42.6185 47.2961 42.4301 47.3533C41.2611 45.8009 39.593 44.7478 37.7472 44.3388L38.999 41.9174L41.5457 39.3727C43.4939 37.4234 43.4939 34.2517 41.5457 32.3025L38.8249 29.5802L52.6655 15.7319C52.6774 15.7209 52.6899 15.7109 52.7015 15.6994C52.7133 15.6877 52.7234 15.6749 52.7347 15.6627L58.1146 10.2798C58.1148 10.2796 58.1149 10.2795 58.115 10.2795C58.1151 10.2794 58.1151 10.2793 58.1152 10.2792L60.6391 7.75387C62.4102 5.98663 62.4112 3.10448 60.6403 1.32803C59.7843 0.471539 58.6436 0 57.4276 0C57.4266 0 57.4254 0 57.4244 0C56.209 0.000847656 55.0696 0.472871 54.2172 1.32803L51.6928 3.85381C51.6928 3.85381 51.6928 3.85381 51.6927 3.85381L51.6926 3.85393L46.3114 9.238C46.2996 9.2489 46.2872 9.25883 46.2757 9.27021C46.2639 9.28196 46.2539 9.29455 46.2427 9.30666L43.1912 12.3599C42.7184 12.833 42.7185 13.5997 43.1915 14.0725C43.6645 14.5452 44.4313 14.5451 44.904 14.0721L47.1334 11.8415L50.1315 14.8412L37.1127 27.8672L34.1146 24.8674L37.2197 21.7607C37.6924 21.2876 37.6922 20.5209 37.2192 20.048C36.746 19.5753 35.9793 19.5754 35.5066 20.0485L32.4024 23.1543L29.6826 20.433C28.742 19.492 27.4869 18.9737 26.1484 18.9737C24.81 18.9737 23.555 19.492 22.6138 20.4336L20.0709 22.9813L15.1672 25.5224C15.162 25.5251 15.1568 25.5278 15.1517 25.5304L10.4284 27.9781C10.4076 27.9882 10.3871 27.9987 10.3668 28.0099L2.74573 31.9594C1.10951 32.8065 0.222744 33.8076 0.0344434 35.0201C-0.147682 36.1933 0.385494 37.4141 1.61896 38.6482L4.97289 42.005C4.98536 42.0186 4.99868 42.0309 5.01164 42.0439L12.4769 49.5156L19.9224 56.9627C19.9409 56.9825 19.9601 57.0017 19.98 57.0204L23.3381 60.3793C24.4147 61.4564 25.481 61.9999 26.5145 61.9999C26.6654 61.9999 26.8155 61.9882 26.9648 61.9651C28.1774 61.7769 29.1783 60.8896 30.0249 59.2524L30.5749 58.1892C30.8807 58.4656 31.2089 58.7214 31.5596 58.9524C32.8918 59.8302 34.4172 60.2845 35.9751 60.2845C36.5212 60.2845 37.0717 60.2285 37.6188 60.1155C38.6523 59.9029 39.6294 59.492 40.4928 58.9117C41.9665 59.9792 43.8242 60.39 45.6432 60.0159C47.3536 59.6634 48.8242 58.6658 49.784 57.2067C50.7434 55.7483 51.0779 54.0034 50.7255 52.294C49.9999 48.7653 46.5382 46.4826 43.004 47.2066ZM57.426 2.42187H57.4274C57.9962 2.42187 58.5289 2.64142 58.9262 3.03897C59.7536 3.86907 59.7547 5.21514 58.9273 6.04076L57.2589 7.71004L54.2607 4.7103L55.9312 3.03885C56.3275 2.64142 56.8583 2.42224 57.426 2.42187ZM48.8456 10.1284L52.5487 6.4233L55.5468 9.42303L51.8437 13.1281L48.8456 10.1284ZM30.202 46.6103L12.9832 29.3822L15.4916 28.0824L32.3975 44.9975C31.5683 45.411 30.8291 45.9598 30.202 46.6103ZM20.5653 25.4528L36.5276 41.424L35.0917 44.2016C35.0721 44.2038 35.0525 44.206 35.0328 44.2083L17.7473 26.9132L20.5653 25.4528ZM24.3275 22.1451C24.8106 21.6619 25.4573 21.3957 26.1487 21.3957C26.8399 21.3957 27.4866 21.6619 27.9698 22.1451L39.8328 34.0145C40.8375 35.0197 40.8375 36.6554 39.8334 37.66L38.0105 39.4815L22.5068 23.9693L24.3275 22.1451ZM27.874 58.1399C27.4334 58.9921 26.9667 59.5142 26.5938 59.5719C26.2423 59.627 25.6804 59.2967 25.0512 58.6671L22.2891 55.9043L24.9339 50.7989C25.2416 50.2051 25.0095 49.4743 24.4157 49.1667C23.8217 48.8591 23.0911 49.091 22.7835 49.6849L20.4925 54.1072L15.0481 48.6615L18.8811 44.8152C19.3531 44.3415 19.3518 43.5747 18.8781 43.1027C18.4044 42.6307 17.6376 42.6319 17.1656 43.1057L13.3361 46.9485L7.88883 41.4965L12.3098 39.2036C12.9036 38.8958 13.1352 38.1649 12.8273 37.5711C12.5195 36.9775 11.7883 36.7457 11.1948 37.0537L6.09337 39.6995L3.33255 36.9363C2.70311 36.3066 2.37349 35.7435 2.4281 35.3916C2.48611 35.0182 3.00778 34.5512 3.86004 34.11L10.7276 30.5511L28.7848 48.6182C28.0041 50.1799 27.719 52.0036 28.0967 53.8436C28.2624 54.6463 28.5437 55.4058 28.9269 56.1047L27.874 58.1399ZM47.7612 55.8758C47.1571 56.7942 46.2315 57.4222 45.1553 57.6439C43.7843 57.9264 42.3775 57.4994 41.3926 56.5028C40.9399 56.0448 40.2079 56.0211 39.7266 56.4493C38.999 57.0963 38.1015 57.544 37.1302 57.7438C35.6557 58.0483 34.1508 57.7594 32.8925 56.9304C31.634 56.1012 30.7731 54.8311 30.4686 53.3556C29.8424 50.305 31.8111 47.314 34.8573 46.6881C34.8574 46.6881 34.8575 46.6881 34.8577 46.6879C35.2411 46.609 35.6247 46.5707 36.0044 46.5707C38.0067 46.5707 39.8865 47.6374 40.9047 49.4351C41.2216 49.9945 41.9205 50.2087 42.4965 49.9231C42.8109 49.7671 43.1484 49.6507 43.4949 49.5783C45.7168 49.1235 47.8966 50.5605 48.354 52.7829C48.5758 53.8591 48.3654 54.9577 47.7612 55.8758Z" fill="white"/>
<path d="M57.7907 51.0938C55.4678 51.0938 53.578 52.9828 53.578 55.3047C53.578 57.6285 55.4678 59.519 57.7907 59.519C60.1117 59.519 62 57.6285 62 55.3047C62 52.9828 60.1117 51.0938 57.7907 51.0938ZM57.7907 57.0971C56.8032 57.0971 55.9999 56.293 55.9999 55.3047C55.9999 54.3182 56.8032 53.5156 57.7907 53.5156C58.7763 53.5156 59.5781 54.3181 59.5781 55.3047C59.5781 56.293 58.7762 57.0971 57.7907 57.0971Z" fill="white"/>
<path d="M57.4921 38.2145C57.4921 35.3002 55.1222 32.9292 52.209 32.9292C49.2978 32.9292 46.9294 35.3002 46.9294 38.2145C46.9294 41.1287 49.2979 43.4997 52.209 43.4997C55.1222 43.4997 57.4921 41.1287 57.4921 38.2145ZM52.209 41.0779C50.6332 41.0779 49.3513 39.7934 49.3513 38.2145C49.3513 36.6355 50.6332 35.3511 52.209 35.3511C53.7866 35.3511 55.0702 36.6355 55.0702 38.2145C55.0702 39.7934 53.7867 41.0779 52.209 41.0779Z" fill="white"/>
<path d="M40.2028 18.2724C40.5137 18.2724 40.8248 18.1538 41.0616 17.9169C41.5345 17.444 41.5345 16.6773 41.0616 16.2043C40.5888 15.7314 39.822 15.7314 39.349 16.2043L39.3456 16.2077C38.8728 16.6805 38.8745 17.4456 39.3473 17.9185C39.5835 18.1546 39.893 18.2724 40.2028 18.2724Z" fill="white"/>
</svg>
