<svg width="7" height="13" viewBox="0 0 7 13" fill="none" xmlns="http://www.w3.org/2000/svg">
<path d="M0.261719 6.33105C0.261719 6.58398 0.357422 6.7959 0.5625 6.99414L5.55273 11.875C5.70996 12.0391 5.9082 12.1211 6.14062 12.1211C6.6123 12.1211 6.98828 11.7451 6.98828 11.2734C6.98828 11.041 6.89258 10.8291 6.72852 10.665L2.27832 6.33105L6.72852 1.99707C6.89258 1.83301 6.98828 1.61426 6.98828 1.38867C6.98828 0.916992 6.6123 0.541016 6.14062 0.541016C5.9082 0.541016 5.70996 0.623047 5.55273 0.787109L0.5625 5.66113C0.357422 5.86621 0.268555 6.07129 0.261719 6.33105Z" fill="#1B1A1A"/>
</svg>
