<svg width="7" height="13" viewBox="0 0 7 13" fill="none" xmlns="http://www.w3.org/2000/svg">
<path d="M6.73145 6.33105C6.72461 6.07129 6.63574 5.86621 6.43066 5.66113L1.44043 0.787109C1.2832 0.623047 1.08496 0.541016 0.852539 0.541016C0.380859 0.541016 0.00488281 0.916992 0.00488281 1.38867C0.00488281 1.61426 0.100586 1.83301 0.264648 1.99707L4.71484 6.33105L0.264648 10.665C0.100586 10.8291 0.00488281 11.041 0.00488281 11.2734C0.00488281 11.7451 0.380859 12.1211 0.852539 12.1211C1.08496 12.1211 1.2832 12.0391 1.44043 11.875L6.43066 6.99414C6.63574 6.7959 6.73145 6.58398 6.73145 6.33105Z" fill="#1B1A1A"/>
</svg>
