<svg width="82" height="83" viewBox="0 0 82 83" fill="none" xmlns="http://www.w3.org/2000/svg">
<path fill-rule="evenodd" clip-rule="evenodd" d="M51.7053 11.1934C52.9857 11.1934 54.2374 11.5731 55.302 12.2844C56.3667 12.9958 57.1964 14.0069 57.6864 15.1899C58.1764 16.3728 58.3046 17.6745 58.0548 18.9303C57.805 20.1861 57.1885 21.3397 56.2831 22.2451C55.3777 23.1505 54.2241 23.767 52.9683 24.0168C51.7125 24.2666 50.4108 24.1384 49.2279 23.6484C48.0449 23.1584 47.0338 22.3287 46.3225 21.264C45.6111 20.1994 45.2314 18.9477 45.2314 17.6673C45.2311 16.8171 45.3984 15.9751 45.7236 15.1895C46.0488 14.4039 46.5257 13.6901 47.1269 13.0889C47.7281 12.4877 48.4419 12.0108 49.2275 11.6856C50.0131 11.3603 50.8551 11.1931 51.7053 11.1934ZM23.5716 12.8017C24.2364 12.8027 24.8866 12.9957 25.4444 13.3573C26.0021 13.7189 26.4436 14.2339 26.7157 14.8404C27.5945 14.5455 28.5263 14.4428 29.4481 14.5392C30.37 14.6356 31.2604 14.9288 32.0591 15.399C32.8579 15.8691 33.5464 16.5054 34.078 17.2646C34.6097 18.0239 34.9721 18.8884 35.1408 19.7998C35.3095 20.7112 35.2805 21.6482 35.0558 22.5474C34.8311 23.4467 34.416 24.2872 33.8384 25.0121C33.2608 25.737 32.5343 26.3295 31.708 26.7494C30.8818 27.1693 29.9749 27.4069 29.0489 27.4461C31.9007 32.7195 32.7819 43.4384 41.7339 44.9448C54.3194 43.187 50.8536 24.771 57.69 23.3099C66.4653 23.1876 78.3394 41.8618 78.575 49.8285C78.9012 60.8713 73.2699 68.4937 64.4765 74.6482C56.9531 79.9028 47.8843 82.4815 38.7218 81.9715C29.5593 81.4616 20.8327 77.8926 13.9388 71.8357C7.04489 65.7788 2.38227 57.5842 0.697199 48.5635C-0.987869 39.5428 0.402047 30.2176 4.64448 22.0804C8.88692 13.9433 15.7366 7.46457 24.0972 3.68132C32.4577 -0.101918 41.8458 -0.970973 50.7588 1.21326C59.6718 3.39748 67.5943 8.50871 73.2584 15.7288C78.9224 22.949 82.0005 31.8606 82 41.0373C82 42.4349 81.9275 43.8167 81.7916 45.1803L75.218 33.834C73.6592 26.415 69.7308 19.7038 64.0251 14.7122C58.3194 9.72054 51.1455 6.71909 43.5852 6.16029C36.0248 5.6015 28.4876 7.51565 22.11 11.6142C15.7324 15.7127 10.86 21.7734 8.22746 28.8826C5.59487 35.9919 5.34477 43.7643 7.51485 51.028C9.68494 58.2918 14.1576 64.6532 20.2585 69.1533C26.3594 73.6534 33.7579 76.0481 41.3386 75.9765C48.9192 75.9049 56.2712 73.3709 62.286 68.7564C74.8533 59.0954 76.9532 40.6024 61.4796 37.0438C55.3976 44.5325 48.7946 48.6529 41.3693 47.2802C35.0743 47.9914 29.4475 44.3196 24.2353 37.9045C18.6267 40.0633 14.3387 45.5677 10.1934 51.4572C13.1382 39.1391 18.5225 27.6274 23.7846 25.1085C23.1487 24.3412 22.6981 23.4378 22.4675 22.4684C22.2369 21.4989 22.2326 20.4894 22.4549 19.518C21.6804 19.2548 21.0246 18.7249 20.6046 18.023C20.1846 17.321 20.0276 16.4926 20.1618 15.6857C20.296 14.8788 20.7125 14.1458 21.3371 13.6175C21.9617 13.0892 22.7536 12.8001 23.5716 12.8017Z" fill="url(#paint0_linear)"/>
<defs>
<linearGradient id="paint0_linear" x1="23.5195" y1="78.1162" x2="58.1747" y2="3.79528" gradientUnits="userSpaceOnUse">
<stop stop-color="#FF6600"/>
<stop offset="1" stop-color="#FACB00"/>
</linearGradient>
</defs>
</svg>
