<svg width="62" height="62" viewBox="0 0 62 62" fill="none" xmlns="http://www.w3.org/2000/svg">
<path d="M61.331 3.62095C61.3156 3.01463 61.224 2.34437 60.6612 1.9702C60.0179 1.54298 59.2762 1.83191 58.5589 2.11212C56.8362 2.78419 55.0926 3.22097 53.0717 3.48689C52.5745 3.55228 52.2243 4.00845 52.2898 4.50578C52.3552 5.00299 52.8113 5.35343 53.3087 5.28768C55.4784 5.00238 57.3566 4.53096 59.2194 3.80428C59.2857 3.77837 59.3983 3.73441 59.5159 3.69142C59.5518 5.19613 59.1554 6.36081 58.3045 7.25134C56.9314 8.68823 54.3007 9.45306 50.485 9.52439C49.9835 9.53383 49.5845 9.94797 49.594 10.4495C49.6033 10.9453 50.008 11.3407 50.5017 11.3407C50.5075 11.3407 50.5133 11.3407 50.5191 11.3406C52.6563 11.3006 54.4584 11.0585 55.9473 10.6096C55.9728 11.8412 55.6693 12.8224 55.0261 13.5867C54.5926 14.1021 53.992 14.5288 53.2293 14.8666C53.2222 14.8698 53.2148 14.8727 53.2078 14.8762C51.8834 15.4575 50.0724 15.772 47.7905 15.8138C47.289 15.823 46.89 16.237 46.8992 16.7385C46.9082 17.2344 47.3131 17.63 47.8069 17.63C47.8126 17.63 47.8183 17.63 47.824 17.6299C49.7632 17.5944 51.4039 17.3761 52.7634 16.971C52.699 17.8415 52.3894 18.6396 51.8354 19.3533C50.6235 20.9148 48.445 21.8018 46.742 22.0179C46.5358 21.6364 46.3031 21.2613 46.0446 20.8959C44.8802 19.2453 43.0888 17.8341 41.2514 17.1204C39.2433 16.3439 37.5747 16.4956 36.6724 17.537C35.8343 18.5086 35.8721 20.136 36.2342 21.4987C35.4737 21.3775 34.7008 21.2384 33.9203 21.0833V14.015C36.7412 13.5184 39.1775 11.9836 40.8434 9.63325L40.8803 9.5813C43.1734 6.3975 45.7436 5.95418 49.1243 5.67554C49.6241 5.63437 49.9959 5.19565 49.9547 4.69577C49.9134 4.1959 49.4762 3.82317 48.975 3.86531C45.3592 4.16332 42.1434 4.71927 39.4065 8.51967L39.3613 8.58288C38.0398 10.4475 36.1331 11.6947 33.9202 12.1645V9.703C35.3486 8.75411 36.2928 7.13073 36.2928 5.29022C36.2926 2.3732 33.9194 0 31.0025 0C28.0837 0 25.709 2.3732 25.709 5.29022C25.709 7.13 26.6529 8.7529 28.0814 9.70191V12.1646C25.8772 11.6954 23.972 10.4501 22.6446 8.58857L22.5958 8.5204C19.6069 4.36943 16.1304 4.1029 12.105 3.79423C9.56873 3.59975 6.69396 3.37924 3.44622 2.11224C2.72826 1.83203 1.98583 1.54225 1.34125 1.97056C0.777559 2.34522 0.685891 3.01499 0.670512 3.61949C0.61711 5.61633 1.1934 7.26042 2.38375 8.50611C2.90385 9.05043 3.5345 9.51421 4.27826 9.90026C4.10062 11.8784 4.53873 13.5109 5.58825 14.7577C6.07578 15.3368 6.68488 15.8266 7.42028 16.229C7.3291 17.7969 7.78344 19.2618 8.75159 20.4996C10.2517 22.4178 12.6422 23.41 14.5205 23.7461C14.0406 25.2454 13.9649 26.7606 14.339 28.097C14.9345 30.2249 16.555 31.8754 19.1548 33.0023L23.8741 35.0506C22.4207 35.8222 21.1976 36.6627 20.2267 37.5612C19.8586 37.9019 19.8361 38.4766 20.1769 38.8447C20.356 39.0382 20.5994 39.136 20.8438 39.136C21.0644 39.136 21.2856 39.0561 21.4604 38.8945C22.5935 37.8459 24.1396 36.8729 26.0594 35.999L28.719 37.1533L26.6936 38.0328C23.571 39.3865 22.1017 40.8282 22.2016 42.4403C22.2991 44.0142 23.9147 45.3049 26.8736 46.1728L28.7152 46.7137C28.7192 46.7149 28.7235 46.7162 28.7275 46.7174L37.8066 49.384C40.7534 50.248 42.5534 52.0175 42.7448 54.2389C42.8937 55.9688 41.9967 57.6219 40.5122 58.3522C39.0317 59.0807 38.0757 59.0701 37.8203 58.9746C37.8288 58.8497 37.9049 58.4674 38.4423 57.7195C39.6165 56.0912 39.9881 54.7164 39.5783 53.5168C39.1884 52.3751 38.1153 51.537 36.389 51.0259L25.3548 47.7538C25.1309 47.6873 24.6356 47.5218 24.6018 47.5123C21.0513 46.2863 19.1466 44.3032 19.4743 42.1237C19.5488 41.6275 19.2072 41.1651 18.7112 41.0905C18.2128 41.0168 17.7526 41.3578 17.678 41.8536C17.2906 44.431 18.8313 46.7346 21.8874 48.3252C19.2796 49.5751 17.6572 51.6398 17.4466 54.0829C17.2336 56.553 18.5358 58.9237 20.687 59.982C21.6788 60.47 22.8277 60.8385 23.8132 60.8385C24.5381 60.8383 25.1751 60.6391 25.5963 60.1414C26.0749 59.5762 26.3657 58.5131 25.032 56.657C24.2388 55.557 23.9394 54.6982 24.1421 54.1048C24.3773 53.4163 25.3537 52.9974 26.1318 52.7672L28.0813 52.1892V59.0787C28.0813 60.6894 29.3917 61.9998 31.0023 61.9998C32.6111 61.9998 33.9198 60.6894 33.9198 59.0787V52.1881L35.873 52.7673C36.6495 52.9972 37.6246 53.4157 37.8594 54.1037C38.0622 54.6974 37.7626 55.5565 36.9683 56.6583C35.6356 58.5131 35.9264 59.5763 36.4049 60.1416C36.8262 60.6393 37.4628 60.8386 38.1879 60.8386C39.1736 60.8386 40.3223 60.4701 41.3142 59.9821C43.4653 58.924 44.7675 56.5533 44.5547 54.083C44.3436 51.6343 42.7139 49.5654 40.0955 48.3165C42.6855 46.9386 44.1773 44.9978 44.2671 42.8001C44.3821 39.9843 42.2075 37.2138 38.2281 35.008L42.8497 33.0024C45.4482 31.8754 47.0675 30.2252 47.6628 28.0977C48.0371 26.7597 47.9608 25.2425 47.4797 23.7419C49.3727 23.3939 51.7792 22.3881 53.2702 20.4673C54.2238 19.2385 54.6708 17.7852 54.5809 16.2298C55.3177 15.827 55.9278 15.3363 56.4159 14.7561C57.4648 13.5092 57.9021 11.8772 57.7235 9.90014C58.4671 9.51421 59.0977 9.05043 59.6176 8.50623C60.808 7.26054 61.3844 5.61645 61.331 3.62095ZM25.6162 51.0259C23.8878 51.5373 22.8136 52.3756 22.4234 53.5177C22.0137 54.7173 22.3852 56.0918 23.5581 57.7182C24.0962 58.4674 24.1724 58.8499 24.1811 58.9747C23.9259 59.0701 22.9697 59.0807 21.4891 58.3523C20.0047 57.622 19.1075 55.9689 19.2566 54.239C19.448 52.0176 21.248 50.2481 24.1989 49.3828L24.3414 49.3402C24.5047 49.3933 27.8081 50.3758 27.8081 50.3758L25.6162 51.0259ZM32.1036 59.079C32.1036 59.6881 31.6096 60.1836 31.0025 60.1836C30.3934 60.1836 29.8978 59.6881 29.8978 59.079V51.651L31.0028 51.3234L32.1036 51.6499V59.079ZM37.1137 23.4671C37.581 24.1135 38.3526 24.83 39.6082 25.2536C40.886 25.6847 41.2373 26.1095 41.2446 26.2741C41.2616 26.6642 40.3221 27.6358 38.1797 28.5746L33.92 30.4419V22.9365C35.0042 23.1459 36.0729 23.3227 37.1137 23.4671ZM31.0025 1.81641C32.9178 1.81641 34.4762 3.37476 34.4762 5.29022C34.4762 7.2075 32.9179 8.76743 31.0025 8.76743C29.0852 8.76743 27.5254 7.2075 27.5254 5.29022C27.5254 3.37476 29.0852 1.81641 31.0025 1.81641ZM31.0025 10.5837C31.38 10.5837 31.7481 10.5431 32.1036 10.4676V13.224V13.2276V21.8201V21.8262V31.2382L31.0003 31.7218L29.8978 31.2386V21.8247C29.8978 21.8229 29.8978 21.8211 29.8978 21.8193V13.2276C29.8978 13.2263 29.8978 13.2253 29.8978 13.224V10.467C30.2543 10.5429 30.6237 10.5837 31.0025 10.5837ZM24.8877 23.4669C25.9402 23.321 27.0091 23.1448 28.0814 22.9373V30.4422L23.822 28.5749C21.681 27.6357 20.7422 26.6638 20.7594 26.2736C20.7666 26.1093 21.1174 25.6846 22.3923 25.254C23.6472 24.832 24.4191 24.1155 24.8877 23.4669ZM10.1826 19.3807C9.61801 18.6588 9.30305 17.8515 9.23838 16.9709C10.5979 17.3762 12.2387 17.5946 14.178 17.6302C14.1837 17.6303 14.1894 17.6303 14.1951 17.6303C14.6889 17.6303 15.0938 17.2344 15.1028 16.7388C15.1119 16.2372 14.7129 15.8232 14.2115 15.814C10.5995 15.7479 8.16586 14.999 6.97829 13.5882C6.3348 12.8236 6.03061 11.8421 6.05543 10.61C7.54404 11.0588 9.34604 11.3006 11.4827 11.3407C11.4885 11.3408 11.4944 11.3408 11.5002 11.3408C11.9939 11.3408 12.3986 10.9452 12.4079 10.4497C12.4172 9.94809 12.0182 9.53395 11.5169 9.52451C7.70122 9.45318 5.07046 8.68848 3.69737 7.25146C2.84645 6.36093 2.45011 5.19613 2.48607 3.69033C2.60486 3.73356 2.71918 3.77825 2.78626 3.8044C6.28551 5.16973 9.30341 5.40114 11.966 5.60531C15.8325 5.90175 18.6261 6.11596 21.1243 9.58554L21.1656 9.64318C22.8378 11.9882 25.2716 13.5195 28.0814 14.0153V21.0842C27.3074 21.2385 26.5348 21.3774 25.7679 21.4993C26.1299 20.1375 26.168 18.5095 25.3296 17.5378C24.4302 16.4944 22.762 16.3426 20.753 17.121C18.9149 17.8336 17.1221 19.2449 15.9572 20.8963C15.6983 21.2621 15.4654 21.6379 15.259 22.0198C13.5734 21.8186 11.4055 20.9445 10.1826 19.3807ZM32.1036 38.6224V45.1686L31.0017 45.4924L29.8978 45.1682V38.622L30.9999 38.1434L32.1036 38.6224ZM34.5851 39.6995C37.1446 40.8091 38.0204 41.7851 37.9868 42.3283C37.9518 42.8927 36.896 43.7616 34.6158 44.4304L33.92 44.6348V39.4107L34.5851 39.6995ZM24.0146 42.3283C23.9811 41.785 24.8569 40.8091 27.4167 39.6994L28.0814 39.4107V44.6347L27.3854 44.4303C25.1054 43.7615 24.0496 42.8926 24.0146 42.3283ZM42.4522 42.7262C42.3743 44.6329 40.6165 46.3388 37.6154 47.4329L34.2258 46.4381L35.1275 46.1732C38.0867 45.3052 39.7022 44.0144 39.7998 42.4406C39.8996 40.8284 38.4302 39.3866 35.3081 38.0331L19.8777 31.3359C17.8042 30.4372 16.5292 29.1827 16.0883 27.6076C15.617 25.9235 16.1226 23.8064 17.4407 21.9444C17.441 21.944 17.4413 21.9435 17.4416 21.9432C18.4085 20.5725 19.8917 19.4029 21.4095 18.8145C22.5673 18.3659 23.6136 18.3285 23.9542 18.7239C24.3919 19.2313 24.2035 21.0109 23.5959 22.1206C23.3442 22.5757 22.8307 23.1901 21.8124 23.5325C19.9597 24.158 18.9948 25.0534 18.9448 26.1937C18.8656 27.9977 21.1566 29.3888 23.0925 30.2381L35.3558 35.6145C39.8998 37.6058 42.5527 40.2643 42.4522 42.7262ZM45.9136 27.6084C45.4729 29.1833 44.199 30.4374 42.1269 31.3362L36.093 33.9547C36.0903 33.9535 36.0877 33.9523 36.085 33.9511L33.2622 32.7135L38.9087 30.2382C40.8457 29.3895 43.1382 27.9989 43.059 26.1944C43.009 25.0537 42.0433 24.1582 40.1886 23.5325C39.1702 23.189 38.6569 22.5751 38.4075 22.1241C37.7981 21.0109 37.6096 19.2313 38.0461 18.7253C38.394 18.3239 39.4187 18.3597 40.5947 18.8143C42.1109 19.4032 43.5933 20.573 44.5608 21.9445C45.8791 23.8068 46.3848 25.9241 45.9136 27.6084Z" fill="white"/>
</svg>
