<svg width="10" height="6" viewBox="0 0 10 6" fill="none" xmlns="http://www.w3.org/2000/svg">
<path d="M4.84375 5.66211C5.04785 5.66211 5.21973 5.58154 5.37549 5.42578L9.20508 1.50488C9.32861 1.37598 9.39307 1.22559 9.39307 1.04297C9.39307 0.666992 9.09766 0.371582 8.73242 0.371582C8.55518 0.371582 8.3833 0.446777 8.24902 0.581055L4.84912 4.07764L1.43848 0.581055C1.30957 0.452148 1.14307 0.371582 0.955078 0.371582C0.589844 0.371582 0.294434 0.666992 0.294434 1.04297C0.294434 1.22021 0.364258 1.37598 0.487793 1.50488L4.31738 5.42578C4.47852 5.58691 4.64502 5.66211 4.84375 5.66211Z" fill="#FE5A0E"/>
</svg>
