<svg width="38" height="48" viewBox="0 0 38 48" fill="none" xmlns="http://www.w3.org/2000/svg">
<path d="M26.7013 0H1.82529C1.13272 0 0.571289 0.561429 0.571289 1.65086V47.1429C0.571289 47.4386 1.13272 48 1.82529 48H36.1744C36.867 48 37.4284 47.4386 37.4284 47.1429V11.124C37.4284 10.5274 37.3487 10.3354 37.2082 10.194L27.2344 0.220286C27.093 0.0797143 26.901 0 26.7013 0Z" fill="#E9E9E0"/>
<path d="M27.1426 0.129395V10.2857H37.2989L27.1426 0.129395Z" fill="#D9D7CA"/>
<path d="M11.7261 28.5634C11.4278 28.5634 11.1415 28.4666 10.8972 28.284C10.0049 27.6146 9.88492 26.8697 9.94149 26.3623C10.0975 24.9669 11.8229 23.5063 15.0715 22.0183C16.3606 19.1931 17.5872 15.7123 18.3183 12.804C17.4629 10.9423 16.6315 8.52686 17.2375 7.11C17.4501 6.61371 17.7149 6.23314 18.2095 6.06857C18.4049 6.00343 18.8986 5.92114 19.0803 5.92114C19.5123 5.92114 19.8921 6.47743 20.1612 6.82029C20.4141 7.14257 20.9875 7.82571 19.8415 12.6506C20.9969 15.0369 22.6341 17.4677 24.2026 19.1323C25.3263 18.9291 26.2932 18.8254 27.0809 18.8254C28.4232 18.8254 29.2366 19.1383 29.5683 19.7829C29.8426 20.316 29.7303 20.9391 29.2341 21.6343C28.7566 22.302 28.0983 22.6551 27.3312 22.6551C26.2889 22.6551 25.0752 21.9969 23.7218 20.6966C21.2901 21.2049 18.4503 22.1117 16.1549 23.1154C15.4383 24.636 14.7518 25.8609 14.1123 26.7591C13.2338 27.9891 12.4761 28.5634 11.7261 28.5634ZM14.0078 24.1697C12.1761 25.1991 11.4295 26.0451 11.3755 26.5217C11.3669 26.6006 11.3438 26.808 11.7449 27.1149C11.8726 27.0746 12.6183 26.7343 14.0078 24.1697ZM25.6966 20.3623C26.3952 20.8997 26.5658 21.1714 27.0226 21.1714C27.2232 21.1714 27.7949 21.1629 28.0598 20.7934C28.1875 20.6143 28.2372 20.4994 28.2569 20.4377C28.1515 20.382 28.0118 20.2689 27.2498 20.2689C26.8169 20.2697 26.2726 20.2886 25.6966 20.3623ZM19.2938 14.7206C18.6809 16.8411 17.8718 19.1306 17.0018 21.204C18.7932 20.5089 20.7406 19.902 22.5698 19.4726C21.4126 18.1286 20.2563 16.4503 19.2938 14.7206ZM18.7735 7.46743C18.6895 7.49571 17.6335 8.97343 18.8558 10.224C19.6692 8.41114 18.8103 7.45543 18.7735 7.46743Z" fill="#FE5A0E"/>
<path d="M36.1744 47.9999H1.82529C1.13272 47.9999 0.571289 47.4385 0.571289 46.7459V33.4285H37.4284V46.7459C37.4284 47.4385 36.867 47.9999 36.1744 47.9999Z" fill="#FE5A0E"/>
<path d="M9.9012 45.4286H8.49463V36.792H10.9786C11.3455 36.792 11.7089 36.8503 12.0681 36.9677C12.4272 37.0851 12.7495 37.2608 13.0349 37.4948C13.3203 37.7288 13.5509 38.0126 13.7266 38.3443C13.9023 38.676 13.9906 39.0489 13.9906 39.4637C13.9906 39.9017 13.9161 40.2977 13.7678 40.6534C13.6195 41.0091 13.4121 41.3083 13.1463 41.55C12.8806 41.7917 12.5601 41.9794 12.1855 42.1123C11.8109 42.2451 11.3961 42.3111 10.9435 42.3111H9.90034V45.4286H9.9012ZM9.9012 37.8583V41.28H11.1903C11.3618 41.28 11.5315 41.2508 11.7003 41.1917C11.8683 41.1334 12.0226 41.0374 12.1632 40.9046C12.3038 40.7717 12.4169 40.5866 12.5026 40.3483C12.5883 40.11 12.6312 39.8151 12.6312 39.4637C12.6312 39.3231 12.6115 39.1603 12.5729 38.9777C12.5335 38.7943 12.4538 38.6186 12.3329 38.4506C12.2112 38.2826 12.0415 38.142 11.8229 38.0289C11.6043 37.9157 11.3146 37.8591 10.9555 37.8591H9.9012V37.8583Z" fill="white"/>
<path d="M22.6159 40.8703C22.6159 41.5808 22.5396 42.1886 22.3871 42.6926C22.2345 43.1966 22.0416 43.6183 21.8068 43.9586C21.5719 44.2989 21.3088 44.5663 21.0156 44.7617C20.7225 44.9571 20.4396 45.1029 20.1662 45.2014C19.8928 45.2991 19.6425 45.3617 19.4162 45.3891C19.1899 45.4149 19.0219 45.4286 18.9122 45.4286H15.6431V36.792H18.2445C18.9714 36.792 19.6099 36.9077 20.1602 37.1374C20.7105 37.3671 21.1682 37.6749 21.5316 38.0571C21.8951 38.4394 22.1659 38.8757 22.3459 39.3634C22.5259 39.852 22.6159 40.3543 22.6159 40.8703ZM18.4442 44.3974C19.3974 44.3974 20.0848 44.0931 20.5065 43.4837C20.9282 42.8743 21.1391 41.9914 21.1391 40.8351C21.1391 40.476 21.0962 40.1203 21.0105 39.7688C20.9239 39.4174 20.7585 39.0994 20.5125 38.814C20.2665 38.5286 19.9322 38.298 19.5105 38.1223C19.0888 37.9466 18.5419 37.8583 17.8699 37.8583H17.0496V44.3974H18.4442Z" fill="white"/>
<path d="M26.085 37.8583V40.5771H29.6944V41.538H26.085V45.4286H24.6553V36.792H30.057V37.8583H26.085Z" fill="white"/>
</svg>
