<svg width="21" height="21" viewBox="0 0 21 21" fill="none" xmlns="http://www.w3.org/2000/svg">
<path d="M5.72422 15.0352C8.94687 18.2695 12.8727 20.7656 16.0719 20.7656C17.5133 20.7656 18.7789 20.2617 19.7867 19.1367C20.3727 18.4805 20.7359 17.7188 20.7359 16.9688C20.7359 16.3945 20.525 15.8438 19.9859 15.4688L16.5758 13.0547C16.0602 12.6797 15.6148 12.5039 15.2164 12.5039C14.7125 12.5039 14.2555 12.7969 13.7516 13.3008L12.9547 14.0859C12.8258 14.2148 12.6734 14.25 12.5328 14.25C12.357 14.25 12.193 14.1914 12.0758 14.1328C11.3961 13.7695 10.2125 12.75 9.11094 11.6602C8.02109 10.5586 7.00156 9.38672 6.63828 8.69531C6.57969 8.57812 6.52109 8.41406 6.52109 8.25C6.52109 8.10938 6.55625 7.95703 6.68515 7.82812L7.47031 7.01953C7.97422 6.51562 8.26719 6.05859 8.26719 5.54297C8.26719 5.14453 8.07969 4.71094 7.7164 4.18359L5.32578 0.820312C4.92734 0.28125 4.36484 0.0351562 3.75547 0.0351562C3.01719 0.0351562 2.26719 0.375 1.61094 0.996094C0.521092 2.03906 0.0523424 3.31641 0.0523424 4.73438C0.0523424 7.94531 2.50156 11.8242 5.72422 15.0352Z" fill="grey"/>
</svg>
