<svg width="62" height="62" viewBox="0 0 62 62" fill="none" xmlns="http://www.w3.org/2000/svg">
<path d="M21.0091 22.3954C21.0251 22.2196 21.0332 22.0447 21.0332 21.8755C21.0332 18.7988 18.5301 16.2957 15.4534 16.2957C14.8044 16.2957 14.166 16.4076 13.5644 16.6237C12.4363 14.9546 10.5431 13.9243 8.47873 13.9243C5.09433 13.9243 2.341 16.6776 2.341 20.0621C2.341 21.02 2.55638 21.9382 2.981 22.7913C3.16974 23.1703 3.55655 23.4099 3.98006 23.4099H19.8977C20.4748 23.4099 20.9566 22.9701 21.0091 22.3954ZM4.7343 21.1781C4.62703 20.8191 4.57291 20.4457 4.57291 20.0621C4.57291 17.9084 6.32509 16.1562 8.47873 16.1562C10.0429 16.1562 11.4527 17.0858 12.0707 18.5245C12.1992 18.8238 12.4519 19.0518 12.7627 19.1492C13.0735 19.2467 13.4112 19.2032 13.6873 19.0306C14.214 18.7017 14.8247 18.5278 15.4536 18.5278C17.0605 18.5278 18.4067 19.6657 18.7283 21.1781H4.7343Z" fill="white"/>
<path d="M15.9626 9.48558H31.8803C32.4573 9.48558 32.9391 9.04576 32.9916 8.47104C33.0076 8.29528 33.0157 8.12036 33.0157 7.95115C33.0157 4.87447 30.5127 2.3714 27.436 2.3714C26.7869 2.3714 26.1484 2.48327 25.5469 2.69935C24.4189 1.0303 22.5258 0 20.4613 0C17.0769 0 14.3235 2.75333 14.3235 6.13773C14.3235 7.09577 14.5389 8.01406 14.9637 8.86707C15.1523 9.24607 15.5392 9.48558 15.9626 9.48558ZM20.4613 2.2319C22.0254 2.2319 23.4353 3.16149 24.0531 4.60023C24.1816 4.89944 24.4343 5.12752 24.745 5.22488C25.0557 5.32225 25.3935 5.27901 25.6696 5.10631C26.1963 4.77739 26.807 4.60344 27.4358 4.60344C29.0428 4.60344 30.3889 5.74143 30.7106 7.25382H16.7168C16.6096 6.8949 16.5554 6.52162 16.5554 6.13787C16.5554 3.98394 18.3075 2.2319 20.4613 2.2319Z" fill="white"/>
<path d="M54.0793 37.803C53.4302 37.803 52.7919 37.9149 52.1902 38.131C51.0622 36.4619 49.1691 35.4316 47.1046 35.4316C43.7202 35.4316 40.9669 38.185 40.9669 41.5694C40.9669 42.5274 41.1822 43.4457 41.607 44.2987C41.7957 44.6777 42.1825 44.9172 42.6059 44.9172H58.5235C59.1006 44.9172 59.5824 44.4774 59.6349 43.9027C59.6509 43.7269 59.659 43.552 59.659 43.3828C59.659 40.3061 57.1559 37.803 54.0793 37.803ZM43.3601 42.6854C43.2529 42.3264 43.1988 41.9531 43.1988 41.5694C43.1988 39.4156 44.9508 37.6635 47.1046 37.6635C48.6687 37.6635 50.0786 38.5931 50.6964 40.0319C50.8249 40.3311 51.0776 40.5591 51.3884 40.6565C51.6991 40.7539 52.0368 40.7106 52.313 40.5379C52.8397 40.209 53.4504 40.0351 54.0793 40.0351C55.6862 40.0351 57.0324 41.1731 57.354 42.6854H43.3601Z" fill="white"/>
<path d="M56.6256 25.3027V6.37083C56.6256 5.75455 56.1259 5.25488 55.5096 5.25488H36.5779C36.0589 5.25488 35.6084 5.61268 35.491 6.11821L29.761 30.7799C29.7599 30.7845 29.7597 30.7891 29.7588 30.7938C29.7497 30.8349 29.7424 30.8764 29.7381 30.9185C29.738 30.9197 29.7377 30.9206 29.7377 30.9218C29.7341 30.9584 29.7321 30.9954 29.7321 31.0325V36.8571C29.7321 38.1835 28.653 39.2626 27.3266 39.2626H22.3731C19.8159 39.2626 17.7357 41.3431 17.7357 43.9001V43.9713C17.7357 46.5283 19.8161 48.6087 22.3731 48.6087H26.4896C27.816 48.6087 28.8952 49.6879 28.8952 51.0143V51.5039C28.8952 52.8304 27.816 53.9095 26.4896 53.9095H20.2807C17.7235 53.9095 15.6432 55.9899 15.6432 58.547V60.8842C15.6432 61.5005 16.1429 62.0002 16.7592 62.0002C17.3755 62.0002 17.8752 61.5005 17.8752 60.8842V58.547C17.8752 57.2205 18.9543 56.1414 20.2807 56.1414H26.4896C29.0467 56.1414 31.1271 54.061 31.1271 51.5039V51.0143C31.1271 48.4572 29.0467 46.3768 26.4896 46.3768H22.3731C21.0467 46.3768 19.9676 45.2977 19.9676 43.9713V43.9001C19.9676 42.5737 21.0467 41.4946 22.3731 41.4946H27.3266C29.8836 41.4946 31.964 39.4141 31.964 36.8571V31.9189L55.7622 26.3896C56.2678 26.2721 56.6256 25.8217 56.6256 25.3027ZM52.8156 7.48678L46.0438 14.2585L39.2721 7.48678H52.8156ZM37.21 8.58125L44.4655 15.8367L32.8179 27.4842L37.21 8.58125ZM34.3962 29.0623L46.0437 17.4148L53.2993 24.6705L34.3962 29.0623ZM54.3937 22.6085L47.6219 15.8367L54.3937 9.06516V22.6085Z" fill="white"/>
</svg>
