<svg width="19" height="20" viewBox="0 0 19 20" fill="none" xmlns="http://www.w3.org/2000/svg">
<path d="M2.39185 19.875C2.87231 19.875 3.29419 19.7109 3.84497 19.4062L16.9934 11.7773C17.9661 11.2148 18.3997 10.7461 18.3997 10.0078C18.3997 9.26953 17.9661 8.80078 16.9934 8.23828L3.84497 0.621094C3.29419 0.304688 2.87231 0.140625 2.39185 0.140625C1.44263 0.140625 0.739502 0.855469 0.739502 2.02734V17.9883C0.739502 19.1602 1.44263 19.875 2.39185 19.875ZM3.32935 16.8398C3.27075 16.8398 3.2356 16.793 3.2356 16.7109V3.29297C3.2356 3.21094 3.27075 3.17578 3.32935 3.17578C3.37622 3.17578 3.41138 3.1875 3.46997 3.22266L15.0012 9.89062C15.0598 9.92578 15.095 9.94922 15.095 10.0078C15.095 10.0664 15.0598 10.1016 15.0012 10.125L3.46997 16.793C3.41138 16.8281 3.37622 16.8398 3.32935 16.8398Z" fill="#FE5A0E"/>
</svg>
