<svg width="80" height="80" viewBox="0 0 80 80" fill="none" xmlns="http://www.w3.org/2000/svg">
<path d="M17.5969 16.3279C17.6604 16.3377 17.7233 16.3426 17.7855 16.3426C18.3617 16.3426 18.8689 15.9239 18.9623 15.3373L19.3169 13.1089C19.42 12.4583 18.9763 11.8467 18.3257 11.7436C17.6757 11.6398 17.0641 12.0835 16.9603 12.7342L16.6057 14.9626C16.5026 15.6126 16.9463 16.2242 17.5969 16.3279Z" fill="#FE5A0E"/>
<path d="M21.4957 16.948C21.5592 16.9578 21.6221 16.9627 21.685 16.9627C22.2611 16.9627 22.7683 16.544 22.8611 15.9574L23.2157 13.729C23.3195 13.0784 22.8758 12.4668 22.2251 12.3637C21.5745 12.2599 20.9629 12.7037 20.8598 13.3543L20.5051 15.5827C20.402 16.2333 20.8451 16.8443 21.4957 16.948Z" fill="#FE5A0E"/>
<path d="M69.6401 47.9155V44.1411C69.6401 39.8741 67.1901 36.1718 63.6251 34.3584C67.1364 32.553 69.5461 28.894 69.5461 24.6807C69.5461 24.6795 69.5455 24.6777 69.5455 24.6764V17.7978C69.5455 12.5897 65.309 8.35323 60.1015 8.35323H47.0602C46.401 8.35323 45.867 8.88729 45.867 9.54586C45.867 12.9437 47.781 15.9014 50.5868 17.4011C48.7942 19.3816 47.7938 21.9463 47.7938 24.6807C47.7938 28.8915 50.2004 32.5481 53.7087 34.3548C52.6888 34.8729 51.7452 35.5523 50.9133 36.3842C50.7638 36.5343 50.6197 36.6887 50.48 36.8456L47.3135 37C46.6549 37.0324 46.1477 37.5921 46.1801 38.25C46.2112 38.8878 46.7385 39.3847 47.3702 39.3847C47.3904 39.3847 47.4099 39.384 47.4294 39.3828L48.8156 39.3157C48.0874 40.7988 47.7004 42.4401 47.7004 44.1411V44.1686L37.7285 44.6575C38.1509 43.8469 38.3621 42.9204 38.2937 41.9561C38.2412 41.209 38.0319 40.4991 37.687 39.8607L42.6651 39.6166C43.323 39.5848 43.8308 39.0252 43.7985 38.3672C43.7661 37.7092 43.2046 37.2033 42.5485 37.2338L35.2359 37.5927C34.4394 37.2374 33.5617 37.0891 32.6681 37.1709C27.8751 37.6079 23.9902 37.0189 21.0764 35.4216V33.9007C21.0764 31.234 19.9637 28.8232 18.1803 27.1044C22.446 26.1871 25.9244 22.738 26.6495 18.1774C27.0084 15.9222 26.6464 13.6486 25.6546 11.6473C28.5763 11.7218 30.3793 9.54464 30.665 7.25583C30.9665 4.83335 29.617 2.11729 26.4542 1.61375L17.0597 0.119613C14.5682 -0.277114 12.0713 0.320418 10.0296 1.80235C7.98802 3.28367 6.64525 5.47116 6.24914 7.96261L5.16759 14.7613V14.7619V14.7625C4.54382 18.6889 6.11608 22.4651 8.97069 24.8406C5.0559 25.993 2.18848 29.6172 2.18848 33.9V46.1009C2.18848 49.3022 3.81018 52.2691 6.46398 54.0068V74.8191C6.46398 77.6695 8.7827 79.9882 11.633 79.9882C12.2593 79.9882 12.8604 79.8759 13.4165 79.6708C13.9835 79.8795 14.5902 79.9882 15.1987 79.9882C18.049 79.9882 20.3684 77.6695 20.3684 74.8191V65.4277C20.3684 64.7685 19.8343 64.2344 19.1751 64.2344C18.5166 64.2344 17.9825 64.7685 17.9825 65.4277V74.8191C17.9825 76.0478 17.1811 77.0909 16.0745 77.4595C16.536 76.6862 16.8021 75.7835 16.8021 74.8191V54.005C17.219 53.7315 17.6132 53.4258 17.9825 53.0901V60.656C17.9825 61.3145 18.5166 61.8486 19.1751 61.8486C19.8337 61.8486 20.3678 61.3145 20.3678 60.656V49.7008C20.7822 48.6943 21.0196 47.6152 21.066 46.5019C23.7296 47.2582 26.6641 47.6396 29.8587 47.6396C31.0531 47.6396 32.2854 47.5841 33.522 47.4736C33.9755 47.4333 34.4113 47.3351 34.8221 47.188L47.6998 46.5575V49.4652L41.7508 50.501C40.1425 50.7805 38.7692 51.8974 38.1662 53.4166L33.5354 65.1109C33.071 66.2846 33.0911 67.5694 33.5922 68.7278C33.6618 68.8884 33.7399 69.0428 33.8247 69.1923H32.1487C31.4895 69.1923 30.9555 69.7264 30.9555 70.3855C30.9555 71.0441 31.4895 71.5782 32.1487 71.5782H36.5835C36.0006 72.4406 35.6601 73.4794 35.6601 74.5964C35.6601 77.5761 38.0844 79.9998 41.0641 79.9998C44.0438 79.9998 46.4675 77.5761 46.4675 74.5964C46.4675 73.4794 46.1276 72.4406 45.5447 71.5782H45.7974C48.8247 76.619 54.3459 79.9998 60.6417 79.9998C70.1833 79.9998 77.9457 72.2374 77.9457 62.6957C77.9457 56.6472 74.7805 51.049 69.6401 47.9155ZM8.60509 8.33737C8.90111 6.47519 9.90452 4.84006 11.431 3.73289C12.9569 2.62571 14.8227 2.17893 16.6849 2.47556L26.0788 3.9697C27.8336 4.24863 28.4573 5.67319 28.2968 6.96103C28.1522 8.1213 27.3294 9.41707 25.4861 9.24984C25.3391 9.23702 25.1895 9.2181 25.0418 9.19491L23.414 8.93612C23.4097 8.93551 23.4061 8.93429 23.4024 8.93368L12.5736 7.21127C12.2611 7.16183 11.9419 7.23812 11.6855 7.42367C11.4298 7.60983 11.2577 7.88937 11.2082 8.20187L10.817 10.6622C10.6601 11.6497 10.1279 12.5164 9.31858 13.1036C8.84251 13.449 8.30479 13.673 7.74144 13.767L8.60509 8.33737ZM7.42467 16.1962C8.60387 16.1401 9.74217 15.744 10.7193 15.0347C12.0444 14.0734 12.916 12.6538 13.1729 11.0369L13.3768 9.7546L22.579 11.2188C24.0427 13.0786 24.6671 15.454 24.2935 17.8027C23.5581 22.4267 19.1971 25.5907 14.5731 24.8553C10.3074 24.1766 7.28734 20.4089 7.42467 16.1962ZM11.633 26.8413C15.4496 26.8413 18.566 29.8882 18.6844 33.6773C18.1882 33.2018 17.742 32.6867 17.3593 32.1361C16.9834 31.5948 16.24 31.4611 15.6986 31.8371C15.1578 32.2136 15.0241 32.9571 15.4001 33.4978C15.9879 34.3432 16.6892 35.1232 17.4851 35.8165C20.2402 38.217 23.9902 39.5086 28.6667 39.6764V45.2342C22.2995 45.0255 17.1549 43.131 13.3615 39.5928C12.4124 38.7072 11.5604 37.7239 10.8292 36.6692C10.4538 36.1278 9.71104 35.9929 9.16905 36.3683C8.62767 36.7437 8.49278 37.4865 8.86815 38.0285C9.69639 39.2223 10.6601 40.3362 11.7344 41.3378C13.2706 42.7709 14.9973 43.9617 16.9058 44.9083H4.57433V33.9C4.57433 30.0078 7.74083 26.8413 11.633 26.8413ZM16.6233 51.0912C16.1521 51.563 15.6174 51.9652 15.0333 52.2868C14.653 52.4968 14.4162 52.8966 14.4162 53.3311V74.8191C14.4162 76.3542 13.1675 77.6023 11.633 77.6023C10.0986 77.6023 8.84984 76.3542 8.84984 74.8191V53.333C8.84984 52.8984 8.61302 52.498 8.23277 52.2881C6.33031 51.2401 5.04003 49.3895 4.67992 47.2936H18.5886C18.3463 48.7254 17.6706 50.0444 16.6233 51.0912ZM31.0519 45.2324V39.6685C31.6501 39.644 32.261 39.6032 32.8848 39.5464C33.6355 39.4786 34.3655 39.7094 34.9405 40.1976C35.5148 40.6859 35.8603 41.3701 35.914 42.1239C36.0202 43.626 34.8526 44.9602 33.3108 45.0975C32.5522 45.1647 31.7972 45.2086 31.0519 45.2324ZM67.2542 52.8838C67.2542 53.5088 67.0107 54.0965 66.5688 54.539L61.8447 59.2625C61.4028 59.705 60.815 59.9486 60.1894 59.9486C59.5638 59.9486 58.9767 59.705 58.5342 59.2625C57.6217 58.3501 57.6217 56.8651 58.5342 55.9526L62.2231 52.2636C62.4471 52.0396 62.5728 51.7363 62.5728 51.4201V45.3337H67.2542V52.8838ZM56.8478 54.2656C55.9548 55.1585 55.4629 56.3451 55.4629 57.6079C55.4629 58.8701 55.9548 60.0572 56.8478 60.9495C57.7401 61.8425 58.9272 62.3344 60.19 62.3344C61.4522 62.3344 62.6394 61.8425 63.5317 60.9495L68.2558 56.226C68.4591 56.0228 68.6403 55.8043 68.8002 55.573C70.5147 57.5334 71.4754 60.0523 71.4754 62.6957C71.4754 68.6692 66.6158 73.5288 60.6423 73.5288C54.6688 73.5288 49.8092 68.6692 49.8092 62.6957C49.8092 57.2307 53.8778 52.7007 59.1445 51.9688L56.8478 54.2656ZM48.3621 10.7391H60.1015C63.9931 10.7391 67.1596 13.905 67.1596 17.7972V23.2934C65.6789 22.7947 64.6102 21.3928 64.6102 19.746V17.2546C64.6102 16.596 64.0761 16.062 63.417 16.062H54.7683C51.5835 16.062 48.9242 13.764 48.3621 10.7391ZM50.1797 24.6807C50.1797 22.2015 51.2332 19.9011 53.0862 18.2861C53.6312 18.3904 54.1933 18.4478 54.7683 18.4478H62.2243V19.746C62.2243 22.6928 64.3154 25.1598 67.0913 25.7433C66.5676 29.92 63.0013 33.1627 58.6874 33.1713C58.6813 33.1713 58.6758 33.1707 58.6703 33.1707C58.6648 33.1707 58.6587 33.1713 58.6532 33.1713C53.9791 33.1621 50.1797 29.3572 50.1797 24.6807ZM58.6532 35.5571C58.6593 35.5571 58.6648 35.5578 58.6703 35.5578C58.6764 35.5578 58.6819 35.5571 58.6874 35.5571C63.008 35.5657 66.5877 38.7828 67.17 42.9485H62.5728V41.657C62.5728 40.9978 62.0388 40.4637 61.3802 40.4637C60.721 40.4637 60.187 40.9978 60.187 41.657V45.3984C56.3918 45.4967 52.8976 46.8242 50.0863 48.9952V44.1411C50.0863 41.848 50.9792 39.6923 52.6003 38.0712C54.2178 36.4538 56.3668 35.5614 58.6532 35.5571ZM37.0688 69.0269C36.4877 68.7968 36.0306 68.3543 35.7827 67.7806C35.5343 67.2068 35.5246 66.5703 35.7547 65.9886L40.3848 54.2955C40.6833 53.5435 41.3638 52.99 42.1603 52.8514L47.0492 52C45.7162 53.6906 44.692 55.6352 44.0603 57.7476C44.0414 57.7843 40.1077 67.7122 40.1077 67.7122C39.7512 68.6113 38.8968 69.1923 37.9306 69.1923C37.6346 69.1923 37.3452 69.1368 37.0688 69.0269ZM44.0823 74.5964C44.0823 76.2602 42.7285 77.6139 41.0641 77.6139C39.4003 77.6139 38.0465 76.2602 38.0465 74.5964C38.0465 72.9319 39.4003 71.5782 41.0641 71.5782C42.7285 71.5782 44.0823 72.9319 44.0823 74.5964ZM42.0358 69.1923C42.1444 69.0007 42.2427 68.8005 42.3257 68.5911L43.5617 65.4698C43.771 66.7637 44.1244 68.0101 44.6047 69.1923H42.0358ZM60.6423 77.6139C52.416 77.6139 45.7241 70.9214 45.7241 62.6957C45.7241 54.622 52.1706 48.0266 60.187 47.7855V49.4884C53.1088 49.7295 47.4233 55.5595 47.4233 62.6957C47.4233 69.9846 53.3529 75.9147 60.6423 75.9147C67.9311 75.9147 73.8607 69.9846 73.8607 62.6957C73.8607 59.0043 72.3287 55.5101 69.637 53.0113C69.6383 52.9686 69.6401 52.9265 69.6401 52.8838V50.7976C73.3351 53.5954 75.5605 57.9875 75.5605 62.6957C75.5599 70.9214 68.868 77.6139 60.6423 77.6139Z" fill="#FE5A0E"/>
<path d="M57.0233 19.6343C56.3647 19.6343 55.8301 20.1683 55.8301 20.8269V23.0834C55.8301 23.7419 56.3647 24.276 57.0233 24.276C57.6819 24.276 58.2159 23.7419 58.2159 23.0834V20.8269C58.2159 20.1683 57.6819 19.6343 57.0233 19.6343Z" fill="#FE5A0E"/>
<path d="M53.0754 19.6343C52.4169 19.6343 51.8828 20.1683 51.8828 20.8269V23.0834C51.8828 23.7419 52.4169 24.276 53.0754 24.276C53.734 24.276 54.2681 23.7419 54.2681 23.0834V20.8269C54.2681 20.1683 53.734 19.6343 53.0754 19.6343Z" fill="#FE5A0E"/>
<path d="M40.4018 75.5876C40.8462 75.8806 41.4382 75.8458 41.8429 75.4985C42.2054 75.1878 42.347 74.6751 42.1957 74.2222C42.0419 73.7596 41.6116 73.4288 41.1227 73.405C40.613 73.3799 40.1357 73.693 39.952 74.1673C39.7542 74.6782 39.9428 75.2855 40.4018 75.5876Z" fill="#FE5A0E"/>
</svg>
