<svg width="80" height="80" viewBox="0 0 80 80" fill="none" xmlns="http://www.w3.org/2000/svg">
<path d="M5.00098 45.6228C4.30973 45.6228 3.75098 45.0641 3.75098 44.3728V39.5391C3.75098 38.8478 4.30973 38.2891 5.00098 38.2891C5.69223 38.2891 6.25098 38.8478 6.25098 39.5391V44.3728C6.25098 45.0641 5.69223 45.6228 5.00098 45.6228Z" fill="#FE5A0E"/>
<path d="M22.501 45.6226C21.8097 45.6226 21.251 45.0638 21.251 44.3726V38.7476C21.251 38.0563 21.8097 37.4976 22.501 37.4976C23.1922 37.4976 23.751 38.0563 23.751 38.7476V44.3726C23.751 45.0638 23.1922 45.6226 22.501 45.6226Z" fill="#FE5A0E"/>
<path d="M22.501 39.9976C21.8097 39.9976 21.251 39.4388 21.251 38.7476C21.251 34.2676 17.606 30.6226 13.1247 30.6226C8.64473 30.6226 5.00098 34.2676 5.00098 38.7476C5.00098 39.4388 4.44223 39.9976 3.75098 39.9976C3.05973 39.9976 2.50098 39.4388 2.50098 38.7476C2.50098 32.8888 7.26723 28.1226 13.1247 28.1226C18.9847 28.1226 23.751 32.8888 23.751 38.7476C23.751 39.4388 23.1922 39.9976 22.501 39.9976Z" fill="#FE5A0E"/>
<path d="M22.5017 41.7114C22.1255 41.7114 21.7542 41.5427 21.508 41.2214C19.093 38.0677 18.438 38.3302 15.9905 39.2989C13.6417 40.2289 10.0967 41.6364 3.55547 40.6014C2.87422 40.4939 2.40797 39.8539 2.51672 39.1714C2.62422 38.4902 3.26672 38.024 3.94672 38.1327C9.81297 39.0602 12.8517 37.854 15.0705 36.974C18.0817 35.7815 20.1017 35.2715 23.493 39.7002C23.913 40.2477 23.8092 41.0327 23.2605 41.4527C23.0342 41.6277 22.7667 41.7114 22.5017 41.7114Z" fill="#FE5A0E"/>
<path d="M17.5 38.719C17.3162 38.719 17.1275 38.6777 16.9512 38.5902C16.3312 38.2865 16.0762 37.5365 16.38 36.9177L18.88 31.8277C19.1837 31.2065 19.9325 30.9515 20.5525 31.2565C21.1725 31.5602 21.4275 32.3102 21.1237 32.929L18.6237 38.019C18.4062 38.4627 17.9612 38.719 17.5 38.719Z" fill="#FE5A0E"/>
<path d="M2.50098 60.6177C1.80973 60.6177 1.25098 60.0589 1.25098 59.3677C1.25098 56.6102 3.49348 54.3677 6.25098 54.3677C6.94223 54.3677 7.50098 54.9264 7.50098 55.6177C7.50098 56.3089 6.94223 56.8677 6.25098 56.8677C4.87223 56.8677 3.75098 57.9889 3.75098 59.3677C3.75098 60.0589 3.19223 60.6177 2.50098 60.6177Z" fill="#FE5A0E"/>
<path d="M10.001 56.875H6.25098C5.55973 56.875 5.00098 56.3162 5.00098 55.625C5.00098 54.9338 5.55973 54.375 6.25098 54.375H10.001C10.6922 54.375 11.251 54.9338 11.251 55.625C11.251 56.3162 10.6922 56.875 10.001 56.875Z" fill="#FE5A0E"/>
<path d="M2.50098 65.6227C1.80973 65.6227 1.25098 65.0639 1.25098 64.3727V59.3677C1.25098 58.6764 1.80973 58.1177 2.50098 58.1177C3.19223 58.1177 3.75098 58.6764 3.75098 59.3677V64.3727C3.75098 65.0639 3.19223 65.6227 2.50098 65.6227Z" fill="#FE5A0E"/>
<path d="M25.001 60.6177C24.3097 60.6177 23.751 60.0589 23.751 59.3677C23.751 57.9889 22.6297 56.8677 21.251 56.8677C20.5597 56.8677 20.001 56.3089 20.001 55.6177C20.001 54.9264 20.5597 54.3677 21.251 54.3677C24.0085 54.3677 26.251 56.6102 26.251 59.3677C26.251 60.0589 25.6922 60.6177 25.001 60.6177Z" fill="#FE5A0E"/>
<path d="M21.251 56.875H17.501C16.8097 56.875 16.251 56.3162 16.251 55.625C16.251 54.9338 16.8097 54.375 17.501 54.375H21.251C21.9422 54.375 22.501 54.9338 22.501 55.625C22.501 56.3162 21.9422 56.875 21.251 56.875Z" fill="#FE5A0E"/>
<path d="M25.001 65.6227C24.3097 65.6227 23.751 65.0639 23.751 64.3727V59.3677C23.751 58.6764 24.3097 58.1177 25.001 58.1177C25.6922 58.1177 26.251 58.6764 26.251 59.3677V64.3727C26.251 65.0639 25.6922 65.6227 25.001 65.6227Z" fill="#FE5A0E"/>
<path d="M10.001 56.8753C9.30973 56.8753 8.75098 56.3165 8.75098 55.6253V52.2703C8.75098 51.579 9.30973 51.0203 10.001 51.0203C10.6922 51.0203 11.251 51.579 11.251 52.2703V55.6253C11.251 56.3165 10.6922 56.8753 10.001 56.8753Z" fill="#FE5A0E"/>
<path d="M17.501 56.8678C16.8097 56.8678 16.251 56.309 16.251 55.6178V52.2703C16.251 51.579 16.8097 51.0203 17.501 51.0203C18.1922 51.0203 18.751 51.579 18.751 52.2703V55.6178C18.751 56.309 18.1922 56.8678 17.501 56.8678Z" fill="#FE5A0E"/>
<path d="M13.751 54.3627C8.23723 54.3627 3.75098 49.8789 3.75098 44.3677C3.75098 43.6764 4.30973 43.1177 5.00098 43.1177C5.69223 43.1177 6.25098 43.6764 6.25098 44.3677C6.25098 48.5014 9.61473 51.8627 13.751 51.8627C17.8872 51.8627 21.251 48.5014 21.251 44.3677C21.251 43.6764 21.8097 43.1177 22.501 43.1177C23.1922 43.1177 23.751 43.6764 23.751 44.3677C23.751 49.8789 19.2647 54.3627 13.751 54.3627Z" fill="#FE5A0E"/>
<path d="M57.498 45.6227C56.8068 45.6227 56.248 45.0639 56.248 44.3727V34.3677C56.248 33.6764 56.8068 33.1177 57.498 33.1177C58.1893 33.1177 58.748 33.6764 58.748 34.3677V44.3727C58.748 45.0639 58.1893 45.6227 57.498 45.6227Z" fill="#FE5A0E"/>
<path d="M74.998 45.6226C74.3068 45.6226 73.748 45.0638 73.748 44.3726V44.0063C73.748 43.3151 74.3068 42.7563 74.998 42.7563C75.6893 42.7563 76.248 43.3151 76.248 44.0063V44.3726C76.248 45.0638 75.6893 45.6226 74.998 45.6226Z" fill="#FE5A0E"/>
<path d="M54.998 60.6177C54.3068 60.6177 53.748 60.0589 53.748 59.3677C53.748 56.6102 55.9905 54.3677 58.748 54.3677C59.4393 54.3677 59.998 54.9264 59.998 55.6177C59.998 56.3089 59.4393 56.8677 58.748 56.8677C57.3693 56.8677 56.248 57.9889 56.248 59.3677C56.248 60.0589 55.6893 60.6177 54.998 60.6177Z" fill="#FE5A0E"/>
<path d="M62.498 56.875H58.748C58.0568 56.875 57.498 56.3162 57.498 55.625C57.498 54.9338 58.0568 54.375 58.748 54.375H62.498C63.1893 54.375 63.748 54.9338 63.748 55.625C63.748 56.3162 63.1893 56.875 62.498 56.875Z" fill="#FE5A0E"/>
<path d="M54.998 65.6227C54.3068 65.6227 53.748 65.0639 53.748 64.3727V59.3677C53.748 58.6764 54.3068 58.1177 54.998 58.1177C55.6893 58.1177 56.248 58.6764 56.248 59.3677V64.3727C56.248 65.0639 55.6893 65.6227 54.998 65.6227Z" fill="#FE5A0E"/>
<path d="M77.498 60.6177C76.8068 60.6177 76.248 60.0589 76.248 59.3677C76.248 57.9889 75.1268 56.8677 73.748 56.8677C73.0568 56.8677 72.498 56.3089 72.498 55.6177C72.498 54.9264 73.0568 54.3677 73.748 54.3677C76.5055 54.3677 78.748 56.6102 78.748 59.3677C78.748 60.0589 78.1893 60.6177 77.498 60.6177Z" fill="#FE5A0E"/>
<path d="M73.748 56.875H69.998C69.3068 56.875 68.748 56.3162 68.748 55.625C68.748 54.9338 69.3068 54.375 69.998 54.375H73.748C74.4393 54.375 74.998 54.9338 74.998 55.625C74.998 56.3162 74.4393 56.875 73.748 56.875Z" fill="#FE5A0E"/>
<path d="M77.498 65.6227C76.8068 65.6227 76.248 65.0639 76.248 64.3727V59.3677C76.248 58.6764 76.8068 58.1177 77.498 58.1177C78.1893 58.1177 78.748 58.6764 78.748 59.3677V64.3727C78.748 65.0639 78.1893 65.6227 77.498 65.6227Z" fill="#FE5A0E"/>
<path d="M62.498 56.8753C61.8068 56.8753 61.248 56.3165 61.248 55.6253V52.2703C61.248 51.579 61.8068 51.0203 62.498 51.0203C63.1893 51.0203 63.748 51.579 63.748 52.2703V55.6253C63.748 56.3165 63.1893 56.8753 62.498 56.8753Z" fill="#FE5A0E"/>
<path d="M69.998 56.8678C69.3068 56.8678 68.748 56.309 68.748 55.6178V52.2703C68.748 51.579 69.3068 51.0203 69.998 51.0203C70.6893 51.0203 71.248 51.579 71.248 52.2703V55.6178C71.248 56.309 70.6893 56.8678 69.998 56.8678Z" fill="#FE5A0E"/>
<path d="M66.248 54.3627C60.7343 54.3627 56.248 49.8789 56.248 44.3677C56.248 43.6764 56.8068 43.1177 57.498 43.1177C58.1893 43.1177 58.748 43.6764 58.748 44.3677C58.748 48.5014 62.1118 51.8627 66.248 51.8627C70.3843 51.8627 73.7481 48.5014 73.7481 44.3677C73.7481 43.6764 74.3068 43.1177 74.9981 43.1177C75.6893 43.1177 76.2481 43.6764 76.2481 44.3677C76.2481 49.8789 71.7618 54.3627 66.248 54.3627Z" fill="#FE5A0E"/>
<path d="M25 74.3728C24.3088 74.3728 23.75 73.8141 23.75 73.1228C23.75 68.9866 27.1137 65.6228 31.25 65.6228C31.9412 65.6228 32.5 66.1816 32.5 66.8728C32.5 67.5641 31.9412 68.1228 31.25 68.1228C28.4925 68.1228 26.25 70.3653 26.25 73.1228C26.25 73.8141 25.6912 74.3728 25 74.3728Z" fill="#FE5A0E"/>
<path d="M35 68.1228H31.25C30.5588 68.1228 30 67.5641 30 66.8728C30 66.1816 30.5588 65.6228 31.25 65.6228H35C35.6912 65.6228 36.25 66.1816 36.25 66.8728C36.25 67.5641 35.6912 68.1228 35 68.1228Z" fill="#FE5A0E"/>
<path d="M25 79.3728C24.3088 79.3728 23.75 78.8141 23.75 78.1228V73.1228C23.75 72.4316 24.3088 71.8728 25 71.8728C25.6912 71.8728 26.25 72.4316 26.25 73.1228V78.1228C26.25 78.8141 25.6912 79.3728 25 79.3728Z" fill="#FE5A0E"/>
<path d="M55 74.3728C54.3088 74.3728 53.75 73.8141 53.75 73.1228C53.75 70.3653 51.5075 68.1228 48.75 68.1228C48.0588 68.1228 47.5 67.5641 47.5 66.8728C47.5 66.1816 48.0588 65.6228 48.75 65.6228C52.8863 65.6228 56.25 68.9866 56.25 73.1228C56.25 73.8141 55.6912 74.3728 55 74.3728Z" fill="#FE5A0E"/>
<path d="M48.75 68.1228H45C44.3088 68.1228 43.75 67.5641 43.75 66.8728C43.75 66.1816 44.3088 65.6228 45 65.6228H48.75C49.4412 65.6228 50 66.1816 50 66.8728C50 67.5641 49.4412 68.1228 48.75 68.1228Z" fill="#FE5A0E"/>
<path d="M55 79.3728C54.3088 79.3728 53.75 78.8141 53.75 78.1228V73.1228C53.75 72.4316 54.3088 71.8728 55 71.8728C55.6912 71.8728 56.25 72.4316 56.25 73.1228V78.1228C56.25 78.8141 55.6912 79.3728 55 79.3728Z" fill="#FE5A0E"/>
<path d="M35 68.1226C34.3088 68.1226 33.75 67.5639 33.75 66.8726V61.9526C33.75 61.2614 34.3088 60.7026 35 60.7026C35.6912 60.7026 36.25 61.2614 36.25 61.9526V66.8726C36.25 67.5639 35.6912 68.1226 35 68.1226Z" fill="#FE5A0E"/>
<path d="M45 68.1226C44.3088 68.1226 43.75 67.5639 43.75 66.8726V61.9526C43.75 61.2614 44.3088 60.7026 45 60.7026C45.6912 60.7026 46.25 61.2614 46.25 61.9526V66.8726C46.25 67.5639 45.6912 68.1226 45 68.1226Z" fill="#FE5A0E"/>
<path d="M39.9988 64.3725C33.1063 64.3725 27.5 58.7662 27.5 51.875C27.5 51.1837 28.0588 50.625 28.75 50.625C29.4412 50.625 30 51.1837 30 51.875C30 57.3875 34.485 61.8725 39.9988 61.8725C45.5138 61.8725 50 57.3875 50 51.875C50 51.1837 50.5588 50.625 51.25 50.625C51.9412 50.625 52.5 51.1837 52.5 51.875C52.5 58.7662 46.8925 64.3725 39.9988 64.3725Z" fill="#FE5A0E"/>
<path d="M28.75 53.1865C28.0588 53.1865 27.5 52.6278 27.5 51.9365V44.3728C27.5 43.6816 28.0588 43.1228 28.75 43.1228C29.4412 43.1228 30 43.6816 30 44.3728V51.9365C30 52.6278 29.4412 53.1865 28.75 53.1865Z" fill="#FE5A0E"/>
<path d="M51.25 53.1253C50.5588 53.1253 50 52.5665 50 51.8753V44.3728C50 43.6816 50.5588 43.1228 51.25 43.1228C51.9412 43.1228 52.5 43.6816 52.5 44.3728V51.8753C52.5 52.5665 51.9412 53.1253 51.25 53.1253Z" fill="#FE5A0E"/>
<path d="M51.25 45.6226C50.5588 45.6226 50 45.0638 50 44.3726C50 42.3051 48.3175 40.6226 46.25 40.6226C45.5588 40.6226 45 40.0638 45 39.3726C45 38.6813 45.5588 38.1226 46.25 38.1226C49.6962 38.1226 52.5 40.9263 52.5 44.3726C52.5 45.0638 51.9412 45.6226 51.25 45.6226Z" fill="#FE5A0E"/>
<path d="M46.25 40.6226C45.5588 40.6226 45 40.0638 45 39.3726V34.3726C45 33.6813 45.5588 33.1226 46.25 33.1226C46.9412 33.1226 47.5 33.6813 47.5 34.3726V39.3726C47.5 40.0638 46.9412 40.6226 46.25 40.6226Z" fill="#FE5A0E"/>
<path d="M46.25 35.6401H38.75C38.0588 35.6401 37.5 35.0814 37.5 34.3901C37.5 33.6989 38.0588 33.1401 38.75 33.1401H46.25C46.9412 33.1401 47.5 33.6989 47.5 34.3901C47.5 35.0814 46.9412 35.6401 46.25 35.6401Z" fill="#FE5A0E"/>
<path d="M28.75 45.6226C28.0588 45.6226 27.5 45.0638 27.5 44.3726C27.5 38.1688 32.5463 33.1226 38.75 33.1226C39.4412 33.1226 40 33.6813 40 34.3726C40 35.0638 39.4412 35.6226 38.75 35.6226C33.9262 35.6226 30 39.5488 30 44.3726C30 45.0638 29.4412 45.6226 28.75 45.6226Z" fill="#FE5A0E"/>
<path d="M51.2486 49.4041C51.0086 49.4041 50.7649 49.3341 50.5499 49.1904L46.7999 46.6591C46.2274 46.2716 46.0774 45.4954 46.4624 44.9229C46.8499 44.3504 47.6261 44.2016 48.1986 44.5854L51.9486 47.1166C52.5211 47.5041 52.6711 48.2804 52.2861 48.8529C52.0449 49.2116 51.6499 49.4041 51.2486 49.4041Z" fill="#FE5A0E"/>
<path d="M40.6246 48.1228C36.1096 48.1228 32.2659 46.8628 32.1059 46.8091C31.4521 46.5903 31.0971 45.8841 31.3134 45.2291C31.5309 44.5753 32.2384 44.2191 32.8934 44.4353C32.9296 44.4478 36.5284 45.6216 40.6259 45.6216C44.5984 45.6216 46.9259 44.5116 46.9496 44.5003C47.5659 44.2016 48.3171 44.4528 48.6209 45.0716C48.9246 45.6891 48.6746 46.4341 48.0596 46.7416C47.9434 46.7978 45.2321 48.1228 40.6246 48.1228Z" fill="#FE5A0E"/>
<path d="M28.7514 49.4041C28.3502 49.4041 27.9552 49.2116 27.7139 48.8541C27.3277 48.2816 27.4789 47.5054 28.0514 47.1179L31.8014 44.5866C32.3752 44.2016 33.1514 44.3516 33.5377 44.9241C33.9239 45.4966 33.7727 46.2729 33.2002 46.6604L29.4502 49.1916C29.2352 49.3354 28.9914 49.4041 28.7514 49.4041Z" fill="#FE5A0E"/>
<path d="M77.4981 39.3677C76.8069 39.3677 76.2481 38.8089 76.2481 38.1177C76.2481 33.2939 72.3219 29.3677 67.4981 29.3677C65.2706 29.3677 63.2956 30.5777 62.0306 31.5927C61.4918 32.0252 60.7056 31.9377 60.2731 31.4002C59.8406 30.8614 59.9281 30.0739 60.4656 29.6427C62.7281 27.8277 65.1594 26.8677 67.4981 26.8677C73.7019 26.8677 78.7481 31.9139 78.7481 38.1177C78.7481 38.8089 78.1894 39.3677 77.4981 39.3677Z" fill="#FE5A0E"/>
<path d="M77.498 51.8677C76.8068 51.8677 76.248 51.3089 76.248 50.6177C76.248 45.7939 72.3218 41.8677 67.498 41.8677C66.8068 41.8677 66.248 41.3089 66.248 40.6177C66.248 39.9264 66.8068 39.3677 67.498 39.3677C73.7018 39.3677 78.748 44.4139 78.748 50.6177C78.748 51.3089 78.1893 51.8677 77.498 51.8677Z" fill="#FE5A0E"/>
<path d="M57.498 41.8677C56.8068 41.8677 56.248 41.3089 56.248 40.6177C56.248 39.9264 56.8068 39.3677 57.498 39.3677C58.8768 39.3677 59.998 38.2464 59.998 36.8677C59.998 36.1764 60.5568 35.6177 61.248 35.6177C61.9393 35.6177 62.498 36.1764 62.498 36.8677C62.498 39.6252 60.2555 41.8677 57.498 41.8677Z" fill="#FE5A0E"/>
<path d="M57.498 35.635C56.8068 35.635 56.248 35.0763 56.248 34.385C56.248 31.6275 58.4905 29.385 61.248 29.385C61.9393 29.385 62.498 29.9438 62.498 30.635C62.498 31.3263 61.9393 31.885 61.248 31.885C59.8693 31.885 58.748 33.0063 58.748 34.385C58.748 35.0763 58.1893 35.635 57.498 35.635Z" fill="#FE5A0E"/>
<path d="M64.998 41.8677C62.2405 41.8677 59.998 39.6252 59.998 36.8677C59.998 36.1764 60.5568 35.6177 61.248 35.6177C61.9393 35.6177 62.498 36.1764 62.498 36.8677C62.498 38.2464 63.6193 39.3677 64.998 39.3677C65.6893 39.3677 66.2481 39.9264 66.2481 40.6177C66.2481 41.3089 65.6893 41.8677 64.998 41.8677Z" fill="#FE5A0E"/>
<path d="M61.248 38.1177C60.5568 38.1177 59.998 37.5589 59.998 36.8677V30.6177C59.998 29.9264 60.5568 29.3677 61.248 29.3677C61.9393 29.3677 62.498 29.9264 62.498 30.6177V36.8677C62.498 37.5589 61.9393 38.1177 61.248 38.1177Z" fill="#FE5A0E"/>
<path d="M77.498 51.8677C76.8068 51.8677 76.248 51.3089 76.248 50.6177V38.1177C76.248 37.4264 76.8068 36.8677 77.498 36.8677C78.1893 36.8677 78.748 37.4264 78.748 38.1177V50.6177C78.748 51.3089 78.1893 51.8677 77.498 51.8677Z" fill="#FE5A0E"/>
<path d="M67.498 41.8677H64.998C64.3068 41.8677 63.748 41.3089 63.748 40.6177C63.748 39.9264 64.3068 39.3677 64.998 39.3677H67.498C68.1893 39.3677 68.7481 39.9264 68.7481 40.6177C68.7481 41.3089 68.1893 41.8677 67.498 41.8677Z" fill="#FE5A0E"/>
<path d="M3.75098 40.6175C3.05973 40.6175 2.50098 40.0588 2.50098 39.3676V38.7476C2.50098 38.0563 3.05973 37.4976 3.75098 37.4976C4.44223 37.4976 5.00098 38.0563 5.00098 38.7476V39.3676C5.00098 40.0588 4.44223 40.6175 3.75098 40.6175Z" fill="#FE5A0E"/>
<path d="M37.4985 69.3652C37.3122 69.3652 37.1222 69.3239 36.9435 69.2352L34.4435 67.9927C33.826 67.6852 33.5735 66.9352 33.881 66.3164C34.1885 65.6989 34.936 65.4439 35.5572 65.7539L38.0572 66.9964C38.6747 67.3039 38.9272 68.0539 38.6197 68.6727C38.401 69.1114 37.9585 69.3652 37.4985 69.3652Z" fill="#FE5A0E"/>
<path d="M37.5011 69.3651C37.0423 69.3651 36.5998 69.1114 36.3811 68.6726C36.0723 68.0551 36.3236 67.3039 36.9411 66.9964L39.4411 65.7489C40.0623 65.4376 40.8111 65.6926 41.1173 66.3089C41.4261 66.9264 41.1748 67.6776 40.5573 67.9851L38.0573 69.2326C37.8786 69.3239 37.6873 69.3651 37.5011 69.3651Z" fill="#FE5A0E"/>
<path d="M42.501 69.365C42.041 69.365 41.5985 69.1112 41.381 68.6712C41.0735 68.0525 41.326 67.3025 41.9435 66.995L44.4435 65.7525C45.0647 65.4425 45.8122 65.6974 46.1197 66.3149C46.4272 66.9337 46.1747 67.6837 45.5572 67.9912L43.0572 69.2337C42.8772 69.3237 42.6872 69.365 42.501 69.365Z" fill="#FE5A0E"/>
<path d="M42.4993 69.3651C42.313 69.3651 42.1218 69.3239 41.943 69.2339L39.443 67.9864C38.8255 67.6789 38.5743 66.9276 38.883 66.3101C39.1905 65.6939 39.9405 65.4389 40.5593 65.7501L43.0593 66.9976C43.6768 67.3051 43.928 68.0564 43.6193 68.6739C43.4005 69.1114 42.958 69.3651 42.4993 69.3651Z" fill="#FE5A0E"/>
<path d="M66.2496 59.3651C66.0133 59.3651 65.7721 59.2976 65.5596 59.1564L61.807 56.6664C61.232 56.2851 61.0745 55.5089 61.457 54.9339C61.8383 54.3601 62.6133 54.1976 63.1895 54.5839L66.9421 57.0739C67.5171 57.4551 67.6746 58.2314 67.2921 58.8064C67.0521 59.1689 66.6546 59.3651 66.2496 59.3651Z" fill="#FE5A0E"/>
<path d="M66.2466 59.3651C65.8416 59.3651 65.4441 59.1689 65.2041 58.8064C64.8216 58.2314 64.9791 57.4551 65.5541 57.0739L69.3066 54.5839C69.8816 54.1976 70.6579 54.3601 71.0391 54.9339C71.4216 55.5089 71.2641 56.2851 70.6891 56.6664L66.9366 59.1564C66.7241 59.2976 66.4841 59.3651 66.2466 59.3651Z" fill="#FE5A0E"/>
<path d="M13.7497 59.3701C10.9472 59.3701 8.75098 57.7239 8.75098 55.6201C8.75098 54.9289 9.30973 54.3701 10.001 54.3701C10.6922 54.3701 11.251 54.9289 11.251 55.6201C11.251 56.1301 12.2235 56.8701 13.7497 56.8701C15.276 56.8701 16.2497 56.1301 16.2497 55.6201C16.2497 54.9289 16.8085 54.3701 17.4997 54.3701C18.191 54.3701 18.7497 54.9289 18.7497 55.6201C18.7497 57.7239 16.5535 59.3701 13.7497 59.3701Z" fill="#FE5A0E"/>
<path d="M40.0012 30.5614C39.6812 30.5614 39.3612 30.4389 39.1175 30.1952L26.6887 17.7689C24.7937 15.8752 23.75 13.3564 23.75 10.6752C23.75 7.99391 24.7937 5.47391 26.6887 3.57891C28.585 1.67766 31.1062 0.630156 33.7875 0.630156C36.0712 0.630156 38.24 1.38891 40.0037 2.79141C41.7687 1.38891 43.9387 0.628906 46.2275 0.628906C48.9037 0.628906 51.42 1.66891 53.3162 3.56016C57.1962 7.46641 57.2175 13.7889 53.385 17.7014C53.3625 17.7264 53.3412 17.7502 53.3175 17.7739L40.8875 30.1977C40.6412 30.4402 40.3212 30.5614 40.0012 30.5614ZM33.7862 3.13016C31.775 3.13016 29.8825 3.91641 28.4562 5.34516C27.0337 6.77016 26.25 8.66266 26.25 10.6752C26.25 12.6877 27.0337 14.5789 28.4562 16.0014L40.0012 27.5439L51.455 16.0952C51.5025 16.0377 51.5537 15.9852 51.6087 15.9364C54.4775 12.9952 54.455 8.25391 51.5437 5.32516C50.125 3.90891 48.235 3.12766 46.225 3.12766C44.2087 3.12766 42.3137 3.91516 40.89 5.34391C40.4212 5.81516 39.5837 5.81641 39.115 5.34516C37.6912 3.91641 35.7987 3.13016 33.7862 3.13016Z" fill="#FE5A0E"/>
<path d="M45.869 24.7002C45.359 24.7002 44.8802 24.3864 44.6952 23.8802C43.9777 21.9164 42.089 20.5964 39.999 20.5964C37.9115 20.5964 36.0252 21.9139 35.304 23.8727C35.0665 24.5227 34.3465 24.8539 33.699 24.6139C33.0515 24.3764 32.7202 23.6564 32.9577 23.0089C34.039 20.0702 36.869 18.0964 39.999 18.0964C43.1352 18.0964 45.9652 20.0752 47.044 23.0202C47.2802 23.6689 46.9477 24.3864 46.299 24.6239C46.1577 24.6752 46.0127 24.7002 45.869 24.7002Z" fill="#FE5A0E"/>
<path d="M39.999 20.5989C37.2415 20.5989 34.999 18.3564 34.999 15.5989C34.999 12.8414 37.2415 10.5989 39.999 10.5989C42.7565 10.5989 44.999 12.8414 44.999 15.5989C44.999 18.3564 42.7565 20.5989 39.999 20.5989ZM39.999 13.0989C38.6203 13.0989 37.499 14.2201 37.499 15.5989C37.499 16.9776 38.6203 18.0989 39.999 18.0989C41.3778 18.0989 42.499 16.9776 42.499 15.5989C42.499 14.2201 41.3778 13.0989 39.999 13.0989Z" fill="#FE5A0E"/>
</svg>
