<svg width="80" height="80" viewBox="0 0 80 80" fill="none" xmlns="http://www.w3.org/2000/svg">
<g clip-path="url(#clip0)">
<path d="M53.5548 29.6003C52.082 28.1562 50.149 27.3566 48.094 27.3475V19.7632C48.094 17.3408 47.013 14.961 45.2021 13.3985C43.6775 12.0826 41.8061 11.5107 39.9323 11.7865C31.598 13.0152 24.1645 13.0152 15.8307 11.7865C13.9563 11.5101 12.0856 12.082 10.5615 13.3979C8.75124 14.9604 7.6703 17.3401 7.6703 19.7632V27.3475C6.56373 27.353 5.49134 27.588 4.48487 28.0427C3.89466 28.3088 3.63282 29.0028 3.89893 29.593C4.16505 30.1832 4.85963 30.4456 5.44923 30.1789C6.20057 29.8396 7.00624 29.6778 7.83937 29.6925C8.10243 29.698 8.36122 29.7224 8.61452 29.7645C8.63283 29.7681 8.65114 29.7712 8.67006 29.7743C11.2671 30.2375 13.2624 32.5849 13.2624 35.3614V49.7249C13.2624 51.6426 14.8224 53.2026 16.7408 53.2026H39.0229C40.9406 53.2026 42.5007 51.6426 42.5007 49.7249V35.3614C42.5007 32.2956 44.9336 29.7523 47.9243 29.6925C49.4276 29.6644 50.843 30.2241 51.9142 31.2739C52.9859 32.3243 53.5762 33.7287 53.5762 35.229C53.5762 37.3725 52.3188 39.3434 50.3736 40.2497C49.9604 40.442 49.6968 40.8564 49.6968 41.3118V56.8959C49.6968 58.8277 48.1257 60.3987 46.1939 60.3987H9.56911C7.63795 60.3987 6.0663 58.8277 6.0663 56.8959V41.3118C6.0663 40.8564 5.80262 40.4426 5.38942 40.2497C3.44422 39.3434 2.1875 37.3725 2.1875 35.229C2.1875 34.3934 2.36817 33.5914 2.72523 32.8455C3.00416 32.2614 2.75696 31.5614 2.17286 31.2824C1.58875 31.0035 0.889284 31.2507 0.610353 31.8348C0.101319 32.8993 -0.15625 34.0412 -0.15625 35.229C-0.15625 38.0232 1.344 40.6105 3.72254 42.0173V56.8959C3.72254 60.1198 6.34523 62.7425 9.56911 62.7425H10.6684V66.3124C10.6684 67.5612 11.6846 68.578 12.9334 68.578H14.8273C16.0767 68.578 17.0929 67.5612 17.0929 66.3124V62.7425H38.6701V66.3124C38.6701 67.5612 39.6864 68.578 40.9358 68.578H42.8297C44.0791 68.578 45.0953 67.5612 45.0953 66.3124V62.7425H46.1939C49.4178 62.7425 52.0411 60.1198 52.0411 56.8959V42.0173C54.4197 40.6105 55.9199 38.0226 55.9199 35.229C55.9199 33.094 55.0801 31.0951 53.5548 29.6003ZM40.1569 49.7249C40.1569 50.3499 39.6479 50.8589 39.0229 50.8589H16.7408C16.1151 50.8589 15.6061 50.3499 15.6061 49.7249V44.7914H40.1569V49.7249ZM40.1569 35.3614V42.4476H15.6061V35.3614C15.6061 31.7793 13.2392 28.7025 10.0141 27.6954V19.7632C10.0141 18.0384 10.8106 16.2787 12.0935 15.1716C12.8009 14.5612 13.9643 13.8794 15.4889 14.1053C24.0595 15.3681 31.7036 15.3681 40.2747 14.1053C41.7994 13.8801 42.9627 14.5612 43.6707 15.1722C44.9531 16.2794 45.7502 18.0384 45.7502 19.7632V27.6954C42.5245 28.7019 40.1569 31.7793 40.1569 35.3614ZM14.7492 66.2343H13.0121V62.7425H14.7492V66.2343ZM42.7516 66.2343H41.0139V62.7425H42.7516V66.2343Z" fill="#FE5A0E"/>
<path d="M21.6875 23.9336H21.2773V23.5234C21.2773 22.8759 20.7524 22.3516 20.1055 22.3516C19.4585 22.3516 18.9336 22.8759 18.9336 23.5234V23.9336H18.5234C17.8765 23.9336 17.3516 24.4579 17.3516 25.1055C17.3516 25.7524 17.8765 26.2773 18.5234 26.2773H18.9336V26.6875C18.9336 27.3345 19.4585 27.8594 20.1055 27.8594C20.7524 27.8594 21.2773 27.3345 21.2773 26.6875V26.2773H21.6875C22.3345 26.2773 22.8594 25.7524 22.8594 25.1055C22.8594 24.4579 22.3345 23.9336 21.6875 23.9336Z" fill="#FE5A0E"/>
<path d="M37.2396 23.9336H36.8301V23.5234C36.8301 22.8759 36.3052 22.3516 35.6582 22.3516C35.0106 22.3516 34.4863 22.8759 34.4863 23.5234V23.9336H34.0762C33.4286 23.9336 32.9043 24.4579 32.9043 25.1055C32.9043 25.7524 33.4286 26.2773 34.0762 26.2773H34.4863V26.6875C34.4863 27.3345 35.0106 27.8594 35.6582 27.8594C36.3052 27.8594 36.8301 27.3345 36.8301 26.6875V26.2773H37.2396C37.8872 26.2773 38.4115 25.7524 38.4115 25.1055C38.4115 24.4579 37.8872 23.9336 37.2396 23.9336Z" fill="#FE5A0E"/>
<path d="M77.3523 37.257H69.7657V31.9744H73.9051C74.5978 31.9744 75.2491 31.6356 75.647 31.068C76.0444 30.501 76.1408 29.7728 75.904 29.1216L73.3289 22.0262C73.0243 21.1882 72.2211 20.6255 71.3294 20.6255H65.8582C64.9664 20.6255 64.1632 21.1882 63.8587 22.0269L61.2836 29.1216C61.0468 29.7728 61.1432 30.501 61.5405 31.068C61.9385 31.6356 62.5897 31.9744 63.2825 31.9744H67.4219V37.257H58.6926C57.3187 37.257 56.2012 38.3745 56.2012 39.7485V41.1565C56.2012 42.5304 57.3187 43.648 58.6926 43.648H58.7274V45.8892C58.7274 46.5368 59.2517 47.0611 59.8993 47.0611C60.5463 47.0611 61.0712 46.5368 61.0712 45.8892V43.648H74.9738V51.4288H61.0712V50.5767C61.0712 49.9291 60.5463 49.4048 59.8993 49.4048C59.2517 49.4048 58.7274 49.9291 58.7274 50.5767V61.9848C58.7274 62.7856 59.2218 63.4729 59.9219 63.7579V66.6314C59.9219 67.7044 60.7953 68.5779 61.8683 68.5779H63.6005C64.6735 68.5779 65.5469 67.7044 65.5469 66.6314V63.8977H70.0782V66.6314C70.0782 67.7044 70.9516 68.5779 72.0246 68.5779H73.7568C74.8298 68.5779 75.7032 67.7044 75.7032 66.6314V63.8745C76.6169 63.731 77.3175 62.9382 77.3175 61.9848V43.648H77.3523C78.7262 43.648 79.8438 42.5304 79.8438 41.1565V39.7485C79.8438 38.3745 78.7262 37.257 77.3523 37.257ZM66.0102 22.9692H71.1774L73.5956 29.6306H63.5919L66.0102 22.9692ZM74.9738 53.7725V61.5539H61.0712V53.7725H74.9738ZM63.2031 66.2335H62.2656V63.8977H63.2031V66.2335ZM73.3594 66.2335H72.4219V63.8977H73.3594V66.2335ZM77.5 41.1565C77.5 41.2377 77.4335 41.3042 77.3523 41.3042H58.6926C58.6115 41.3042 58.5449 41.2377 58.5449 41.1565V39.7485C58.5449 39.6667 58.6115 39.6007 58.6926 39.6007H77.3523C77.4335 39.6007 77.5 39.6667 77.5 39.7485V41.1565Z" fill="#FE5A0E"/>
<path d="M68.8543 46.7884C69.5012 46.7884 70.0261 46.2641 70.0261 45.6165C70.0261 44.9689 69.5012 44.4446 68.8543 44.4446H67.1904C66.5435 44.4446 66.0186 44.9689 66.0186 45.6165C66.0186 46.2641 66.5435 46.7884 67.1904 46.7884H68.8543Z" fill="#FE5A0E"/>
<path d="M67.1904 56.9446H68.8543C69.5012 56.9446 70.0261 56.4203 70.0261 55.7727C70.0261 55.1251 69.5012 54.6008 68.8543 54.6008H67.1904C66.5435 54.6008 66.0186 55.1251 66.0186 55.7727C66.0186 56.4203 66.5435 56.9446 67.1904 56.9446Z" fill="#FE5A0E"/>
</g>
<defs>
<clipPath id="clip0">
<rect width="80" height="80" fill="white"/>
</clipPath>
</defs>
</svg>
