<svg width="80" height="80" viewBox="0 0 80 80" fill="none" xmlns="http://www.w3.org/2000/svg">
<g clip-path="url(#clip0)">
<path d="M27.1093 28.8972C27.13 28.6704 27.1404 28.4447 27.1404 28.2264C27.1404 24.2564 23.9106 21.0267 19.9407 21.0267C19.1032 21.0267 18.2796 21.171 17.5033 21.4498C16.0477 19.2962 13.6048 17.9668 10.9411 17.9668C6.57417 17.9668 3.02148 21.5195 3.02148 25.8865C3.02148 27.1225 3.29939 28.3073 3.84729 29.408C4.09082 29.897 4.58994 30.2063 5.13639 30.2063H25.6753C26.4199 30.2063 27.0416 29.6387 27.1093 28.8972ZM6.10961 27.3266C5.97119 26.8633 5.90136 26.3814 5.90136 25.8865C5.90136 23.1076 8.16224 20.8467 10.9411 20.8467C12.9594 20.8467 14.7786 22.0461 15.5759 23.9026C15.7417 24.2887 16.0679 24.5829 16.4689 24.7086C16.8699 24.8344 17.3057 24.7782 17.6619 24.5556C18.3415 24.1312 19.1295 23.9067 19.9409 23.9067C22.0144 23.9067 23.7514 25.3751 24.1664 27.3266H6.10961Z" fill="#FE5A0E"/>
<path d="M20.5973 12.2395H41.1362C41.8809 12.2395 42.5025 11.6719 42.5702 10.9304C42.5909 10.7036 42.6014 10.4779 42.6014 10.2595C42.6014 6.28964 39.3716 3.05987 35.4017 3.05987C34.5642 3.05987 33.7404 3.20422 32.9642 3.48303C31.5086 1.32942 29.066 0 26.4021 0C22.0351 0 18.4824 3.55268 18.4824 7.91965C18.4824 9.15584 18.7603 10.3407 19.3084 11.4414C19.5518 11.9304 20.0511 12.2395 20.5973 12.2395ZM26.4021 2.87987C28.4203 2.87987 30.2395 4.07934 31.0367 5.93578C31.2025 6.32186 31.5286 6.61615 31.9295 6.74178C32.3303 6.86742 32.7662 6.81162 33.1224 6.58879C33.8021 6.16437 34.5901 5.93992 35.4015 5.93992C37.475 5.93992 39.2119 7.40829 39.627 9.35977H21.5705C21.4321 8.89665 21.3623 8.41499 21.3623 7.91983C21.3623 5.14057 23.623 2.87987 26.4021 2.87987Z" fill="#FE5A0E"/>
<path d="M69.7806 48.7779C68.9431 48.7779 68.1194 48.9222 67.3431 49.201C65.8875 47.0474 63.4449 45.718 60.781 45.718C56.414 45.718 52.8613 49.2707 52.8613 53.6377C52.8613 54.8738 53.1392 56.0587 53.6873 57.1594C53.9308 57.6484 54.43 57.9575 54.9762 57.9575H75.5151C76.2598 57.9575 76.8814 57.3899 76.9491 56.6484C76.9698 56.4216 76.9803 56.1959 76.9803 55.9776C76.9803 52.0077 73.7505 48.7779 69.7806 48.7779ZM55.9494 55.0778C55.811 54.6145 55.7412 54.1328 55.7412 53.6377C55.7412 50.8586 58.0019 48.5979 60.781 48.5979C62.7992 48.5979 64.6184 49.7974 65.4156 51.6538C65.5814 52.0399 65.9075 52.3342 66.3085 52.4598C66.7094 52.5854 67.1451 52.5296 67.5015 52.3068C68.1812 51.8824 68.9692 51.6579 69.7806 51.6579C71.8541 51.6579 73.591 53.1263 74.0061 55.0778H55.9494Z" fill="#FE5A0E"/>
<path d="M73.066 32.6484V8.22021C73.066 7.42501 72.4212 6.78027 71.626 6.78027H47.198C46.5283 6.78027 45.9471 7.24195 45.7955 7.89425L38.402 39.7158C38.4006 39.7217 38.4004 39.7276 38.3991 39.7338C38.3874 39.7867 38.3781 39.8403 38.3725 39.8947C38.3723 39.8961 38.3719 39.8974 38.3719 39.8988C38.3673 39.9462 38.3647 39.9939 38.3647 40.0417V47.5573C38.3647 49.2688 36.9723 50.6613 35.2608 50.6613H28.8693C25.5697 50.6613 22.8854 53.3457 22.8854 56.6451V56.7369C22.8854 60.0363 25.5698 62.7207 28.8693 62.7207H34.1808C35.8924 62.7207 37.2848 64.1132 37.2848 65.8247V66.4565C37.2848 68.168 35.8924 69.5604 34.1808 69.5604H26.1694C22.8698 69.5604 20.1855 72.2448 20.1855 75.5443V78.56C20.1855 79.3552 20.8303 80 21.6255 80C22.4207 80 23.0654 79.3552 23.0654 78.56V75.5443C23.0654 73.8327 24.4578 72.4403 26.1694 72.4403H34.1808C37.4803 72.4403 40.1647 69.7559 40.1647 66.4565V65.8247C40.1647 62.5253 37.4803 59.8409 34.1808 59.8409H28.8693C27.1577 59.8409 25.7653 58.4484 25.7653 56.7369V56.6451C25.7653 54.9336 27.1577 53.5411 28.8693 53.5411H35.2608C38.5602 53.5411 41.2446 50.8567 41.2446 47.5573V41.1854L71.952 34.0509C72.6043 33.8993 73.066 33.3181 73.066 32.6484ZM68.1498 9.66015L59.4121 18.3979L50.6744 9.66015H68.1498ZM48.0136 11.0724L57.3755 20.4343L42.3464 35.4633L48.0136 11.0724ZM44.383 37.4995L59.4119 22.4705L68.7741 31.8327L44.383 37.4995ZM70.1861 29.172L61.4484 20.4343L70.1861 11.6968V29.172Z" fill="#FE5A0E"/>
</g>
<defs>
<clipPath id="clip0">
<rect width="80" height="80" fill="white"/>
</clipPath>
</defs>
</svg>
