<svg width="80" height="80" viewBox="0 0 80 80" fill="none" xmlns="http://www.w3.org/2000/svg">
<path d="M53.9663 29.7275H52.18C51.4707 29.7275 50.8955 30.3027 50.8955 31.0121C50.8955 31.7214 51.4707 32.2966 52.18 32.2966H53.9663C54.6757 32.2966 55.2508 31.7214 55.2508 31.0121C55.2508 30.3027 54.6758 29.7275 53.9663 29.7275Z" fill="#FE5A0E"/>
<path d="M69.7937 25.637C68.8692 24.7125 67.6398 24.2031 66.332 24.2031C65.0243 24.2031 63.7948 24.7123 62.8704 25.637C62.3687 26.1387 62.3687 26.952 62.8704 27.4536C63.3721 27.9555 64.1854 27.9553 64.687 27.4536C65.1264 27.0142 65.7106 26.7722 66.332 26.7722C66.9534 26.7722 67.5376 27.0142 67.977 27.4536C68.2278 27.7044 68.5565 27.8298 68.8853 27.8298C69.214 27.8298 69.5428 27.7042 69.7937 27.4536C70.2953 26.9519 70.2953 26.1384 69.7937 25.637Z" fill="#FE5A0E"/>
<path d="M56.5351 25.637C54.6262 23.7281 51.5206 23.7281 49.6116 25.637C49.1099 26.1387 49.1099 26.952 49.6116 27.4536C50.1134 27.9553 50.9266 27.9553 51.4282 27.4536C51.8676 27.0142 52.452 26.7722 53.0732 26.7722C53.6945 26.7722 54.2788 27.0142 54.7182 27.4536C54.969 27.7043 55.2977 27.8298 55.6265 27.8298C55.9552 27.8298 56.2842 27.7042 56.5351 27.4536C57.0367 26.9518 57.0367 26.1384 56.5351 25.637Z" fill="#FE5A0E"/>
<path d="M67.2241 29.7275H65.4378C64.7285 29.7275 64.1533 30.3027 64.1533 31.0121C64.1533 31.7214 64.7285 32.2966 65.4378 32.2966H67.2241C67.9335 32.2966 68.5086 31.7214 68.5086 31.0121C68.5086 30.3027 67.9335 29.7275 67.2241 29.7275Z" fill="#FE5A0E"/>
<path d="M79.9997 28.3803C79.9997 25.9796 78.2118 23.9897 75.8974 23.6683L75.8249 22.9182L76.7426 23.0797C76.8179 23.0932 76.8927 23.0994 76.9668 23.0994C77.5785 23.0994 78.1207 22.6607 78.2302 22.0374C78.3532 21.3386 77.8865 20.6725 77.1879 20.5496L75.5413 20.2597C75.4724 19.8067 75.3866 19.3582 75.2802 18.9157L75.7622 18.9944C75.8324 19.0058 75.9019 19.0114 75.971 19.0114C76.5891 19.0114 77.1343 18.5639 77.2372 17.9338C77.3516 17.2336 76.8769 16.5733 76.1768 16.4589L74.3457 16.1597C73.4499 14.1447 72.1391 12.3202 70.4736 10.8077C67.5193 8.12487 63.694 6.64722 59.7019 6.64722C56.7027 6.64722 53.7755 7.483 51.2373 9.06425C50.6351 9.4394 50.4512 10.2314 50.8262 10.8339C51.2013 11.4361 51.9934 11.62 52.5958 11.245C54.7262 9.918 57.1835 9.21644 59.7019 9.21644C63.0538 9.21644 66.266 10.4571 68.7463 12.7099C69.7208 13.5949 70.5485 14.6085 71.2166 15.7136C70.6824 15.7963 70.2376 16.2128 70.1457 16.7755C70.0313 17.4757 70.506 18.136 71.2062 18.2503L72.4793 18.4585C72.623 18.8947 72.7432 19.3397 72.8419 19.791C72.1866 19.7353 71.5862 20.1878 71.4699 20.8477C71.3469 21.5464 71.8136 22.2125 72.5122 22.3355L73.1987 22.4564L74.1547 32.3497C74.4177 35.0672 73.5757 37.7157 71.8308 39.7646C71.404 39.4072 70.9522 38.9503 70.4219 38.4025C69.1769 37.1169 67.766 35.6596 65.5558 34.7492C64.2005 34.1917 63.0446 34.0905 62.0976 34.2089V31.0367C62.0976 30.3274 61.5224 29.7522 60.813 29.7522C60.1037 29.7522 59.5285 30.3274 59.5285 31.0367V35.0082C59.4641 34.9658 59.3985 34.925 59.3316 34.8864C58.2287 34.2482 56.3818 33.706 53.848 34.7494C51.6376 35.6596 50.2263 37.1169 48.9813 38.4027C48.451 38.9505 47.999 39.4075 47.5723 39.7649C45.8285 37.7169 44.9866 35.0683 45.2484 32.3494L46.2044 22.4564L46.8913 22.3355C47.5899 22.2125 48.0566 21.5464 47.9337 20.8477C47.8176 20.1877 47.2166 19.7353 46.5613 19.791C46.6605 19.34 46.7818 18.895 46.926 18.4582L48.1974 18.2503C48.8976 18.136 49.3724 17.4757 49.2579 16.7755C49.166 16.2139 48.7229 15.7977 48.1898 15.7139C48.7548 14.7783 49.4323 13.9077 50.2159 13.1292C50.7191 12.6292 50.7218 11.816 50.2216 11.3127C49.7215 10.8092 48.9084 10.8067 48.4051 11.3069C46.993 12.7099 45.8671 14.361 45.0668 16.1589L43.2269 16.4596C42.5268 16.5739 42.052 17.2342 42.1665 17.9344C42.2695 18.5646 42.8145 19.0121 43.4327 19.0121C43.5016 19.0121 43.5713 19.0066 43.6415 18.995L44.1276 18.9155C44.0204 19.3588 43.9321 19.8074 43.8629 20.2602L42.2159 20.5502C41.5173 20.6732 41.0505 21.3392 41.1735 22.038C41.2834 22.6614 41.8252 23.1 42.437 23.1C42.511 23.1 42.5859 23.0935 42.6612 23.0803L43.5785 22.9188L43.506 23.6688C41.1921 23.9899 39.4043 25.98 39.4043 28.381C39.4043 30.4764 40.7493 32.2578 42.6402 32.8919C42.5426 35.73 43.3957 38.4713 45.0559 40.7275C44.6712 40.8488 44.3566 41.1464 44.2235 41.5433C44.0479 42.0667 44.2263 42.6436 44.6666 42.9766C45.3007 43.456 46.0379 43.9102 46.828 44.3119C46.831 44.3402 46.8348 44.3694 46.8382 44.398C43.4877 46.4792 41.4421 50.1177 41.4421 54.1099V73.5858C41.4421 74.2952 42.0173 74.8703 42.7266 74.8703H49.4962C49.4979 74.8703 49.4994 74.8705 49.5012 74.8705C49.5029 74.8705 49.5044 74.8703 49.5062 74.8703H59.6971C59.6988 74.8703 59.7004 74.8705 59.7021 74.8705C59.7038 74.8705 59.7054 74.8703 59.7071 74.8703H69.8962C69.8979 74.8703 69.8994 74.8705 69.9011 74.8705C69.9029 74.8705 69.9044 74.8703 69.9062 74.8703H76.6772C77.3866 74.8703 77.9618 74.2952 77.9618 73.5858V54.1097C77.9618 51.861 77.3079 49.6825 76.0705 47.8094C75.6794 47.2174 74.8826 47.0544 74.2907 47.4457C73.6988 47.8368 73.5358 48.6336 73.9269 49.2255C74.8858 50.6772 75.3927 52.366 75.3927 54.1096V72.3008H71.1857V54.2277C71.1857 53.5183 70.6105 52.9432 69.9011 52.9432C69.1918 52.9432 68.6166 53.5183 68.6166 54.2277V72.3005H60.9868V55.8125L63.9401 52.3055L63.9855 52.451C64.089 52.7817 64.3215 53.0568 64.6305 53.2135C64.9397 53.3703 65.2991 53.3955 65.6266 53.2835C69.2032 52.0622 71.0783 49.383 71.9577 46.9503C72.0391 46.9663 72.121 46.9771 72.203 46.9771C72.6155 46.9771 73.0204 46.7789 73.2687 46.4113C73.6658 45.8235 73.5112 45.025 72.9232 44.6278C72.8069 44.5493 72.6847 44.476 72.5644 44.401C72.5679 44.371 72.5718 44.3405 72.5749 44.3108C73.3649 43.9094 74.1019 43.4552 74.736 42.9757C75.1763 42.6427 75.3546 42.0657 75.1791 41.5424C75.046 41.1457 74.7316 40.8478 74.3469 40.7266C76.0082 38.4694 76.8615 35.7277 76.763 32.8907C78.6546 32.2569 79.9997 30.4757 79.9997 28.3803ZM42.8796 30.1569C42.3291 29.7591 41.9738 29.1113 41.9738 28.3803C41.9738 27.5022 42.4946 26.7452 43.2429 26.3966L42.8796 30.1569ZM58.418 72.3005H50.7862V54.2277C50.7862 53.5183 50.211 52.9432 49.5016 52.9432C48.7923 52.9432 48.2171 53.5183 48.2171 54.2277V72.3005H44.0118V54.1093C44.0118 51.3057 45.313 48.7266 47.4891 47.0655C48.3862 49.4669 50.258 52.0816 53.7782 53.2835C54.1062 53.3955 54.4654 53.3703 54.7744 53.2135C55.0834 53.0568 55.316 52.7817 55.4194 52.451L55.4648 52.3055L58.418 55.8125V72.3005ZM66.0127 50.3235L65.6937 49.3024C65.5537 48.8546 65.1808 48.5186 64.7208 48.4261C64.261 48.3338 63.7871 48.4991 63.4849 48.8578L59.7026 53.3494L55.9202 48.8578C55.6179 48.4989 55.1443 48.3338 54.6843 48.4261C54.2243 48.5186 53.8513 48.8546 53.7115 49.3024L53.3919 50.3249C51.0619 49.0733 50.0755 46.9789 49.6574 45.4336C51.623 46.0117 54.3313 46.4072 56.8049 45.3872C57.9721 44.906 58.9407 44.1711 59.7023 43.1924C60.4632 44.1713 61.4315 44.9058 62.5983 45.3871C63.7055 45.8436 64.8596 46.0167 65.9733 46.0167C67.3443 46.0167 68.6522 45.7542 69.7366 45.4358C69.3135 46.9805 68.3254 49.0752 66.0127 50.3235ZM70.8119 42.3088C68.1326 43.5122 65.4282 43.7747 63.578 43.0119C62.3296 42.4971 61.4544 41.5472 60.9019 40.1077C60.7113 39.6111 60.2346 39.2833 59.7029 39.2833C59.7029 39.2833 59.7029 39.2833 59.7027 39.2833C59.171 39.2833 58.6941 39.611 58.5037 40.1075C57.9508 41.5471 57.0751 42.4972 55.8263 43.0121C53.9759 43.7749 51.2713 43.5121 48.5932 42.3091C48.5652 42.2966 48.5374 42.2839 48.5096 42.2713C49.3679 41.6972 50.1038 40.9371 50.8274 40.1896C51.9501 39.03 53.111 37.8311 54.8268 37.1247C56.0843 36.6066 57.1673 36.6016 58.0449 37.1097C58.2793 37.2453 58.471 37.4316 58.6154 37.6633C58.8494 38.0388 59.2602 38.2674 59.7029 38.2685C59.7037 38.2685 59.7048 38.2685 59.7058 38.2685C60.1473 38.2685 60.5577 38.0419 60.7929 37.6682C60.951 37.4171 61.1698 37.211 61.4272 37.0716C62.2908 36.6024 63.351 36.6199 64.5785 37.1249C66.2933 37.8313 67.4543 39.0302 68.5769 40.1897C69.3005 40.9371 70.0366 41.6974 70.8952 42.2713C70.8674 42.2838 70.8397 42.2963 70.8119 42.3088ZM76.5244 30.1569L76.1612 26.3967C76.9096 26.7453 77.4307 27.5024 77.4307 28.3805C77.4305 29.1111 77.0751 29.7589 76.5244 30.1569Z" fill="#FE5A0E"/>
<path d="M32.5435 50.1011C31.9195 49.7642 31.1398 49.9972 30.803 50.6216C30.4662 51.2459 30.6991 52.0252 31.3235 52.362C34.2002 53.9145 35.9876 56.9077 35.9876 60.1736V72.3008H31.7809V60.2911C31.7809 59.5817 31.2057 59.0066 30.4963 59.0066C29.787 59.0066 29.2118 59.5817 29.2118 60.2911V72.3006H11.3807V60.2911C11.3807 59.5817 10.8055 59.0066 10.0962 59.0066C9.3868 59.0066 8.81164 59.5817 8.81164 60.2911V72.3006H4.60617V67.4872C4.60617 66.7778 4.03102 66.2027 3.32164 66.2027C2.61227 66.2027 2.03711 66.7778 2.03711 67.4872V73.5852C2.03711 74.2945 2.61227 74.8697 3.32164 74.8697H37.2719C37.9813 74.8697 38.5565 74.2945 38.5565 73.5852V60.1736C38.5565 55.9622 36.2524 52.1027 32.5435 50.1011Z" fill="#FE5A0E"/>
<path d="M26.8683 53.9631C26.1589 53.9631 25.5838 54.5383 25.5838 55.2477C25.5838 58.1627 23.2124 60.5339 20.2977 60.5339C17.3827 60.5339 15.0114 58.1625 15.0114 55.2477C15.0114 54.5383 14.4363 53.9631 13.7269 53.9631C13.0175 53.9631 12.4424 54.5383 12.4424 55.2477C12.4424 59.5792 15.9663 63.1031 20.2979 63.1031C24.6293 63.1031 28.1532 59.5792 28.1532 55.2477C28.1529 54.5383 27.5777 53.9631 26.8683 53.9631Z" fill="#FE5A0E"/>
<path d="M40.5947 34.0026C40.595 31.6018 38.807 29.6118 36.4927 29.2904L36.2473 26.7526C35.8636 22.7796 34.0245 19.1139 31.0697 16.4306C30.3173 15.7473 29.508 15.1434 28.6544 14.621C28.6991 14.2685 28.7227 13.9123 28.7227 13.5542C28.7227 8.90886 24.9434 5.12964 20.2981 5.12964C16.3127 5.12964 12.8411 7.95933 12.0433 11.8578C11.9009 12.5528 12.3492 13.2315 13.0442 13.3739C13.7392 13.5162 14.418 13.0679 14.5602 12.3729C15.1144 9.66448 17.5275 7.69901 20.298 7.69901C23.4667 7.69901 26.0539 10.2296 26.1489 13.3756C24.3022 12.6512 22.3216 12.2696 20.2975 12.2696C16.3061 12.2696 12.4805 13.7475 9.52531 16.4306C6.57016 19.1139 4.73141 22.7796 4.3475 26.7528L4.10219 29.2904C1.78797 29.611 0 31.6015 0 34.0026C0 36.0984 1.34562 37.8801 3.23703 38.5139C3.10266 42.6457 5.03656 46.6414 8.40453 49.0881L9.10953 49.6004C4.90703 51.3367 2.03781 55.4804 2.03781 60.1735V63.7648C2.03781 64.4742 2.61297 65.0493 3.32234 65.0493C4.03172 65.0493 4.60687 64.4742 4.60687 63.7648V60.1735C4.60687 55.9604 7.58625 52.3176 11.7005 51.4829L14.5167 53.529C16.2455 54.7849 18.2714 55.4131 20.2973 55.4131C22.3233 55.4131 24.3492 54.7849 26.078 53.529L32.1903 49.0881C35.5583 46.6412 37.4923 42.6456 37.3577 38.5134C39.2491 37.8795 40.5947 36.0981 40.5947 34.0026ZM3.47516 35.7795C2.92469 35.3817 2.56906 34.7337 2.56906 34.0026C2.56906 33.1242 3.09031 32.3671 3.83859 32.0185L3.47516 35.7795ZM11.2523 18.3326C13.7336 16.0796 16.9459 14.8387 20.2975 14.8387C23.6491 14.8387 26.8614 16.0796 29.3427 18.3326C31.8239 20.5856 33.3678 23.6635 33.6902 26.9998L33.7191 27.2993C28.4245 26.3881 25.3394 20.6771 25.3072 20.6162C25.0866 20.1959 24.6522 19.9317 24.1777 19.9287C24.1752 19.9287 24.1725 19.9287 24.17 19.9287C23.6984 19.9287 23.2645 20.1871 23.0398 20.6025C23.0048 20.667 19.513 26.8365 7.08734 25.739C7.63609 22.8932 9.08703 20.2987 11.2523 18.3326ZM6.78016 28.289C16.9409 29.2081 21.9677 25.645 24.0591 23.4396C25.635 25.6603 28.993 29.4054 33.9731 29.9276L34.2111 32.389L31.6647 34.5856C30.7859 32.7495 28.9098 31.4781 26.7422 31.4781C24.1773 31.4781 22.0216 33.2582 21.4425 35.6474H19.1523C18.5731 33.2581 16.4175 31.4781 13.8527 31.4781C11.685 31.4781 9.80891 32.7495 8.93016 34.5856L6.38391 32.3887L6.78016 28.289ZM29.627 36.9321C29.627 38.5228 28.3328 39.817 26.7422 39.817C25.1516 39.817 23.8573 38.5228 23.8573 36.9321C23.8573 35.3415 25.1516 34.0473 26.7422 34.0473C28.3328 34.0473 29.627 35.3415 29.627 36.9321ZM16.7375 36.9321C16.7375 38.5228 15.4433 39.817 13.8528 39.817C12.2622 39.817 10.968 38.5228 10.968 36.9321C10.968 35.3415 12.2622 34.0473 13.8528 34.0473C15.4433 34.0473 16.7375 35.3415 16.7375 36.9321ZM30.6805 47.0095L24.5681 51.4504C22.0137 53.3064 18.5812 53.3064 16.0269 51.4504L9.91438 47.0095C7.06531 44.9396 5.50594 41.476 5.84469 37.9707L6.08141 35.5209L8.43516 37.5515C8.74375 40.2679 11.0552 42.3857 13.8528 42.3857C16.4177 42.3857 18.5733 40.6056 19.1525 38.2164H20.5439V40.6317H19.5948C18.8855 40.6317 18.3103 41.2068 18.3103 41.9162C18.3103 42.6256 18.8855 43.2007 19.5948 43.2007H21.8284C22.5378 43.2007 23.113 42.6256 23.113 41.9162V40.9984C24.0778 41.8604 25.3497 42.3857 26.7422 42.3857C29.5398 42.3857 31.8512 40.2679 32.1598 37.5515L34.5136 35.5209L34.7503 37.9707C35.0892 41.476 33.5295 44.9396 30.6805 47.0095ZM37.1197 35.7789L36.7564 32.0189C37.5047 32.3675 38.0259 33.1245 38.0259 34.0025C38.0259 34.7334 37.6703 35.381 37.1197 35.7789Z" fill="#FE5A0E"/>
<path d="M24.1542 44.6595C23.6523 44.1578 22.8391 44.1579 22.3373 44.6595C21.2125 45.7839 19.3828 45.7842 18.2583 44.6595C17.7566 44.1578 16.9433 44.1578 16.4417 44.6595C15.94 45.1612 15.94 45.9745 16.4417 46.476C17.505 47.5393 18.9012 48.0707 20.298 48.0707C21.6942 48.0707 23.0911 47.539 24.1542 46.476C24.6559 45.9743 24.6559 45.1612 24.1542 44.6595Z" fill="#FE5A0E"/>
<path d="M27.6352 34.9033H25.849C25.1396 34.9033 24.5645 35.4785 24.5645 36.1878C24.5645 36.8972 25.1396 37.4724 25.849 37.4724H27.6352C28.3446 37.4724 28.9198 36.8972 28.9198 36.1878C28.9198 35.4785 28.3448 34.9033 27.6352 34.9033Z" fill="#FE5A0E"/>
<path d="M14.7466 34.9033H12.9603C12.2508 34.9033 11.6758 35.4785 11.6758 36.1878C11.6758 36.8972 12.2509 37.4724 12.9603 37.4724H14.7466C15.4559 37.4724 16.0311 36.8972 16.0311 36.1878C16.0311 35.4785 15.4559 34.9033 14.7466 34.9033Z" fill="#FE5A0E"/>
<path d="M63.3539 59.5818C64.0633 59.5818 64.6384 59.0067 64.6384 58.2972C64.6384 57.5878 64.0633 57.0127 63.3539 57.0127C62.6444 57.0127 62.0693 57.5878 62.0693 58.2972C62.0693 59.0067 62.6444 59.5818 63.3539 59.5818Z" fill="#FE5A0E"/>
<path d="M63.3539 64.852C64.0633 64.852 64.6384 64.2769 64.6384 63.5675C64.6384 62.8581 64.0633 62.283 63.3539 62.283C62.6444 62.283 62.0693 62.8581 62.0693 63.5675C62.0693 64.2769 62.6444 64.852 63.3539 64.852Z" fill="#FE5A0E"/>
<path d="M63.3539 70.1223C64.0633 70.1223 64.6384 69.5472 64.6384 68.8378C64.6384 68.1283 64.0633 67.5532 63.3539 67.5532C62.6444 67.5532 62.0693 68.1283 62.0693 68.8378C62.0693 69.5472 62.6444 70.1223 63.3539 70.1223Z" fill="#FE5A0E"/>
</svg>
