<svg width="19" height="20" viewBox="0 0 19 20" fill="none" xmlns="http://www.w3.org/2000/svg">
<path d="M7.93604 16.0361C9.45361 16.0361 10.8687 15.5952 12.0684 14.8364L16.1699 18.938C16.4673 19.2456 16.8672 19.3892 17.2876 19.3892C18.1797 19.3892 18.8359 18.7021 18.8359 17.8203C18.8359 17.4204 18.6924 17.0205 18.395 16.7129L14.3242 12.6421C15.165 11.4116 15.647 9.9248 15.647 8.3252C15.647 4.09033 12.1812 0.614258 7.93604 0.614258C3.71143 0.614258 0.235352 4.08008 0.235352 8.3252C0.235352 12.5703 3.70117 16.0361 7.93604 16.0361ZM7.93604 13.811C4.93164 13.811 2.46045 11.3398 2.46045 8.3252C2.46045 5.31055 4.93164 2.83936 7.93604 2.83936C10.9507 2.83936 13.4219 5.31055 13.4219 8.3252C13.4219 11.3398 10.9507 13.811 7.93604 13.811Z" fill="#FE5A0E"/>
</svg>
