<svg width="84" height="15" viewBox="0 0 84 15" fill="none" xmlns="http://www.w3.org/2000/svg">
<path d="M3.08789 14.6338C3.36816 14.8525 3.7168 14.7773 4.13379 14.4766L7.53809 11.9746L10.9355 14.4766C11.3525 14.7773 11.7012 14.8525 11.9814 14.6338C12.2617 14.4287 12.3232 14.0801 12.1523 13.5947L10.8125 9.5957L14.2441 7.13477C14.6543 6.84082 14.8252 6.51953 14.7158 6.18457C14.6064 5.85645 14.2852 5.69238 13.7793 5.69922L9.56836 5.72656L8.29004 1.70703C8.12598 1.22168 7.88672 0.96875 7.53809 0.96875C7.18262 0.96875 6.94336 1.22168 6.7793 1.70703L5.50098 5.72656L1.29004 5.69922C0.78418 5.69238 0.462891 5.85645 0.353516 6.18457C0.237305 6.51953 0.415039 6.84082 0.825195 7.13477L4.25684 9.5957L2.91699 13.5947C2.74609 14.0801 2.80762 14.4287 3.08789 14.6338ZM20.1641 14.6338C20.4443 14.8525 20.793 14.7773 21.21 14.4766L24.6143 11.9746L28.0117 14.4766C28.4287 14.7773 28.7773 14.8525 29.0576 14.6338C29.3379 14.4287 29.3994 14.0801 29.2285 13.5947L27.8887 9.5957L31.3203 7.13477C31.7305 6.84082 31.9014 6.51953 31.792 6.18457C31.6826 5.85645 31.3613 5.69238 30.8555 5.69922L26.6445 5.72656L25.3662 1.70703C25.2021 1.22168 24.9629 0.96875 24.6143 0.96875C24.2588 0.96875 24.0195 1.22168 23.8555 1.70703L22.5771 5.72656L18.3662 5.69922C17.8604 5.69238 17.5391 5.85645 17.4297 6.18457C17.3135 6.51953 17.4912 6.84082 17.9014 7.13477L21.333 9.5957L19.9932 13.5947C19.8223 14.0801 19.8838 14.4287 20.1641 14.6338ZM37.2402 14.6338C37.5205 14.8525 37.8691 14.7773 38.2861 14.4766L41.6904 11.9746L45.0879 14.4766C45.5049 14.7773 45.8535 14.8525 46.1338 14.6338C46.4141 14.4287 46.4756 14.0801 46.3047 13.5947L44.9648 9.5957L48.3965 7.13477C48.8066 6.84082 48.9775 6.51953 48.8682 6.18457C48.7588 5.85645 48.4375 5.69238 47.9316 5.69922L43.7207 5.72656L42.4424 1.70703C42.2783 1.22168 42.0391 0.96875 41.6904 0.96875C41.335 0.96875 41.0957 1.22168 40.9316 1.70703L39.6533 5.72656L35.4424 5.69922C34.9365 5.69238 34.6152 5.85645 34.5059 6.18457C34.3896 6.51953 34.5674 6.84082 34.9775 7.13477L38.4092 9.5957L37.0693 13.5947C36.8984 14.0801 36.96 14.4287 37.2402 14.6338ZM54.3164 14.6338C54.5967 14.8525 54.9453 14.7773 55.3623 14.4766L58.7666 11.9746L62.1641 14.4766C62.5811 14.7773 62.9297 14.8525 63.21 14.6338C63.4902 14.4287 63.5518 14.0801 63.3809 13.5947L62.041 9.5957L65.4727 7.13477C65.8828 6.84082 66.0537 6.51953 65.9443 6.18457C65.835 5.85645 65.5137 5.69238 65.0078 5.69922L60.7969 5.72656L59.5186 1.70703C59.3545 1.22168 59.1152 0.96875 58.7666 0.96875C58.4111 0.96875 58.1719 1.22168 58.0078 1.70703L56.7295 5.72656L52.5186 5.69922C52.0127 5.69238 51.6914 5.85645 51.582 6.18457C51.4658 6.51953 51.6436 6.84082 52.0537 7.13477L55.4854 9.5957L54.1455 13.5947C53.9746 14.0801 54.0361 14.4287 54.3164 14.6338ZM71.3926 14.6338C71.6729 14.8525 72.0215 14.7773 72.4385 14.4766L75.8428 11.9746L79.2402 14.4766C79.6572 14.7773 80.0059 14.8525 80.2861 14.6338C80.5664 14.4287 80.6279 14.0801 80.457 13.5947L79.1172 9.5957L82.5488 7.13477C82.959 6.84082 83.1299 6.51953 83.0205 6.18457C82.9111 5.85645 82.5898 5.69238 82.084 5.69922L77.873 5.72656L76.5947 1.70703C76.4307 1.22168 76.1914 0.96875 75.8428 0.96875C75.4873 0.96875 75.248 1.22168 75.084 1.70703L73.8057 5.72656L69.5947 5.69922C69.0889 5.69238 68.7676 5.85645 68.6582 6.18457C68.542 6.51953 68.7197 6.84082 69.1299 7.13477L72.5615 9.5957L71.2217 13.5947C71.0508 14.0801 71.1123 14.4287 71.3926 14.6338ZM72.3975 13.2529C72.3838 13.2393 72.3906 13.2324 72.3975 13.1982L73.6621 9.58203C73.7578 9.30859 73.7168 9.10352 73.4639 8.93945L70.3125 6.76562C70.2783 6.74512 70.2715 6.73145 70.2783 6.71777C70.2852 6.69727 70.2988 6.69727 70.3398 6.69727L74.1611 6.77246C74.4551 6.7793 74.626 6.66992 74.708 6.38281L75.8018 2.71875C75.8086 2.67773 75.8223 2.6709 75.8428 2.6709C75.8564 2.6709 75.8701 2.67773 75.877 2.71875L76.9707 6.38281C77.0527 6.66992 77.2236 6.7793 77.5176 6.77246L81.3457 6.69727C81.3799 6.69727 81.3936 6.69727 81.4004 6.71777C81.4072 6.73145 81.4004 6.74512 81.3662 6.76562L78.2148 8.93945C77.9619 9.11035 77.9209 9.30859 78.0166 9.58203L79.2812 13.1982C79.2881 13.2324 79.2949 13.2393 79.2812 13.2529C79.2676 13.2734 79.2539 13.2598 79.2197 13.2393L76.1846 10.915C75.959 10.7373 75.7197 10.7373 75.4941 10.915L72.459 13.2393C72.4248 13.2598 72.4111 13.2734 72.3975 13.2529Z" fill="#FACB00"/>
</svg>
