<svg width="19" height="20" viewBox="0 0 19 20" fill="none" xmlns="http://www.w3.org/2000/svg">
<path d="M3.73193 19.1328H15.4624C17.5952 19.1328 18.7231 18.0151 18.7231 15.9028V4.12109C18.7231 2.00879 17.5952 0.880859 15.4624 0.880859H3.73193C1.60938 0.880859 0.471191 1.99854 0.471191 4.12109V15.9028C0.471191 18.0151 1.60938 19.1328 3.73193 19.1328ZM3.90625 17.0308C3.04492 17.0308 2.57324 16.6001 2.57324 15.6875V4.32617C2.57324 3.42383 3.04492 2.98291 3.90625 2.98291H15.2983C16.1494 2.98291 16.6211 3.42383 16.6211 4.32617V15.6875C16.6211 16.6001 16.1494 17.0308 15.2983 17.0308H3.90625ZM10.6738 13.0728L14.3447 9.16602C14.6831 8.80713 14.6831 8.26367 14.3755 7.95605C14.0166 7.60742 13.4629 7.58691 13.1348 7.9458L9.60742 11.6987L6.08008 7.9458C5.75195 7.58691 5.19824 7.59717 4.84961 7.95605C4.54199 8.27393 4.54199 8.80713 4.87012 9.16602L8.55127 13.0728C9.17676 13.7495 10.0381 13.7495 10.6738 13.0728Z" fill="#FE5A0E"/>
</svg>
