<svg width="62" height="62" viewBox="0 0 62 62" fill="none" xmlns="http://www.w3.org/2000/svg">
<path d="M37.2884 8.9881C37.2884 5.1004 34.1123 1.9375 30.2083 1.9375C26.3044 1.9375 23.1282 5.1004 23.1282 8.9881C23.1282 12.8758 26.3044 16.0387 30.2083 16.0387C34.1123 16.0387 37.2884 12.8758 37.2884 8.9881ZM30.2083 13.6885C27.6057 13.6885 25.4883 11.5799 25.4883 8.9881C25.4883 6.3963 27.6057 4.2877 30.2083 4.2877C32.811 4.2877 34.9284 6.3963 34.9284 8.9881C34.9284 11.5799 32.811 13.6885 30.2083 13.6885Z" fill="white"/>
<path d="M40.8284 31.3149V26.6145C40.8284 20.7829 36.0642 16.0386 30.2083 16.0386C24.3524 16.0386 19.5882 20.7829 19.5882 26.6145V31.3149C19.5882 31.9639 20.1166 32.49 20.7682 32.49H39.6484C40.3 32.49 40.8284 31.9639 40.8284 31.3149ZM38.4684 30.1398H21.9482V26.6145C21.9482 22.0788 25.6537 18.3888 30.2083 18.3888C34.7629 18.3888 38.4684 22.0788 38.4684 26.6145V30.1398Z" fill="white"/>
<path d="M8.47934 48.0148L14.1602 50.8429V57.1672C14.1602 57.8162 14.6886 58.3423 15.3402 58.3423H27.8483C28.4999 58.3423 29.0283 57.8162 29.0283 57.1672V42.2176C29.0283 38.4828 26.261 35.2606 22.7281 34.8822C22.6343 34.8646 18.1675 34.5331 16.0082 32.3842L12.7773 29.1669C11.8857 28.2788 10.7005 27.7897 9.44011 27.7897V18.3889C9.44011 15.7971 7.32269 13.6885 4.72005 13.6885C2.11742 13.6885 0 15.7971 0 18.3889V34.3515C0 40.1344 3.2802 45.4255 8.47934 48.0148ZM2.36003 18.3889C2.36003 17.093 3.41873 16.0387 4.72005 16.0387C6.02137 16.0387 7.08008 17.093 7.08008 18.3889V28.4197C5.64093 29.2483 4.72005 30.7934 4.72005 32.4901C4.72005 33.7451 5.21117 34.9253 6.10291 35.8133L12.1458 41.8321C12.6063 42.291 13.3536 42.2913 13.8145 41.8323C14.2753 41.3734 14.2754 40.6294 13.8146 40.1704L7.7718 34.1515C7.32576 33.7074 7.08008 33.1174 7.08008 32.4901C7.08008 31.4955 7.71221 30.6048 8.65327 30.2737C8.65363 30.2736 8.65398 30.2734 8.65434 30.2733H8.65445C9.4663 29.9867 10.4323 30.1552 11.1085 30.8286L14.3398 34.0464C16.5405 36.2364 19.7479 36.8524 22.4625 37.2175C22.4669 37.218 22.4713 37.2186 22.4758 37.2191C24.8268 37.4708 26.6683 39.6664 26.6683 42.2176V55.9921H16.5202V50.1166C16.5202 49.6715 16.2675 49.2645 15.8679 49.0656L9.53486 45.9128C5.10934 43.7087 2.36003 39.2787 2.36003 34.3515V18.3889Z" fill="white"/>
<path d="M54.1626 46.3561C54.8143 46.3561 55.3426 45.8299 55.3426 45.181C55.3426 44.532 54.8143 44.0059 54.1626 44.0059C53.5109 44.0059 52.9826 44.532 52.9826 45.181C52.9826 45.8299 53.5109 46.3561 54.1626 46.3561Z" fill="white"/>
<path d="M55.6966 13.6885C53.094 13.6885 50.9766 15.7971 50.9766 18.3889V27.7897C49.7162 27.7897 48.531 28.2788 47.6394 29.1668L44.4089 32.3839C42.5256 34.258 39.4707 34.5705 37.6886 34.8824C34.1557 35.2607 31.3884 38.4828 31.3884 42.2176V57.1672C31.3884 57.8162 31.9168 58.3423 32.5684 58.3423H45.0765C45.7281 58.3423 46.2565 57.8162 46.2565 57.1672V50.8429L50.1187 48.9202C50.7015 48.63 50.9379 47.9242 50.6465 47.3436C50.3552 46.7632 49.6466 46.5278 49.0634 46.818L44.5488 49.0654C44.1491 49.2645 43.8965 49.6715 43.8965 50.1166V55.9921H33.7484V42.2176C33.7484 39.6664 35.5899 37.4708 37.9409 37.2189C37.9453 37.2185 37.9498 37.218 37.9542 37.2174C40.7108 36.8467 43.8786 36.2341 46.0773 34.046L49.3082 30.8286C49.9836 30.156 50.9499 29.9865 51.7622 30.2733H51.7624C51.7627 30.2734 51.7631 30.2736 51.7634 30.2737C52.7045 30.6048 53.3366 31.4955 53.3366 32.4901C53.3366 33.1174 53.0909 33.7074 52.645 34.1517L46.6022 40.1706C46.1414 40.6295 46.1415 41.3735 46.6023 41.8324C47.063 42.2911 47.8103 42.2913 48.271 41.8323L54.3139 35.8134C55.2055 34.9253 55.6966 33.7451 55.6966 32.4901C55.6966 30.7934 54.7758 29.2483 53.3366 28.4197V18.3889C53.3366 17.093 54.3953 16.0387 55.6966 16.0387C56.998 16.0387 58.0567 17.093 58.0567 18.3889V34.3515C58.0567 36.5014 57.5119 38.6359 56.481 40.524C56.1696 41.0942 56.3814 41.8077 56.9541 42.1177C57.5265 42.4276 58.2431 42.2168 58.5544 41.6466C59.7728 39.4151 60.4167 36.8924 60.4167 34.3515V18.3889C60.4167 15.7971 58.2993 13.6885 55.6966 13.6885Z" fill="white"/>
</svg>
