<svg width="25" height="25" viewBox="0 0 25 25" fill="none" xmlns="http://www.w3.org/2000/svg">
<path d="M12.5 25C19.4036 25 25 19.4036 25 12.5C25 5.59644 19.4036 0 12.5 0C5.59644 0 0 5.59644 0 12.5C0 19.4036 5.59644 25 12.5 25Z" fill="url(#paint0_linear)"/>
<path d="M18.5839 7.19209L16.3525 18.447C16.3525 18.447 16.04 19.2282 15.1806 18.8522L10.0292 14.902L8.15421 13.9987L4.99992 12.9392C4.99992 12.9392 4.51652 12.7683 4.46769 12.3923C4.41886 12.0163 5.01456 11.8161 5.01456 11.8161L17.5536 6.89912C17.5536 6.89424 18.5839 6.44014 18.5839 7.19209Z" fill="white"/>
<path d="M9.62891 18.3203C9.62891 18.3203 9.47754 18.3057 9.29199 17.7148C9.10645 17.124 8.1543 13.999 8.1543 13.999L15.7275 9.18945C15.7275 9.18945 16.167 8.92578 16.1475 9.18945C16.1475 9.18945 16.2256 9.23828 15.9912 9.45313C15.7568 9.67285 10.0439 14.8096 10.0439 14.8096" fill="#D2E4F0"/>
<path d="M12.002 16.416L9.96582 18.2764C9.96582 18.2764 9.80469 18.3984 9.63379 18.3203L10.0244 14.8682" fill="#B5CFE4"/>
<defs>
<linearGradient id="paint0_linear" x1="12.5" y1="0" x2="12.5" y2="24.9088" gradientUnits="userSpaceOnUse">
<stop stop-color="#41BCE7"/>
<stop offset="1" stop-color="#22A6DC"/>
</linearGradient>
</defs>
</svg>
