<svg width="33" height="33" viewBox="0 0 33 33" fill="none" xmlns="http://www.w3.org/2000/svg">
<path d="M18.2866 8.572C19.1578 8.55175 20.0236 8.71383 20.8284 9.04786C21.6333 9.3819 22.3594 9.88049 22.9603 10.5117C23.5611 11.1428 24.0233 11.8926 24.3173 12.713C24.6113 13.5333 24.7306 14.406 24.6675 15.2751M19.3179 11.988C19.5827 11.979 19.8465 12.0246 20.093 12.1218C20.3395 12.219 20.5633 12.3659 20.7507 12.5532C20.9381 12.7406 21.0849 12.9645 21.1821 13.2109C21.2794 13.4574 21.3249 13.7213 21.3159 13.9861L19.3179 11.988ZM18.8667 10.2478C19.4251 10.2472 19.9777 10.3599 20.4912 10.5792C21.0047 10.7985 21.4684 11.1198 21.8541 11.5235C22.2397 11.9273 22.5394 12.4051 22.735 12.9281C22.9305 13.4511 23.0179 14.0084 22.9917 14.5661L18.8667 10.2478Z" stroke="#665CA7" stroke-linecap="round"/>
<path d="M18.333 17.415C18.7627 16.8564 19.2783 16.7705 19.8799 17.1572L22.2002 18.8975C22.5439 19.3272 22.3936 19.9287 21.749 20.7022C21.1045 21.4756 20.5029 21.7979 19.9443 21.6689C17.667 21.1533 15.4756 19.8643 13.3701 17.8018C11.2646 15.7393 9.9541 13.5049 9.43848 11.0986C9.43848 10.2393 9.97559 9.50879 11.0498 8.90723C11.6084 8.52051 12.0811 8.62793 12.4678 9.22949L14.0791 11.4854C14.3369 12.001 14.1865 12.4736 13.6279 12.9033C11.1143 13.8701 16.915 20.1221 18.333 17.415ZM5.89355 14.708C5.89355 19.7354 6.7959 20.8311 8.21387 22.3135C8.66504 22.7647 10.2764 23.5381 10.6631 23.5381V27.9854C10.6631 28.2432 10.9209 28.4365 11.1787 28.1787L14.5947 24.1182L16.2705 24.1826C25.5518 24.1826 26.6475 20.5732 26.6475 14.708C26.6475 8.84277 25.5518 5.2334 16.2705 5.2334C6.98926 5.2334 5.89355 8.84277 5.89355 14.708ZM3.95996 14.708C3.95996 6.58691 7.50488 3.2998 16.2705 3.2998C25.0361 3.2998 28.5811 6.58691 28.5811 14.708C28.5811 22.8291 25.0361 26.1162 16.2705 26.1162C15.626 26.1162 15.1104 26.1162 14.208 25.9873L11.7588 28.7588C11.3076 29.2744 9.9541 29.4678 9.9541 27.9209V25.2139C9.56738 25.2139 8.66504 24.8272 7.44043 24.0537C6.21582 23.2158 3.95996 21.2178 3.95996 14.708Z" fill="#665CA7"/>
</svg>
