<svg width="24" height="24" viewBox="0 0 24 24" fill="none" xmlns="http://www.w3.org/2000/svg">
<g clip-path="url(#clip0)">
<path d="M23.821 11.5313C23.7672 11.4711 22.477 10.0384 20.3881 8.59335C17.5952 6.66129 14.6946 5.64007 12 5.64007C9.30539 5.64007 6.4048 6.66129 3.61189 8.59335C1.52299 10.0384 0.232841 11.4711 0.178981 11.5313C-0.0596604 11.7982 -0.0596604 12.2018 0.178981 12.4687C0.232841 12.5289 1.52303 13.9616 3.61189 15.4067C6.4048 17.3387 9.30539 18.3599 12 18.3599C14.6946 18.3599 17.5952 17.3387 20.3881 15.4067C22.477 13.9616 23.7672 12.5289 23.821 12.4687C24.0597 12.2018 24.0597 11.7982 23.821 11.5313ZM4.44031 14.2697C3.17768 13.3995 2.21355 12.5198 1.68405 12.0003C2.59216 11.1108 4.78067 9.16307 7.59103 7.99231C6.62723 9.05164 6.03899 10.4584 6.03899 12C6.03899 13.5397 6.62582 14.9449 7.58746 16.0038C6.36585 15.4958 5.29086 14.856 4.44031 14.2697ZM12 16.5548C9.48849 16.5548 7.4452 14.5115 7.4452 12C7.4452 9.48847 9.48849 7.44523 12 7.44523C14.5115 7.44523 16.5548 9.48847 16.5548 12C16.5548 14.5115 14.5115 16.5548 12 16.5548ZM16.409 16.0077C17.3728 14.9484 17.961 13.5416 17.961 12C17.961 10.4602 17.3742 9.05507 16.4126 7.99616C17.6342 8.50419 18.7092 9.14394 19.5597 9.73021C20.8223 10.6004 21.7863 11.48 22.316 11.9997C21.4079 12.8892 19.2194 14.8369 16.409 16.0077Z" fill="#5C717A"/>
<path d="M12 9.73392C10.7505 9.73392 9.73389 10.7505 9.73389 12C9.73389 13.2495 10.7505 14.2661 12 14.2661C12.3883 14.2661 12.7031 13.9513 12.7031 13.563C12.7031 13.3688 12.6244 13.193 12.4971 13.0658C12.3699 12.9385 12.1941 12.8598 12 12.8598C11.5259 12.8598 11.1401 12.4741 11.1401 12C11.1401 11.5259 11.5259 11.1402 12 11.1402C12.4741 11.1402 12.8598 11.5259 12.8598 12C12.8598 12.1942 12.9385 12.3699 13.0658 12.4972C13.193 12.6244 13.3688 12.7031 13.5629 12.7031C13.9512 12.7031 14.2661 12.3883 14.2661 12C14.2661 10.7505 13.2495 9.73392 12 9.73392Z" fill="#5C717A"/>
</g>
<defs>
<clipPath id="clip0">
<rect width="24" height="24" fill="white"/>
</clipPath>
</defs>
</svg>
