<svg width="40" height="62" viewBox="0 0 40 62" fill="none" xmlns="http://www.w3.org/2000/svg">
<path d="M22.4219 62.0007C23.0907 62.0007 23.6328 61.4584 23.6328 60.7894C23.6328 60.1204 23.0907 59.5781 22.4219 59.5781C21.7531 59.5781 21.2109 60.1204 21.2109 60.7894C21.2109 61.4584 21.7531 62.0007 22.4219 62.0007Z" fill="white"/>
<path d="M34.5313 9.6875C33.6493 9.6875 32.8224 9.92557 32.1094 10.3392V9.6875C32.1094 7.01666 29.9365 4.84375 27.2656 4.84375C26.3837 4.84375 25.5568 5.08182 24.8438 5.49548V4.84375C24.8438 2.17291 22.6708 0 20 0C17.3292 0 15.1563 2.17291 15.1563 4.84375V5.49548C14.4433 5.08182 13.6163 4.84375 12.7344 4.84375C10.0635 4.84375 7.89063 7.01666 7.89063 9.6875V25.0757C6.3508 23.5024 4.20598 22.5234 1.83594 22.5234C1.16726 22.5234 0.625 23.0657 0.625 23.7344V43.1094C0.625 46.5207 2.25456 49.7801 4.98438 51.8281L6.92175 53.2811C8.8865 54.7552 10.3125 57.9127 10.3125 60.7891C10.3125 61.4577 10.8548 62 11.5234 62H16.9727C17.6413 62 18.1836 61.4577 18.1836 60.7891C18.1836 60.1204 17.6413 59.5781 16.9727 59.5781H12.669C12.3666 56.7044 11.0055 53.3173 8.375 51.3438L6.43762 49.8907C4.31449 48.2978 3.04688 45.7627 3.04688 43.1094V25.067C5.80709 25.6296 7.89063 28.0762 7.89063 31V38.2656C7.89063 38.9343 8.43288 39.4766 9.10156 39.4766C10.4357 39.4766 11.7479 39.7906 12.9285 40.3879C13.6613 43.4478 16.4335 45.8118 20.3368 49.1373C21.1345 49.817 21.9594 50.52 22.8357 51.2864C23.0638 51.4862 23.3482 51.5859 23.6328 51.5859C23.9174 51.5859 24.2018 51.4862 24.4301 51.2864C25.3062 50.52 26.1312 49.817 26.929 49.1373C31.5068 45.2369 34.5313 42.6601 34.5313 38.7306C34.5313 35.1552 31.9947 32.2109 28.4766 32.2109C26.0712 32.2109 24.5454 33.5843 23.6328 34.9107C22.7203 33.5843 21.1945 32.2109 18.7891 32.2109C15.6251 32.2109 13.2425 34.5948 12.8069 37.7023C12.0028 37.4122 11.1654 37.2171 10.3125 37.122C10.3125 36.3894 10.3125 10.4313 10.3125 9.6875C10.3125 8.35208 11.399 7.26562 12.7344 7.26562C14.0698 7.26562 15.1563 8.35208 15.1563 9.6875V26.1562C15.1563 26.8249 15.6985 27.3672 16.3672 27.3672C17.0359 27.3672 17.5781 26.8249 17.5781 26.1562V4.84375C17.5781 3.50833 18.6646 2.42188 20 2.42188C21.3354 2.42188 22.4219 3.50833 22.4219 4.84375V26.1562C22.4219 26.8249 22.9641 27.3672 23.6328 27.3672C24.3015 27.3672 24.8438 26.8249 24.8438 26.1562V9.6875C24.8438 8.35208 25.9302 7.26562 27.2656 7.26562C28.601 7.26562 29.6875 8.35208 29.6875 9.6875V26.1562C29.6875 26.8249 30.2298 27.3672 30.8984 27.3672C31.5671 27.3672 32.1094 26.8249 32.1094 26.1562V14.5312C32.1094 13.1958 33.1958 12.1094 34.5313 12.1094C35.8667 12.1094 36.9531 13.1958 36.9531 14.5312V43.2801C36.9531 45.9987 36.1812 48.648 34.7206 50.9416C33.2965 53.1783 32.3248 56.4718 32.141 59.5781H27.8711C27.2024 59.5781 26.6602 60.1204 26.6602 60.7891C26.6602 61.4577 27.2024 62 27.8711 62H33.3203C33.989 62 34.5313 61.4577 34.5313 60.7891V60.6304C34.5313 57.6646 35.4075 54.3721 36.7637 52.2423C38.472 49.5594 39.375 46.4603 39.375 43.2801V14.5312C39.375 11.8604 37.2021 9.6875 34.5313 9.6875ZM18.7891 34.6328C21.4863 34.6328 22.4272 37.847 22.4662 37.9851C22.612 38.5085 23.089 38.8711 23.6328 38.8711C24.1782 38.8711 24.6563 38.5065 24.8006 37.9806C24.8098 37.9469 25.7503 34.6328 28.4766 34.6328C30.5476 34.6328 32.1094 36.3945 32.1094 38.7306C32.1094 41.5418 29.5683 43.707 25.3583 47.2939C24.7997 47.7699 24.2277 48.2571 23.6328 48.7709C23.0379 48.2571 22.466 47.7698 21.9074 47.2939C17.6973 43.707 15.1563 41.5418 15.1563 38.7306C15.1563 36.3945 16.718 34.6328 18.7891 34.6328Z" fill="white"/>
</svg>
