<svg width="35" height="35" viewBox="0 0 35 35" fill="none" xmlns="http://www.w3.org/2000/svg">
<path fill-rule="evenodd" clip-rule="evenodd" d="M12.3179 27.8351L6.08667 29.8181L4.19995 30.4185L6.85048 22.5897C6.40569 21.7721 6.05336 20.906 5.80234 20.009C5.49784 18.9207 5.34419 17.7959 5.34419 16.6658C5.34419 13.3404 6.66727 10.1877 9.02591 7.84809C11.3922 5.50082 14.5684 4.2002 17.9008 4.2002C21.2321 4.2002 24.4066 5.50238 26.7709 7.84999C29.1286 10.1911 30.45 13.3444 30.45 16.6698C30.45 19.9946 29.1271 23.1469 26.7692 25.4864C24.4038 27.8333 21.2286 29.1344 17.8971 29.1344C16.8401 29.1344 15.7871 29.0039 14.763 28.7419C13.9184 28.5258 13.0987 28.2214 12.3178 27.8351L12.3179 27.8351Z" fill="#EEEEEE"/>
<path fill-rule="evenodd" clip-rule="evenodd" d="M29.4487 16.6697C29.4487 13.503 28.1558 10.6359 26.0654 8.56023C23.9753 6.48484 21.0885 5.20117 17.9007 5.20117C14.7101 5.20117 11.8219 6.48441 9.73079 8.55868C7.63875 10.6339 6.34514 13.5005 6.34514 16.6657C6.34514 17.7282 6.49208 18.7592 6.76627 19.7391C7.03873 20.7127 7.4373 21.6345 7.94253 22.4854L5.94117 28.3967L5.78296 28.864L6.25304 28.7144L12.4087 26.7555C13.2236 27.1941 14.0956 27.5377 15.011 27.7719C15.9332 28.0079 16.8998 28.1332 17.8969 28.1332C21.0861 28.1332 23.9734 26.8498 26.0639 24.7757C28.1554 22.7006 29.4487 19.8343 29.4487 16.6697L29.4487 16.6697Z" fill="#54CC61"/>
<path fill-rule="evenodd" clip-rule="evenodd" d="M16.0223 13.5388C15.9716 13.4367 15.6789 12.7297 15.4091 12.0781C15.2366 11.6615 15.0721 11.2643 15.0399 11.1874C14.736 10.463 14.4002 10.4848 14.1426 10.5016C14.1257 10.5026 14.1094 10.5037 14.0877 10.5037C13.9978 10.5037 13.9094 10.4981 13.8179 10.4923C13.7035 10.4851 13.5847 10.4775 13.4724 10.4775C13.3232 10.4775 13.1199 10.5085 12.9058 10.6087C12.747 10.683 12.5833 10.7949 12.4334 10.9596C12.4115 10.9832 12.395 11.0005 12.3772 11.0193C12.0205 11.3942 11.243 12.2114 11.243 13.7809C11.243 15.4272 12.4303 16.9928 12.6047 17.2228L12.6041 17.2232L12.6057 17.2254L12.6077 17.2273C12.6145 17.2361 12.6397 17.273 12.6769 17.3275C13.1154 17.9687 15.1311 20.9167 18.1952 22.1135C20.975 23.1982 21.478 23.0764 21.9273 22.9677C22.0038 22.9492 22.0785 22.9311 22.1593 22.9237C22.5231 22.8895 23.1183 22.6404 23.6192 22.2906C24.0347 22.0005 24.3974 21.6338 24.5363 21.2477C24.6601 20.9025 24.7302 20.5818 24.7627 20.3178C24.8099 19.9343 24.7725 19.6326 24.7028 19.5161L24.7018 19.5151C24.5957 19.3403 24.4122 19.2537 24.137 19.1237C24.0884 19.1008 24.0365 19.0764 23.9867 19.0522L23.9868 19.0519C23.797 18.9554 23.1404 18.6343 22.5791 18.369C22.2164 18.1975 21.8941 18.0502 21.7664 18.0044C21.5869 17.9399 21.4305 17.8912 21.2628 17.9101C21.0727 17.9315 20.9068 18.0294 20.7531 18.2623L20.7526 18.262C20.6754 18.378 20.5394 18.5519 20.3907 18.734C20.1553 19.0225 19.8744 19.3463 19.7546 19.4823V19.4833C19.7035 19.5415 19.6594 19.5732 19.6162 19.5784C19.5562 19.5857 19.4738 19.5611 19.3596 19.505C19.2866 19.4685 19.2155 19.4378 19.1278 19.3999C18.6838 19.2084 17.8193 18.8354 16.8339 17.963C16.4815 17.651 16.1713 17.31 15.9122 16.99C15.4929 16.4721 15.2096 16.0107 15.097 15.8163C15.0081 15.6639 15.1069 15.5651 15.198 15.4739L15.1976 15.4734C15.2984 15.3727 15.4125 15.2355 15.527 15.0979C15.5791 15.0353 15.6313 14.9725 15.6947 14.8995L15.6957 14.8985C15.8501 14.7189 15.9141 14.5882 16.0005 14.4117C16.0156 14.381 16.0313 14.3488 16.0472 14.3171L16.0482 14.3162C16.1241 14.1631 16.1436 14.0174 16.1294 13.8809C16.1163 13.7539 16.0738 13.6406 16.0219 13.539L16.0223 13.5388L16.0223 13.5388Z" fill="#FFFFFE"/>
</svg>
