<svg width="16" height="14" viewBox="0 0 16 14" fill="none" xmlns="http://www.w3.org/2000/svg">
<path d="M0.118164 6.97949C0.118164 7.26074 0.241211 7.5332 0.443359 7.72656L5.90137 13.1846C6.12109 13.3955 6.36719 13.501 6.61328 13.501C7.19336 13.501 7.60645 13.0879 7.60645 12.5342C7.60645 12.2441 7.4834 11.998 7.29883 11.8223L5.42676 9.92383L3.18555 7.87598L5.08398 7.99023H14.9629C15.5781 7.99023 16 7.57715 16 6.97949C16 6.38184 15.5781 5.97754 14.9629 5.97754H5.08398L3.19434 6.08301L5.42676 4.03516L7.29883 2.14551C7.4834 1.96094 7.60645 1.71484 7.60645 1.4248C7.60645 0.879883 7.19336 0.466797 6.61328 0.466797C6.36719 0.466797 6.1123 0.563477 5.89258 0.791992L0.443359 6.23242C0.241211 6.43457 0.118164 6.70703 0.118164 6.97949Z" fill="#FE5A0E"/>
</svg>
